<?xml version="1.0" encoding="utf-8"?>
<!-- Generator: Adobe Illustrator 25.0.0, SVG Export Plug-In . SVG Version: 6.00 Build 0)  -->
<svg version="1.0" id="Layer_1" xmlns="http://www.w3.org/2000/svg" xmlns:xlink="http://www.w3.org/1999/xlink" x="0px" y="0px"
	 viewBox="0 0 122.9 109.8" style="enable-background:new 0 0 122.9 109.8;" xml:space="preserve">
<style type="text/css">
	.st0{fill-rule:evenodd;clip-rule:evenodd;fill:#56CE72;}
</style>
<g>
	<path class="st0" d="M59.7,20.9c1.4,0,2.8,0.1,4.1,0.2V9.4c-0.7-0.2-1.2-0.6-1.7-1.1c-0.9-0.9-1.4-2.1-1.4-3.4
		c0-1.3,0.5-2.5,1.4-3.4C63,0.5,64.2,0,65.5,0c1.3,0,2.5,0.5,3.4,1.4s1.4,2.1,1.4,3.4c0,1.3-0.5,2.5-1.4,3.4
		c-0.5,0.5-1.1,0.9-1.7,1.1v12.4c3.2,0.7,6.3,1.8,9.1,3.4v-4.6c0-1,0.8-1.7,1.7-1.7h12c0.2-0.6,0.6-1.2,1.1-1.6
		c0.9-0.9,2.1-1.4,3.4-1.4c1.3,0,2.5,0.5,3.4,1.4s1.4,2.1,1.4,3.4c0,1.3-0.5,2.5-1.4,3.4s-2.1,1.4-3.4,1.4l0,0
		c-1.3,0-2.6-0.5-3.4-1.4c-0.5-0.5-0.9-1.1-1.1-1.8H79.8v5c7.2,5,12.4,12.5,14.4,21.3H116V30.8c-0.5-0.2-1-0.6-1.4-1
		c-0.9-0.9-1.4-2.1-1.4-3.4c0-1.3,0.5-2.5,1.4-3.4c0.9-0.9,2.1-1.4,3.4-1.4c1.3,0,2.5,0.5,3.4,1.4s1.4,2.1,1.4,3.4
		c0,1.3-0.5,2.5-1.4,3.4c-0.6,0.5-1.2,1-2,1.2v19.2c0,1-0.8,1.7-1.7,1.7H94.8c0.2,1.4,0.3,2.9,0.3,4.4c0,2-0.2,4-0.5,5.9h18.9
		c0.2-0.7,0.6-1.2,1.1-1.7c0.9-0.9,2.1-1.4,3.4-1.4c1.3,0,2.5,0.5,3.4,1.4c0.9,0.9,1.4,2.1,1.4,3.4c0,1.3-0.5,2.5-1.4,3.4
		s-2.1,1.4-3.4,1.4c-1.3,0-2.5-0.5-3.4-1.4c-0.5-0.5-0.9-1.1-1.1-1.7H93.8c-2.2,8.1-7.3,15.1-14,19.8v2.2h10.2
		c0.2-0.7,0.6-1.3,1.1-1.8c0.9-0.9,2.1-1.4,3.4-1.4l0,0c1.3,0,2.5,0.5,3.4,1.4s1.4,2.1,1.4,3.4c0,1.3-0.5,2.5-1.4,3.4
		S95.9,94,94.6,94c-1.3,0-2.5-0.5-3.4-1.4c-0.4-0.4-0.8-1-1.1-1.6h-12c-0.9,0-1.7-0.8-1.7-1.7v-1.8c-2.8,1.5-5.9,2.7-9.1,3.3v9.6
		c0.7,0.2,1.2,0.6,1.7,1.1c0.9,0.9,1.4,2.1,1.4,3.4c0,1.3-0.5,2.5-1.4,3.4s-2.1,1.4-3.4,1.4c-1.3,0-2.5-0.5-3.4-1.4
		c-0.9-0.9-1.4-2.1-1.4-3.4c0-1.3,0.5-2.5,1.4-3.4c0.5-0.5,1-0.9,1.7-1.1v-9c-1.4,0.2-2.7,0.2-4.1,0.2c-2.1,0-4.1-0.2-6.1-0.5v13.5
		c0,0.9-0.8,1.7-1.7,1.7H32.7c-0.2,0.8-0.7,1.4-1.2,2c-0.9,0.9-2.1,1.4-3.4,1.4c-1.3,0-2.5-0.5-3.4-1.4c-0.9-0.9-1.4-2.1-1.4-3.4
		c0-1.3,0.5-2.5,1.4-3.4s2.1-1.4,3.4-1.4c1.3,0,2.5,0.5,3.4,1.4c0.4,0.4,0.7,0.9,1,1.4h17.6V90.4c-3.3-0.9-6.4-2.3-9.2-4.1
		c-0.3,0.3-0.7,0.4-1.2,0.4H29.3c-0.2,0.6-0.6,1.2-1.1,1.7c-0.9,0.9-2.1,1.4-3.4,1.4s-2.5-0.5-3.4-1.4c-0.9-0.9-1.4-2.1-1.4-3.4
		s0.5-2.5,1.4-3.4s2.1-1.4,3.4-1.4s2.5,0.5,3.4,1.4c0.5,0.5,0.9,1.1,1.1,1.8h7.5c-6.5-5.5-11-13.4-12.2-22.3H6.8v17.6
		c0.5,0.2,1,0.6,1.4,1c0.9,0.9,1.4,2.1,1.4,3.4c0,1.3-0.5,2.5-1.4,3.4s-2.1,1.4-3.4,1.4c-1.3,0-2.5-0.5-3.4-1.4
		C0.5,85.6,0,84.4,0,83.1c0-1.3,0.5-2.5,1.4-3.4c0.6-0.6,1.2-1,2-1.2V59.3c0-1,0.8-1.7,1.7-1.7h19.2c0-0.4,0-0.9,0-1.3
		c0-3.1,0.4-6.1,1.1-9H9.4C9.1,48,8.8,48.5,8.3,49c-0.9,0.9-2.1,1.4-3.4,1.4c-1.3,0-2.5-0.5-3.4-1.4C0.5,48.1,0,46.9,0,45.6
		c0-1.3,0.5-2.5,1.4-3.4c0.9-0.9,2.1-1.4,3.4-1.4c1.3,0,2.5,0.5,3.4,1.4c0.5,0.5,0.9,1,1.1,1.7h17.2c2.3-6.2,6.3-11.5,11.5-15.5
		v-1.8h-8.7c-0.2,0.7-0.6,1.3-1.1,1.8c-0.9,0.9-2.1,1.4-3.4,1.4s-2.5-0.5-3.4-1.4s-1.4-2.1-1.4-3.4s0.5-2.5,1.4-3.4
		c0.9-0.9,2.1-1.4,3.4-1.4s2.5,0.5,3.4,1.4c0.5,0.5,0.8,1,1.1,1.6h10.5c1,0,1.7,0.8,1.7,1.7V26c2.7-1.6,5.6-2.9,8.7-3.8V6.8H32.5
		c-0.2,0.5-0.6,1-1,1.4c-0.9,0.9-2.1,1.4-3.4,1.4c-1.3,0-2.5-0.5-3.4-1.4s-1.4-2.1-1.4-3.4c0-1.3,0.5-2.5,1.4-3.4
		C25.5,0.5,26.7,0,28.1,0c1.3,0,2.5,0.5,3.4,1.4c0.6,0.6,1,1.2,1.2,2h19.1c1,0,1.7,0.8,1.7,1.7v16.3C55.5,21.1,57.6,20.9,59.7,20.9
		L59.7,20.9z M45.5,52.8h2.8v-0.3v-5.6c0-3.2,1.3-6.1,3.4-8.3l0,0c2.1-2.1,5-3.4,8.3-3.4s6.1,1.3,8.3,3.4l0,0c2.1,2.1,3.4,5,3.4,8.3
		v5.6v0.3h2.2c0.5,0,0.9,0.4,0.9,0.9v19.3c0,0.5-0.4,0.9-0.9,0.9H45.5c-0.5,0-0.9-0.4-0.9-0.9V53.7C44.5,53.2,45,52.8,45.5,52.8
		L45.5,52.8L45.5,52.8z M52.8,52.8h14.3v-0.3v-5.7c0-2-0.8-3.8-2.1-5.1l0,0c-1.3-1.3-3.1-2.1-5-2.1c-2,0-3.8,0.8-5.1,2.1
		c-1.3,1.3-2.1,3.1-2.1,5.1v5.7V52.8L52.8,52.8L52.8,52.8z M60,63.3l1.4,6.7l-4,0l1.2-6.8c-1.1-0.3-1.9-1.4-1.9-2.6
		c0-1.5,1.2-2.7,2.7-2.7s2.7,1.2,2.7,2.7C62.2,62,61.3,63.1,60,63.3L60,63.3L60,63.3z"/>
</g>
</svg>
