<?xml version="1.0" encoding="utf-8"?>
<!-- Generator: Adobe Illustrator 25.0.0, SVG Export Plug-In . SVG Version: 6.00 Build 0)  -->
<svg version="1.0"
	 id="svg378" xmlns:cc="http://creativecommons.org/ns#" xmlns:dc="http://purl.org/dc/elements/1.1/" xmlns:inkscape="http://www.inkscape.org/namespaces/inkscape" xmlns:rdf="http://www.w3.org/1999/02/22-rdf-syntax-ns#" xmlns:sodipodi="http://sodipodi.sourceforge.net/DTD/sodipodi-0.dtd"
	 xmlns="http://www.w3.org/2000/svg" xmlns:xlink="http://www.w3.org/1999/xlink" x="0px" y="0px" viewBox="0 0 496.9 244.6"
	 style="enable-background:new 0 0 496.9 244.6;" xml:space="preserve">
<style type="text/css">
	.st0{fill-rule:evenodd;clip-rule:evenodd;fill:#FFC621;}
	.st1{fill-rule:evenodd;clip-rule:evenodd;fill:#EF2118;}
	.st2{fill-rule:evenodd;clip-rule:evenodd;fill:#298C08;}
	.st3{fill-rule:evenodd;clip-rule:evenodd;fill:#006BC6;}
</style>
<sodipodi:namedview  id="base" inkscape:current-layer="svg378" inkscape:cx="372.04724" inkscape:cy="-30.571075" inkscape:window-height="645" inkscape:window-maximized="0" inkscape:window-width="674" inkscape:window-x="0" inkscape:window-y="0" inkscape:zoom="0.22425739" showgrid="true">
	
		<inkscape:grid  color="#3f3fff" empcolor="#3f3fff" empopacity="0.38" empspacing="5" id="GridFromPre046Settings" opacity=".15" originx="0mm" originy="-166.12783mm" spacingx="15mm" spacingy="15mm" type="xygrid">
		</inkscape:grid>
</sodipodi:namedview>
<rect id="rect171" x="1" y="1.7" class="st0" width="495.9" height="237.9"/>
<rect id="rect289" y="163.6" class="st1" width="496.6" height="81"/>
<rect id="rect288" x="1" class="st2" width="496" height="86"/>
<ellipse id="path316" sodipodi:cx="534.21997" sodipodi:cy="352.97" sodipodi:rx="199.64999" sodipodi:ry="199.64999" class="st3" cx="240" cy="126.3" rx="51.4" ry="51.4">
</ellipse>
<path id="path322" inkscape:connector-curvature="0" class="st0" d="M217,89.9l-3.1,2.2l11.2,15.8l3-1.9L217,89.9L217,89.9z
	 M231.1,127.2l-4.6-3.2l1.9-6.1l-23,0.3l-6.7-5.1l31.4-0.3l5.8-17.6l3.1,7.1L231.1,127.2L231.1,127.2z M267.7,93.4l-3-2.3L253,106.6
	l2.7,2.3L267.7,93.4L267.7,93.4z M236.4,118l1.7-5.4l6.4,0l-7.3-21.8L240,83l9.8,29.8l18.6,0.2l-5.9,5.1L236.4,118L236.4,118z
	 M279.7,142.5l1.2-3.5l-18.3-6.3l-1.3,3.3L279.7,142.5L279.7,142.5z M246.7,120.3l5.6-0.1l2,6l18.5-13.6l8.4,0.3l-25.4,18.5
	l5.5,17.7l-6.7-4L246.7,120.3L246.7,120.3z M237.2,169.1l3.8,0.1l0.2-19.4l-3.5-0.2L237.2,169.1L237.2,169.1z M247.7,130.7l1.8,5.3
	l-5.1,3.8l18.8,13.2l2.4,8l-25.6-18.1L225,153.8l1.7-7.6L247.7,130.7L247.7,130.7z M198.4,136.9l1.1,3.6l18.5-5.8l-0.9-3.4
	L198.4,136.9L198.4,136.9z M238.1,135l-4.5,3.4l-5.2-3.7l-6.8,22l-6.9,4.8l9.3-30l-15-11l7.7-0.8L238.1,135L238.1,135z"/>
</svg>
