<?xml version="1.0" encoding="utf-8"?>
<!-- Generator: Adobe Illustrator 25.0.0, SVG Export Plug-In . SVG Version: 6.00 Build 0)  -->
<svg version="1.1" id="Layer_1" xmlns="http://www.w3.org/2000/svg" xmlns:xlink="http://www.w3.org/1999/xlink" x="0px" y="0px"
	 viewBox="0 0 122.9 116.7" style="enable-background:new 0 0 122.9 116.7;" xml:space="preserve">
<style type="text/css">
	.st0{fill-rule:evenodd;clip-rule:evenodd;fill:#31AFD4;}
</style>
<path class="st0" d="M25.8,32.1c6.2,2.1,14.9,3.4,24.5,3.4s18.2-1.3,24.5-3.4c5.4-1.8,8.8-4,8.8-6.2s-3.4-4.3-8.8-6.2
	c-6.2-2.1-14.9-3.4-24.5-3.4s-18.2,1.3-24.5,3.4C14.3,23.6,14,28.1,25.8,32.1z M97,51.9c-0.2-0.2-0.5-0.3-0.8-0.3
	c-0.1,0-0.1,0-0.2,0H70.6c-0.6,0-1.3,0.2-1.8,0.7c-0.5,0.5-0.7,1.1-0.7,1.8v48.3c0,1.4,1.1,2.5,2.6,2.6h37.4c1.4,0,2.5-1.1,2.6-2.6
	V66.3c0-0.1,0-0.2,0-0.2c0-0.3-0.2-0.6-0.4-0.9L97.3,52C97.2,52,97.1,52,97,51.9L97,51.9z M93.5,55.9v8.2c0,1,0.3,1.9,1,2.7
	c0.6,0.6,2.9,2.1,3.8,2.1h8.1v31.8c0,0.1-0.1,0.2-0.2,0.2s-0.1,0.1-0.2,0.1H72.5c-0.1,0-0.2,0-0.2-0.1c-0.1-0.1-0.1-0.1-0.1-0.2
	V56.1c0-0.1,0-0.2,0.1-0.2c0.1-0.1,0.1-0.1,0.2-0.1H93.5z M97.4,63.7v-7.3l8.4,8.5h-7.2C98,64.9,97.4,64.5,97.4,63.7L97.4,63.7z
	 M17.1,49.3c0.4,2,3.7,4,8.8,5.8c6.2,2.1,14.9,3.4,24.5,3.4c3.4,0,6.6-0.2,9.6-0.5v4.8c-3,0.3-6.3,0.4-9.6,0.4
	c-10.1,0-19.3-1.4-26-3.6c-2.6-0.8-5-2-7.4-3.4v14.2c0.4,2,3.7,4,8.8,5.8c6.2,2.1,14.9,3.4,24.5,3.4c3.4,0,6.6-0.2,9.6-0.5v4.8
	c-3,0.2-6.3,0.4-9.6,0.4c-10.1,0-19.3-1.4-26-3.6c-2.6-0.8-5-2-7.3-3.4v14.2c0.4,2,3.7,4,8.8,5.8c6.2,2.1,14.9,3.4,24.5,3.4
	c3.4,0,6.6-0.2,9.6-0.5v3.7c0,0.3,0,0.7,0.1,1c-3.1,0.3-6.3,0.5-9.7,0.5c-10.1,0-19.3-1.4-26-3.6c-3.4-1.2-12-5.1-12-9.8v-1.5
	c0-21.1,0-43.1,0-64.2c0-4.4,4.6-8.2,12.1-10.6c6.6-2.2,15.8-3.6,25.9-3.6s19.3,1.4,26,3.6s11.2,5.6,11.9,9.5
	c0.1,0.2,0.2,0.6,0.2,0.8v17.9h-4.7V33.1c-2.2,1.5-4.7,2.6-7.4,3.5c-6.7,2.3-15.8,3.6-26,3.6s-19.2-1.4-25.9-3.7
	c-2.6-0.8-5-1.9-7.3-3.4V49.3z"/>
</svg>
