<?xml version="1.0" encoding="utf-8"?>
<!-- Generator: Adobe Illustrator 25.0.0, SVG Export Plug-In . SVG Version: 6.00 Build 0)  -->
<svg version="1.0" id="Layer_1" xmlns="http://www.w3.org/2000/svg" xmlns:xlink="http://www.w3.org/1999/xlink" x="0px" y="0px"
	 viewBox="0 0 122.9 87.7" style="enable-background:new 0 0 122.9 87.7;" xml:space="preserve">
<style type="text/css">
	.st0{fill-rule:evenodd;clip-rule:evenodd;fill:#3454D1;}
</style>
<g>
	<path class="st0" d="M52.8,74.6c3.3,9.7,17.1,10.1,20.2,0c3.7,3.3,14.5,3.9,18.5,6.2c1.3,0.7,2.4,1.6,3.3,2.8
		c0.6,0.8,1.4,2.3,2.1,4h-68c0.6-1.7,1.5-3.2,2.1-4c0.9-1.2,2.1-2.1,3.3-2.8C38.3,78.6,49.2,77.9,52.8,74.6L52.8,74.6L52.8,74.6z
		 M50.5,0h24.8c1.1,0,1.9,0.9,1.9,1.9v17.4c0,1.1-0.9,1.9-1.9,1.9H50.5c-1.1,0-1.9-0.9-1.9-1.9V1.9C48.6,0.9,49.4,0,50.5,0L50.5,0z
		 M76.1,5.4H49.8v14.1c0,0.1,0.1,0.3,0.2,0.4c0.1,0.1,0.2,0.2,0.4,0.2h25.2c0.2,0,0.3-0.1,0.4-0.2s0.2-0.2,0.2-0.4L76.1,5.4
		L76.1,5.4L76.1,5.4z M73.4,2.2c0.5,0,1,0.4,1,1s-0.4,1-1,1s-1-0.4-1-1S72.9,2.2,73.4,2.2L73.4,2.2z M66.9,2.2c0.5,0,1,0.4,1,1
		s-0.4,1-1,1s-1-0.4-1-1S66.4,2.2,66.9,2.2L66.9,2.2z M70.2,2.2c0.5,0,1,0.4,1,1s-0.4,1-1,1s-1-0.4-1-1S69.7,2.2,70.2,2.2L70.2,2.2z
		 M59.4,11.4l-3.2,1.2l3.2,1.2v2.8l-4.9-2.8v-2.4l4.9-2.8V11.4L59.4,11.4z M71.4,11.4v2.4l-4.9,2.8v-2.8l3.2-1.2l-3.2-1.2V8.6
		L71.4,11.4L71.4,11.4z M62.8,17.3h-2.1l2.6-10.1h2.1L62.8,17.3L62.8,17.3z M119.9,55.6c0,0,0.1,0,0.1,0c0.2-0.4,0.5-0.9,0.7-1.4
		c0,0,0,0,0,0c0.3-0.8,0.6-1.5,0.7-2.3c0.1-0.6,0.2-1.3,0.2-1.9h-3.8c-0.1,1.9-0.6,3.8-1.7,5.6L119.9,55.6L119.9,55.6L119.9,55.6z
		 M119.2,56.8h-3.8c-1.2,1.7-2.7,3.3-4.6,4.9c0.3,0,0.6-0.1,0.9-0.2c0.8-0.2,1.6-0.4,2.3-0.7c0.8-0.3,1.5-0.7,2.1-1.2
		c0.7-0.4,1.3-0.9,1.8-1.5C118.5,57.8,118.9,57.3,119.2,56.8L119.2,56.8L119.2,56.8z M107.6,61.8c-1.9-1.6-3.5-3.3-4.6-4.9h-3.8
		c0.4,0.5,0.8,1,1.2,1.4c0.6,0.6,1.2,1.1,1.8,1.5c0.7,0.4,1.4,0.8,2.1,1.2c0,0,0,0,0,0c0.8,0.3,1.5,0.6,2.3,0.7
		C107,61.7,107.3,61.7,107.6,61.8L107.6,61.8L107.6,61.8z M98.4,55.6h3.8c-1.1-1.8-1.6-3.7-1.7-5.6h-3.8c0,0.7,0.1,1.3,0.2,1.9
		c0.2,0.8,0.4,1.6,0.7,2.3C97.9,54.7,98.1,55.2,98.4,55.6L98.4,55.6z M96.8,48.8h3.8c0.1-1.9,0.8-3.8,1.9-5.6h-4
		c-0.2,0.4-0.5,0.9-0.7,1.4c0,0,0,0,0,0c-0.3,0.8-0.6,1.5-0.7,2.3C96.8,47.5,96.8,48.1,96.8,48.8L96.8,48.8z M99.2,42h4
		c1.1-1.6,2.6-3.3,4.5-5c-0.3,0-0.7,0.1-1,0.2c-0.8,0.2-1.6,0.4-2.3,0.7c-0.8,0.3-1.5,0.7-2.1,1.2c-0.7,0.4-1.3,0.9-1.8,1.5
		C99.9,41,99.5,41.5,99.2,42L99.2,42L99.2,42z M110.7,37c1.9,1.7,3.4,3.3,4.5,5h4c-0.4-0.5-0.8-1-1.2-1.4c-0.6-0.6-1.2-1.1-1.8-1.5
		c-0.7-0.4-1.4-0.8-2.1-1.2c0,0,0,0,0,0c-0.8-0.3-1.5-0.6-2.3-0.7C111.4,37.1,111.1,37.1,110.7,37L110.7,37L110.7,37z M120,43.2h-4
		c1.1,1.9,1.7,3.8,1.9,5.6h3.8c0-0.7-0.1-1.3-0.2-1.9c-0.2-0.8-0.4-1.6-0.7-2.3C120.5,44.1,120.3,43.6,120,43.2L120,43.2L120,43.2z
		 M106.5,36c0.9-0.2,1.8-0.3,2.8-0.3c0.9,0,1.8,0.1,2.8,0.3c0.9,0.2,1.7,0.4,2.6,0.8c0,0,0,0,0,0c0.8,0.3,1.6,0.8,2.3,1.3
		s1.4,1,2,1.7c0.6,0.6,1.2,1.3,1.7,2c0.5,0.7,0.9,1.5,1.3,2.3c0.4,0.8,0.6,1.7,0.8,2.6c0.2,0.9,0.3,1.8,0.3,2.8
		c0,0.9-0.1,1.8-0.3,2.8c-0.2,0.9-0.4,1.7-0.8,2.5c0,0,0,0,0,0c-0.3,0.8-0.8,1.6-1.3,2.3s-1,1.4-1.7,2s-1.3,1.2-2,1.7
		c-0.7,0.5-1.5,0.9-2.3,1.3c-0.8,0.4-1.7,0.6-2.6,0.8c-0.9,0.2-1.8,0.3-2.8,0.3c-0.9,0-1.8-0.1-2.8-0.3c-0.9-0.2-1.7-0.4-2.6-0.8
		c0,0,0,0,0,0c-0.8-0.3-1.6-0.8-2.3-1.3s-1.4-1-2-1.7c-0.6-0.6-1.2-1.3-1.7-2c-0.5-0.7-0.9-1.5-1.3-2.3c-0.4-0.8-0.6-1.7-0.8-2.6
		c-0.2-0.9-0.3-1.8-0.3-2.8c0-0.9,0.1-1.8,0.3-2.8c0.2-0.9,0.4-1.7,0.8-2.5c0,0,0,0,0,0c0.3-0.8,0.8-1.6,1.3-2.3s1-1.4,1.7-2
		s1.3-1.2,2-1.7c0.7-0.5,1.5-0.9,2.3-1.3C104.7,36.4,105.6,36.2,106.5,36L106.5,36z M109.8,37.8V42h4
		C112.7,40.6,111.4,39.2,109.8,37.8L109.8,37.8z M109.8,43.2v5.6h6.9c-0.2-1.8-0.8-3.7-2.1-5.6H109.8L109.8,43.2z M109.8,50v5.6h5
		c1.2-1.9,1.8-3.8,1.9-5.6H109.8L109.8,50z M109.8,56.8v4.2c1.7-1.4,3.1-2.8,4.2-4.2H109.8L109.8,56.8z M108.6,61v-4.2h-4.2
		C105.5,58.2,106.9,59.7,108.6,61L108.6,61z M108.6,55.6V50h-6.9c0.1,1.9,0.7,3.8,1.9,5.6H108.6L108.6,55.6z M108.6,48.8v-5.6h-4.8
		c-1.2,1.9-1.9,3.8-2.1,5.6H108.6L108.6,48.8z M108.6,42v-4.2c-1.6,1.4-2.9,2.8-4,4.2H108.6L108.6,42z M9.4,49.4L5,43
		c0.8-0.9,1.5-1.9,2-3c0.6-1.1,1.1-2.2,1.6-3.4l7.8,0.8L9.4,49.4L9.4,49.4L9.4,49.4z M10.9,50.3l7-12.2l12.1,7l-1,1.7l-9.6-5.5
		c-0.5-0.3-1.2-0.1-1.5,0.4s-0.1,1.2,0.4,1.5l9.6,5.5L27,50.2l-9.6-5.5c-0.5-0.3-1.2-0.1-1.5,0.4c-0.3,0.5-0.1,1.2,0.4,1.5l9.6,5.5
		L25,53.7l-9.6-5.5c-0.5-0.3-1.2-0.1-1.5,0.4s-0.1,1.2,0.4,1.5l9.6,5.5l-1,1.7L10.9,50.3L10.9,50.3L10.9,50.3z M3.5,40.8l-3.5-5
		l6,0.6c-0.3,0.8-0.7,1.7-1.2,2.4C4.4,39.4,4,40.1,3.5,40.8L3.5,40.8L3.5,40.8z M17.4,84.2c0.5,1.1,0,2.5-1.1,3
		c-1.1,0.5-2.5,0-3-1.2c-1.3-2.8-2.3-5.8-3.1-8.8c-0.8-3-1.2-6.1-1.5-9.3c-0.1-1.2,0.9-2.3,2.1-2.4c1.2-0.1,2.3,0.8,2.4,2.1
		c0.2,2.9,0.7,5.7,1.4,8.5C15.3,78.9,16.2,81.6,17.4,84.2L17.4,84.2z M26.9,30c-0.9,0.8-2.4,0.8-3.2-0.2c-0.8-0.9-0.8-2.4,0.2-3.2
		c2.1-1.9,4.6-3.8,7.2-5.5c2.3-1.5,4.7-2.8,6.9-3.7c1.2-0.5,2.5,0.1,2.9,1.3s-0.1,2.5-1.3,2.9c-2,0.8-4,1.9-6.1,3.2
		C31.1,26.5,28.9,28.3,26.9,30L26.9,30z M85.7,20.4c-1.1-0.6-1.4-2-0.8-3.1c0.6-1.1,2-1.4,3.1-0.8c2.5,1.5,4.9,3.2,7.2,5
		c2.3,1.9,4.4,4,6.3,6.2c0.8,1,0.7,2.4-0.2,3.2c-0.9,0.8-2.4,0.7-3.2-0.2c-1.8-2-3.7-3.9-5.8-5.6C90.2,23.3,88,21.8,85.7,20.4
		L85.7,20.4z M110.9,70.6c0.2-1.2,1.3-2.1,2.5-1.9s2.1,1.3,1.9,2.5c-0.3,2.6-0.8,5.1-1.5,7.4c-0.7,2.5-1.6,4.8-2.6,7.2
		c-0.5,1.2-1.8,1.7-3,1.2c-1.2-0.5-1.7-1.8-1.2-3c0.9-2.1,1.7-4.3,2.4-6.5C110.1,75.2,110.6,72.9,110.9,70.6L110.9,70.6z M50.3,54.5
		c-0.7,0-1.2,0.2-1.6,0.4c-0.2,0.1-0.3,0.3-0.5,0.5c-0.1,0.2-0.2,0.5-0.2,0.8c0,1,0.5,2.2,1.5,3.6l0,0l0,0l3.1,5
		c1.2,2,2.6,4,4.2,5.5c1.6,1.4,3.5,2.4,6,2.4c2.7,0,4.7-1,6.3-2.5c1.7-1.6,3-3.7,4.3-5.9l3.5-5.8c0.7-1.5,0.9-2.5,0.7-3.1
		c-0.1-0.3-0.5-0.5-1.1-0.5c-0.1,0-0.3,0-0.4,0c-0.2,0-0.3,0-0.5,0c-0.1,0-0.2,0-0.3,0c-0.3,0-0.6,0-1,0l1.2-4.8
		c-8.9,1.4-15.6-5.2-25.1-1.3l0.7,5.8C51,54.6,50.6,54.6,50.3,54.5L50.3,54.5L50.3,54.5z M77.9,53.4c0.9,0.3,1.4,0.8,1.7,1.7
		c0.2,1,0,2.4-0.9,4.3l0,0c0,0,0,0.1-0.1,0.1l-3.6,5.9c-1.4,2.3-2.8,4.5-4.6,6.3c-1.9,1.8-4.3,3-7.5,3c-3,0-5.3-1.2-7.2-2.9
		c-1.8-1.7-3.2-3.8-4.5-5.9l-3.1-5c-1.1-1.7-1.7-3.3-1.8-4.5c0-0.6,0.1-1.2,0.3-1.6c0.2-0.5,0.6-0.9,1.1-1.2
		c0.2-0.2,0.5-0.3,0.8-0.4c-0.2-2.7-0.3-5.6-0.2-8.4c0.1-0.7,0.2-1.3,0.4-2c0.8-2.8,2.8-4.2,5.3-5.7c1.4-0.9,2.9-1.5,4.4-2
		c1-0.3-0.8-3.5,0.2-3.6c5-0.5,13,4,16.4,7.8c1.7,1.9,2.8,3.4,3.1,6.7L77.9,53.4L77.9,53.4L77.9,53.4z"/>
</g>
</svg>
