<?xml version="1.0" encoding="utf-8"?>
<!-- Generator: Adobe Illustrator 25.0.0, SVG Export Plug-In . SVG Version: 6.00 Build 0)  -->
<svg version="1.0" id="Layer_1" xmlns="http://www.w3.org/2000/svg" xmlns:xlink="http://www.w3.org/1999/xlink" x="0px" y="0px"
	 viewBox="0 0 128 128" style="enable-background:new 0 0 128 128;" xml:space="preserve">
<style type="text/css">
	.st0{fill:#0A192F;}
</style>
<g>
	<path class="st0" d="M128,9.1v109.7c0,5-4.1,9.1-9.1,9.1H9.1c-5,0-9.1-4.1-9.1-9.1V9.1C0,4.1,4.1,0,9.1,0h109.7
		C123.9,0,128,4.1,128,9.1z M36.6,45.7H18.3v64h18.3V45.7z M38.9,27.4c0-6.3-5.1-11.4-11.4-11.4C21.1,16,16,21.1,16,27.4
		s5.1,11.4,11.4,11.4C33.7,38.9,38.9,33.7,38.9,27.4z M109.7,75.8c0-20.1-6.7-31.9-26.1-31.9c-8.3,0-16,4.1-20.6,11v-9.1H45.7v64H64
		V79.8c-0.5-4.4,0.9-8.8,3.8-12.1c2.9-3.3,7-5.3,11.4-5.5c10.6,0,12.3,10.4,12.3,17.6v29.9h18.3V75.8z"/>
</g>
</svg>
