<?xml version="1.0" encoding="utf-8"?>
<!-- Generator: Adobe Illustrator 25.0.0, SVG Export Plug-In . SVG Version: 6.00 Build 0)  -->
<svg version="1.0" id="Layer_1" xmlns="http://www.w3.org/2000/svg" xmlns:xlink="http://www.w3.org/1999/xlink" x="0px" y="0px"
	 viewBox="0 0 394 554.9" style="enable-background:new 0 0 394 554.9;" xml:space="preserve">
<style type="text/css">
	.st0{fill:#8838B4;}
</style>
<symbol  id="a" viewBox="-8.2 -8 16.4 16.1">
	<path d="M8.2-0.1v1.4H-3.2c0.1,1.1,0.5,2,1.2,2.6c0.7,0.6,1.7,0.9,3,0.9c1,0,2.1-0.1,3.2-0.5C5.2,4,6.3,3.6,7.5,2.9v3.8
		C6.3,7.1,5.2,7.5,4,7.7C2.9,7.9,1.7,8,0.5,8c-2.8,0-4.9-0.7-6.5-2.1C-7.5,4.5-8.2,2.6-8.2,0c0-2.5,0.8-4.5,2.3-5.9
		C-4.4-7.3-2.4-8,0.3-8C2.7-8,4.6-7.3,6-5.9C7.5-4.4,8.2-2.5,8.2-0.1L8.2-0.1z M3.2-1.7c0-0.9-0.3-1.7-0.8-2.2
		C1.8-4.5,1.1-4.8,0.3-4.8c-0.9,0-1.7,0.3-2.3,0.8s-1,1.3-1.1,2.3H3.2z"/>
</symbol>
<symbol  id="b" viewBox="-6.2 -9.8 12.4 19.7">
	<path d="M1.1-9.8v4.3h5V-2h-5v6.5c0,0.7,0.1,1.2,0.4,1.4s0.8,0.4,1.7,0.4h2.5v3.5H1.6c-1.9,0-3.3-0.4-4.1-1.2
		c-0.8-0.8-1.2-2.2-1.2-4.1V-2h-2.4v-3.5h2.4v-4.3H1.1z"/>
</symbol>
<symbol  id="c" viewBox="-5.7 -7.8 11.4 15.7">
	<path d="M5.7-3.3C5.2-3.5,4.8-3.6,4.4-3.7C4-3.8,3.6-3.9,3.1-3.9c-1.3,0-2.2,0.4-2.9,1.2c-0.7,0.8-1,2-1,3.5v7.1h-4.9V-7.5h4.9V-5
		c0.6-1,1.3-1.7,2.2-2.2c0.8-0.5,1.8-0.7,2.9-0.7c0.2,0,0.3,0,0.5,0c0.2,0,0.5,0,0.8,0.1L5.7-3.3z"/>
</symbol>
<symbol  id="d" viewBox="-8.4 -8 16.8 16.1">
	<path d="M0-4.5c-1.1,0-1.9,0.4-2.5,1.2C-3-2.6-3.3-1.5-3.3,0S-3,2.6-2.5,3.4C-1.9,4.2-1.1,4.5,0,4.5c1.1,0,1.9-0.4,2.4-1.2
		C3,2.6,3.3,1.5,3.3,0S3-2.6,2.5-3.4C1.9-4.1,1.1-4.5,0-4.5z M0-8c2.6,0,4.7,0.7,6.2,2.1C7.7-4.5,8.4-2.5,8.4,0
		c0,2.5-0.7,4.5-2.2,5.9C4.7,7.3,2.7,8,0,8c-2.6,0-4.7-0.7-6.2-2.1C-7.7,4.5-8.4,2.5-8.4,0c0-2.5,0.7-4.5,2.2-5.9
		C-4.7-7.3-2.6-8,0-8z"/>
</symbol>
<symbol  id="e" viewBox="-7.7 -7.8 15.4 15.7">
	<path d="M7.7-1.5v9.3H2.8V0.7c0-1.3,0-2.2-0.1-2.7S2.5-2.9,2.4-3.1C2.2-3.5,1.9-3.7,1.6-3.9C1.3-4.1,0.9-4.1,0.5-4.1
		c-1,0-1.8,0.4-2.4,1.2c-0.6,0.8-0.9,1.9-0.9,3.3v7.5h-4.9V-7.5h4.9v2.2c0.7-0.9,1.5-1.5,2.3-2c0.8-0.4,1.8-0.6,2.8-0.6
		c1.8,0,3.1,0.5,4,1.6C7.2-5.1,7.7-3.5,7.7-1.5L7.7-1.5z"/>
</symbol>
<symbol  id="f" viewBox="-10.7 -10.2 21.4 20.4">
	<path d="M4.1,6.5h-8.2l-1.3,3.7h-5.3l7.6-20.4h6.3l7.6,20.4H5.4L4.1,6.5z M-2.8,2.7h5.6L0-5.4L-2.8,2.7z"/>
</symbol>
<symbol  id="g" viewBox="-8.7 -10.7 17.4 21.4">
	<path d="M-8.7-10.7h4.9L0.3-0.3l3.5-10.4h4.9L2.3,6.1C1.6,7.8,0.9,9,0,9.6c-0.9,0.7-2,1-3.4,1h-2.8V7.5h1.5c0.8,0,1.4-0.1,1.8-0.4
		C-2.5,6.8-2.2,6.3-2,5.6l0.1-0.4L-8.7-10.7z"/>
</symbol>
<symbol  id="h" viewBox="-8.2 -10.8 16.4 21.7">
	<path d="M-0.1,7.3c1.1,0,1.9-0.4,2.4-1.1c0.6-0.8,0.8-1.9,0.8-3.3c0-1.5-0.3-2.6-0.8-3.3C1.8-1.3,1-1.7-0.1-1.7
		c-1.1,0-1.9,0.4-2.4,1.2C-3,0.2-3.3,1.4-3.3,2.8c0,1.4,0.3,2.6,0.8,3.3C-1.9,6.9-1.1,7.3-0.1,7.3L-0.1,7.3z M-3.3-2.6
		c0.7-0.9,1.4-1.5,2.2-2C-0.3-5,0.7-5.2,1.7-5.2c1.9,0,3.4,0.8,4.7,2.2c1.2,1.5,1.8,3.4,1.8,5.8c0,2.4-0.6,4.3-1.8,5.8
		c-1.2,1.5-2.8,2.2-4.7,2.2c-1.1,0-2-0.2-2.8-0.6c-0.8-0.4-1.6-1.1-2.2-2v2.2h-4.9v-21.3h4.9V-2.6z"/>
</symbol>
<symbol  id="i" viewBox="-8.2 -10.8 16.4 21.7">
	<path d="M3.3-2.6v-8.2h4.9v21.3H3.3V8.2c-0.7,0.9-1.4,1.6-2.2,2c-0.8,0.4-1.8,0.6-2.8,0.6c-1.9,0-3.4-0.8-4.6-2.2
		c-1.2-1.5-1.8-3.4-1.8-5.8c0-2.4,0.6-4.3,1.8-5.8c1.2-1.5,2.8-2.2,4.6-2.2c1.1,0,2,0.2,2.8,0.6C1.9-4.2,2.6-3.5,3.3-2.6L3.3-2.6z
		 M0.1,7.3c1,0,1.8-0.4,2.4-1.1C3,5.4,3.3,4.3,3.3,2.8c0-1.5-0.3-2.6-0.8-3.3C1.9-1.3,1.1-1.7,0.1-1.7c-1,0-1.8,0.4-2.4,1.2
		c-0.6,0.8-0.8,1.9-0.8,3.3c0,1.5,0.3,2.6,0.8,3.3C-1.8,6.9-1,7.3,0.1,7.3z"/>
</symbol>
<symbol  id="j" viewBox="-7.7 -8 15.5 16.1">
	<path d="M0.3,0.8c-1,0-1.8,0.2-2.3,0.5c-0.5,0.3-0.8,0.9-0.8,1.5c0,0.6,0.2,1.1,0.6,1.5c0.4,0.3,1,0.5,1.7,0.5c0.9,0,1.7-0.3,2.3-1
		c0.6-0.7,1-1.5,1-2.5V0.8L0.3,0.8z M7.7-1.1v8.7H2.8V5.4C2.2,6.3,1.4,7,0.6,7.4C-0.2,7.8-1.2,8-2.4,8C-4,8-5.3,7.6-6.3,6.7
		c-1-0.9-1.5-2.1-1.5-3.6c0-1.8,0.6-3.1,1.8-3.9c1.2-0.8,3.2-1.3,5.8-1.3h2.9v-0.4c0-0.8-0.3-1.3-0.9-1.7C1.3-4.6,0.3-4.8-1-4.8
		c-1.1,0-2,0.1-2.9,0.3c-0.9,0.2-1.7,0.5-2.5,0.9v-3.7c1-0.2,2.1-0.4,3.1-0.6C-2.2-8-1.1-8-0.1-8c2.8,0,4.8,0.5,6,1.6
		C7.1-5.3,7.7-3.5,7.7-1.1L7.7-1.1z"/>
</symbol>
<symbol  id="k" viewBox="-6.8 -8 13.5 16.1">
	<path d="M6.8-7.2v4c-0.7-0.5-1.3-0.8-2-1C4.1-4.4,3.4-4.5,2.7-4.5c-1.4,0-2.4,0.4-3.2,1.2C-1.3-2.5-1.7-1.4-1.7,0
		c0,1.4,0.4,2.5,1.1,3.3c0.8,0.8,1.8,1.2,3.2,1.2c0.8,0,1.5-0.1,2.2-0.3c0.7-0.2,1.3-0.6,1.9-1v4C6,7.5,5.2,7.7,4.4,7.8
		C3.6,8,2.9,8,2.1,8c-2.8,0-4.9-0.7-6.5-2.1C-6,4.5-6.8,2.5-6.8,0c0-2.5,0.8-4.5,2.3-5.9C-2.9-7.3-0.7-8,2.1-8C2.9-8,3.6-8,4.4-7.8
		C5.2-7.7,6-7.5,6.8-7.2L6.8-7.2z"/>
</symbol>
<symbol  id="l" viewBox="-4.1 -13.7 8.2 27.3">
	<path d="M-0.8-7.7h4.9v15c0,2.1-0.5,3.6-1.5,4.7c-1,1.1-2.4,1.6-4.3,1.6h-2.4v-3.2h0.9c0.9,0,1.6-0.2,1.9-0.6
		C-1,9.4-0.8,8.6-0.8,7.3L-0.8-7.7z M-0.8-13.7h4.9v4h-4.9L-0.8-13.7z"/>
</symbol>
<symbol  id="m" viewBox="-8.4 -10.2 16.8 20.4">
	<path d="M-8.4-10.2h8.7c2.6,0,4.6,0.6,6,1.7c1.4,1.1,2.1,2.8,2.1,4.9c0,2.1-0.7,3.8-2.1,4.9c-1.4,1.2-3.4,1.7-6,1.7h-3.5v7.1h-5.2
		V-10.2z M-3.1-6.4v5.7h2.9c1,0,1.8-0.2,2.4-0.8C2.7-1.9,3-2.6,3-3.5c0-0.9-0.3-1.6-0.8-2.1C1.6-6.1,0.8-6.4-0.2-6.4L-3.1-6.4z"/>
</symbol>
<symbol  id="n" viewBox="-7.7 -7.9 15.4 15.7">
	<path d="M-7.7,1.5v-9.3h4.9v1.5c0,0.8,0,1.9,0,3.1c0,1.3,0,2.1,0,2.5c0,1.2,0,2.1,0.1,2.7c0.1,0.5,0.2,0.9,0.3,1.2
		c0.2,0.3,0.5,0.6,0.8,0.8c0.3,0.2,0.7,0.2,1.1,0.2c1,0,1.8-0.4,2.4-1.2c0.6-0.8,0.9-1.9,0.9-3.3v-7.6h4.9V7.5H2.8V5.2
		c-0.7,0.9-1.5,1.6-2.3,2c-0.8,0.4-1.7,0.6-2.7,0.6c-1.8,0-3.1-0.5-4-1.6C-7.2,5.1-7.7,3.6-7.7,1.5L-7.7,1.5z"/>
</symbol>
<symbol  id="o" viewBox="-9.1 -10.2 18.3 20.4">
	<path d="M-9.1-10.2h5.9l7.4,14v-14h5v20.4H3.3l-7.4-14v14h-5V-10.2z"/>
</symbol>
<symbol  id="p" viewBox="-7.7 -10.6 15.4 21.3">
	<path d="M7.7,1.3v9.3H2.8V3.5c0-1.3,0-2.3-0.1-2.8S2.5-0.1,2.4-0.3C2.2-0.7,1.9-0.9,1.6-1.1C1.3-1.3,0.9-1.3,0.5-1.3
		c-1,0-1.8,0.4-2.4,1.2c-0.6,0.8-0.9,1.9-0.9,3.3v7.5h-4.9v-21.3h4.9v8.2c0.7-0.9,1.5-1.5,2.3-2C0.4-4.8,1.3-5,2.3-5
		c1.8,0,3.1,0.5,4,1.6C7.2-2.3,7.7-0.8,7.7,1.3L7.7,1.3z"/>
</symbol>
<symbol  id="q" viewBox="-12.3 -7.8 24.6 15.7">
	<path d="M1.9-4.9c0.6-0.9,1.3-1.7,2.2-2.2C5-7.6,5.9-7.8,6.9-7.8c1.8,0,3.1,0.5,4,1.6c0.9,1.1,1.4,2.7,1.4,4.7v9.3H7.4v-8v-0.4
		c0-0.1,0-0.3,0-0.6c0-1.1-0.2-1.9-0.5-2.3C6.6-3.9,6.1-4.1,5.4-4.1C4.5-4.1,3.8-3.8,3.2-3C2.7-2.2,2.5-1.1,2.5,0.3v7.5h-4.9v-8
		c0-1.7-0.1-2.8-0.4-3.3c-0.3-0.5-0.8-0.7-1.6-0.7c-0.9,0-1.7,0.4-2.2,1.2c-0.5,0.8-0.8,1.9-0.8,3.3v7.5h-4.9V-7.5h4.9v2.2
		c0.6-0.9,1.3-1.5,2.1-2c0.8-0.4,1.6-0.7,2.6-0.7c1.1,0,2,0.3,2.8,0.8C0.9-6.6,1.5-5.8,1.9-4.9L1.9-4.9z"/>
</symbol>
<symbol  id="r" viewBox="-5.9 -10.6 11.9 21.3">
	<path d="M5.9-10.6v3.2H3.2C2.6-7.4,2.1-7.3,1.8-7C1.5-6.8,1.4-6.4,1.4-5.7v1.1h4.2v3.5H1.4v11.8h-4.9V-1.2h-2.4v-3.5h2.4v-1.1
		c0-1.7,0.5-2.9,1.4-3.7c0.9-0.8,2.4-1.2,4.3-1.2L5.9-10.6z"/>
</symbol>
<symbol  id="s" viewBox="-2.4 -10.6 4.9 21.3">
	<path d="M-2.4-10.6h4.9v21.3h-4.9L-2.4-10.6z"/>
</symbol>
<symbol  id="t" viewBox="-2.4 -10.6 4.9 21.3">
	<path d="M-2.4-4.7h4.9v15.3h-4.9L-2.4-4.7z M-2.4-10.6h4.9v4h-4.9L-2.4-10.6z"/>
</symbol>
<symbol  id="u" viewBox="-8.7 -10.6 17.4 21.2">
	<path d="M8.7,9.1c-1,0.5-2,0.9-3,1.1c-1,0.3-2.1,0.4-3.3,0.4c-3.4,0-6.1-0.9-8.1-2.8c-2-1.9-3-4.5-3-7.7c0-3.3,1-5.8,3-7.7
		c2-1.9,4.7-2.9,8.1-2.9c1.1,0,2.2,0.1,3.3,0.4c1.1,0.2,2.1,0.6,3,1.1v4.2C7.7-5.5,6.7-6,5.8-6.3c-0.9-0.3-1.9-0.5-3-0.5
		C0.9-6.8-0.6-6.2-1.6-5c-1.1,1.2-1.6,2.9-1.6,5c0,2.1,0.5,3.8,1.6,5c1.1,1.2,2.5,1.8,4.4,1.8c1.1,0,2.1-0.1,3-0.5
		C6.7,6,7.7,5.5,8.7,4.9V9.1z"/>
</symbol>
<g>
	<path class="st0" d="M58.5,336c-3.1,0-5.6,2.5-5.6,5.6v123.2c0,17.8,7.1,34.9,19.7,47.5c12.6,12.6,29.7,19.7,47.5,19.7h161.8
		c17.8,0,34.9-7.1,47.5-19.7c12.6-12.6,19.7-29.7,19.7-47.5V341.6c0-3.1-2.5-5.6-5.6-5.6s-5.6,2.5-5.6,5.6V412H64.1v-70.4
		c0-1.5-0.6-2.9-1.6-4C61.4,336.6,60,336,58.5,336L58.5,336z M337.9,423.2v41.6c0,14.9-5.9,29.1-16.4,39.6
		c-10.5,10.5-24.7,16.4-39.6,16.4H120.1c-14.9,0-29.1-5.9-39.6-16.4c-10.5-10.5-16.4-24.7-16.4-39.6v-41.6L337.9,423.2z"/>
	<path class="st0" d="M343.5,173.6c1.5,0,2.9-0.6,4-1.6c1.1-1.1,1.6-2.5,1.6-4V89.6c0-16.3-6.5-32-18-43.6
		c-11.6-11.6-27.2-18-43.6-18h-173c-16.3,0-32,6.5-43.6,18c-11.6,11.6-18,27.2-18,43.6V168c0,3.1,2.5,5.6,5.6,5.6s5.6-2.5,5.6-5.6
		v-57.5h273.8V168c0,1.5,0.6,2.9,1.6,4C340.6,173,342,173.6,343.5,173.6L343.5,173.6z M64.1,99.3v-9.7c0-13.4,5.3-26.2,14.8-35.6
		c9.4-9.4,22.3-14.8,35.6-14.8h173c13.4,0,26.2,5.3,35.6,14.8c9.5,9.5,14.8,22.3,14.8,35.6v9.7H64.1z"/>
	<path class="st0" d="M164.9,477.9h72.2c3.1,0,5.6-2.5,5.6-5.6c0-3.1-2.5-5.6-5.6-5.6h-72.2c-3.1,0-5.6,2.5-5.6,5.6
		C159.3,475.3,161.8,477.9,164.9,477.9z"/>
	<path class="st0" d="M382,253.6l-93-93c-2.2-1.9-5.5-1.8-7.6,0.3c-2.1,2.1-2.2,5.4-0.3,7.6l89,89.1L281,346.7c-1.2,1-1.9,2.5-2,4
		c-0.1,1.6,0.5,3.1,1.6,4.2c1.1,1.1,2.6,1.7,4.2,1.6c1.6-0.1,3-0.8,4-2l93.1-93c1.1-1.1,1.7-2.5,1.7-4
		C383.6,256.1,383,254.7,382,253.6L382,253.6z"/>
	<path class="st0" d="M20,261.6l93,93c2.2,1.9,5.5,1.8,7.6-0.3c2.1-2.1,2.2-5.4,0.3-7.6l-89-89.1l89.1-89.1c1.9-2.2,1.8-5.5-0.3-7.6
		c-2.1-2.1-5.4-2.2-7.6-0.3l-93.1,93c-1.1,1.1-1.7,2.5-1.7,4C18.4,259.1,19,260.5,20,261.6L20,261.6z"/>
	
		<use xlink:href="#u"  width="17.4" height="21.2" x="-8.7" y="-10.6" transform="matrix(1 0 0 1 -68.9214 633.8046)" style="overflow:visible;"/>
	
		<use xlink:href="#c"  width="11.4" height="15.7" x="-5.7" y="-7.8" transform="matrix(1 0 0 1 -50.4027 636.1561)" style="overflow:visible;"/>
	
		<use xlink:href="#a"  width="16.4" height="16.1" x="-8.2" y="-8" transform="matrix(1 0 0 1 -35.2184 636.3516)" style="overflow:visible;"/>
	
		<use xlink:href="#j"  width="15.5" height="16.1" x="-7.7" y="-8" transform="matrix(1 0 0 1 -16.707 636.3515)" style="overflow:visible;"/>
	
		<use xlink:href="#b"  width="12.4" height="19.7" x="-6.2" y="-9.8" transform="matrix(1 0 0 1 -0.1953 634.1721)" style="overflow:visible;"/>
	<g>
		<defs>
			<rect id="SVGID_1_" x="6.6" y="644" width="700" height="700"/>
		</defs>
		<clipPath id="SVGID_2_">
			<use xlink:href="#SVGID_1_"  style="overflow:visible;"/>
		</clipPath>
		<g style="clip-path:url(#SVGID_2_);">
			
				<use xlink:href="#a"  width="16.4" height="16.1" x="-8.2" y="-8" transform="matrix(1 0 0 1 16.0511 636.3516)" style="overflow:visible;"/>
		</g>
	</g>
	
		<use xlink:href="#i"  width="16.4" height="21.7" x="-8.2" y="-10.8" transform="matrix(1 0 0 1 35.0941 633.5547)" style="overflow:visible;"/>
	
		<use xlink:href="#h"  width="16.4" height="21.7" x="-8.2" y="-10.8" transform="matrix(1 0 0 1 65.9805 633.5547)" style="overflow:visible;"/>
	
		<use xlink:href="#g"  width="17.4" height="21.4" x="-8.7" y="-10.7" transform="matrix(1 0 0 1 84.5 639.3679)" style="overflow:visible;"/>
	
		<use xlink:href="#f"  width="21.4" height="20.4" x="-10.7" y="-10.2" transform="matrix(1 0 0 1 114.2889 633.797)" style="overflow:visible;"/>
	
		<use xlink:href="#e"  width="15.4" height="15.7" x="-7.7" y="-7.8" transform="matrix(1 0 0 1 135.1758 636.1564)" style="overflow:visible;"/>
	
		<use xlink:href="#t"  width="4.9" height="21.3" x="-2.4" y="-10.6" transform="matrix(1 0 0 1 149.8594 633.3596)" style="overflow:visible;"/>
	
		<use xlink:href="#s"  width="4.9" height="21.3" x="-2.4" y="-10.6" transform="matrix(1 0 0 1 159.457 633.3595)" style="overflow:visible;"/>
	
		<use xlink:href="#r"  width="11.9" height="21.3" x="-5.9" y="-10.6" transform="matrix(1 0 0 1 -72.5233 661.3594)" style="overflow:visible;"/>
	<g>
		<defs>
			<rect id="SVGID_3_" x="-66.8" y="672" width="700" height="700"/>
		</defs>
		<clipPath id="SVGID_4_">
			<use xlink:href="#SVGID_3_"  style="overflow:visible;"/>
		</clipPath>
		<g style="clip-path:url(#SVGID_4_);">
			
				<use xlink:href="#c"  width="11.4" height="15.7" x="-5.7" y="-7.8" transform="matrix(1 0 0 1 -58.7699 664.1561)" style="overflow:visible;"/>
		</g>
	</g>
	
		<use xlink:href="#d"  width="16.8" height="16.1" x="-8.4" y="-8" transform="matrix(1 0 0 1 -43.3906 664.351)" style="overflow:visible;"/>
	
		<use xlink:href="#q"  width="24.6" height="15.7" x="-12.3" y="-7.8" transform="matrix(1 0 0 1 -19.1249 664.1558)" style="overflow:visible;"/>
	<g>
		<defs>
			<rect id="SVGID_5_" x="5.2" y="672" width="700" height="700"/>
		</defs>
		<clipPath id="SVGID_6_">
			<use xlink:href="#SVGID_5_"  style="overflow:visible;"/>
		</clipPath>
		<g style="clip-path:url(#SVGID_6_);">
			
				<use xlink:href="#b"  width="12.4" height="19.7" x="-6.2" y="-9.8" transform="matrix(1 0 0 1 11.7148 662.1721)" style="overflow:visible;"/>
		</g>
	</g>
	
		<use xlink:href="#p"  width="15.4" height="21.3" x="-7.7" y="-10.6" transform="matrix(1 0 0 1 28.5899 661.3594)" style="overflow:visible;"/>
	<g>
		<defs>
			<rect id="SVGID_7_" x="38.5" y="672" width="700" height="700"/>
		</defs>
		<clipPath id="SVGID_8_">
			<use xlink:href="#SVGID_7_"  style="overflow:visible;"/>
		</clipPath>
		<g style="clip-path:url(#SVGID_8_);">
			
				<use xlink:href="#a"  width="16.4" height="16.1" x="-8.2" y="-8" transform="matrix(1 0 0 1 47.8909 664.3516)" style="overflow:visible;"/>
		</g>
	</g>
	
		<use xlink:href="#o"  width="18.3" height="20.4" x="-9.1" y="-10.2" transform="matrix(1 0 0 1 78.9258 661.797)" style="overflow:visible;"/>
	<g>
		<defs>
			<rect id="SVGID_9_" x="90.6" y="672" width="700" height="700"/>
		</defs>
		<clipPath id="SVGID_10_">
			<use xlink:href="#SVGID_9_"  style="overflow:visible;"/>
		</clipPath>
		<g style="clip-path:url(#SVGID_10_);">
			
				<use xlink:href="#d"  width="16.8" height="16.1" x="-8.4" y="-8" transform="matrix(1 0 0 1 100.2578 664.351)" style="overflow:visible;"/>
		</g>
	</g>
	
		<use xlink:href="#n"  width="15.4" height="15.7" x="-7.7" y="-7.9" transform="matrix(1 0 0 1 119.7617 664.5387)" style="overflow:visible;"/>
	<g>
		<defs>
			<rect id="SVGID_11_" x="129.8" y="672" width="700" height="700"/>
		</defs>
		<clipPath id="SVGID_12_">
			<use xlink:href="#SVGID_11_"  style="overflow:visible;"/>
		</clipPath>
		<g style="clip-path:url(#SVGID_12_);">
			
				<use xlink:href="#e"  width="15.4" height="15.7" x="-7.7" y="-7.8" transform="matrix(1 0 0 1 139.8672 664.1564)" style="overflow:visible;"/>
		</g>
	</g>
	
		<use xlink:href="#m"  width="16.8" height="20.4" x="-8.4" y="-10.2" transform="matrix(1 0 0 1 170.4688 661.7971)" style="overflow:visible;"/>
	<g>
		<defs>
			<rect id="SVGID_13_" x="180" y="672" width="700" height="700"/>
		</defs>
		<clipPath id="SVGID_14_">
			<use xlink:href="#SVGID_13_"  style="overflow:visible;"/>
		</clipPath>
		<g style="clip-path:url(#SVGID_14_);">
			
				<use xlink:href="#c"  width="11.4" height="15.7" x="-5.7" y="-7.8" transform="matrix(1 0 0 1 188.0622 664.1561)" style="overflow:visible;"/>
		</g>
	</g>
	<g>
		<defs>
			<rect id="SVGID_15_" x="193.8" y="672" width="700" height="700"/>
		</defs>
		<clipPath id="SVGID_16_">
			<use xlink:href="#SVGID_15_"  style="overflow:visible;"/>
		</clipPath>
		<g style="clip-path:url(#SVGID_16_);">
			
				<use xlink:href="#d"  width="16.8" height="16.1" x="-8.4" y="-8" transform="matrix(1 0 0 1 203.4375 664.351)" style="overflow:visible;"/>
		</g>
	</g>
	
		<use xlink:href="#l"  width="8.2" height="27.3" x="-4.1" y="-13.7" transform="matrix(1 0 0 1 216.2148 664.3831)" style="overflow:visible;"/>
	<g>
		<defs>
			<rect id="SVGID_17_" x="222.7" y="672" width="700" height="700"/>
		</defs>
		<clipPath id="SVGID_18_">
			<use xlink:href="#SVGID_17_"  style="overflow:visible;"/>
		</clipPath>
		<g style="clip-path:url(#SVGID_18_);">
			
				<use xlink:href="#a"  width="16.4" height="16.1" x="-8.2" y="-8" transform="matrix(1 0 0 1 232.0784 664.3516)" style="overflow:visible;"/>
		</g>
	</g>
	
		<use xlink:href="#k"  width="13.5" height="16.1" x="-6.8" y="-8" transform="matrix(1 0 0 1 249.6096 664.3519)" style="overflow:visible;"/>
	<g>
		<defs>
			<rect id="SVGID_19_" x="258.2" y="672" width="700" height="700"/>
		</defs>
		<clipPath id="SVGID_20_">
			<use xlink:href="#SVGID_19_"  style="overflow:visible;"/>
		</clipPath>
		<g style="clip-path:url(#SVGID_20_);">
			
				<use xlink:href="#b"  width="12.4" height="19.7" x="-6.2" y="-9.8" transform="matrix(1 0 0 1 264.8047 662.1721)" style="overflow:visible;"/>
		</g>
	</g>
</g>
</svg>
