<?xml version="1.0" encoding="utf-8"?>
<!-- Generator: Adobe Illustrator 25.0.0, SVG Export Plug-In . SVG Version: 6.00 Build 0)  -->
<svg version="1.1" id="Layer_1" xmlns="http://www.w3.org/2000/svg" xmlns:xlink="http://www.w3.org/1999/xlink" x="0px" y="0px"
	 viewBox="0 0 382.2 382" style="enable-background:new 0 0 382.2 382;" xml:space="preserve">
<style type="text/css">
	.st0{fill:#E31F71;}
	.st1{clip-path:url(#SVGID_12_);}
	.st2{clip-path:url(#SVGID_24_);}
	.st3{clip-path:url(#SVGID_32_);}
	.st4{clip-path:url(#SVGID_48_);}
	.st5{clip-path:url(#SVGID_52_);}
	.st6{clip-path:url(#SVGID_56_);}
	.st7{clip-path:url(#SVGID_60_);}
	.st8{clip-path:url(#SVGID_66_);}
	.st9{clip-path:url(#SVGID_72_);}
	.st10{clip-path:url(#SVGID_78_);}
	.st11{clip-path:url(#SVGID_82_);}
	.st12{clip-path:url(#SVGID_86_);}
	.st13{clip-path:url(#SVGID_90_);}
	.st14{clip-path:url(#SVGID_96_);}
	.st15{clip-path:url(#SVGID_100_);}
	.st16{clip-path:url(#SVGID_104_);}
</style>
<symbol  id="a" viewBox="-8.2 -8 16.4 16">
	<path d="M8.2-0.1v1.4H-3.2c0.1,1.1,0.5,2,1.2,2.6s1.7,0.9,3,0.9c1,0,2.1-0.1,3.2-0.5c1-0.3,2.1-0.7,3.3-1.4v3.8
		C6.3,7.1,5.2,7.5,4,7.7C2.9,7.9,1.7,8,0.5,8C-2.3,8-4.4,7.3-6,5.9C-7.5,4.5-8.2,2.6-8.2,0c0-2.5,0.8-4.5,2.3-5.9S-2.4-8,0.3-8
		C2.7-8,4.6-7.3,6-5.9C7.5-4.4,8.2-2.5,8.2-0.1L8.2-0.1z M3.2-1.7c0-0.9-0.3-1.7-0.8-2.2C1.8-4.5,1.1-4.8,0.3-4.8
		C-0.6-4.8-1.4-4.5-2-4s-1,1.3-1.1,2.3H3.2z"/>
</symbol>
<symbol  id="b" viewBox="-5.7 -7.9 11.4 15.8">
	<path d="M5.7-3.3C5.2-3.5,4.8-3.6,4.4-3.7C4-3.8,3.6-3.9,3.1-3.9c-1.3,0-2.2,0.4-2.9,1.2s-1,2-1,3.5v7.1h-4.9V-7.5h4.9V-5
		c0.6-1,1.3-1.7,2.2-2.2c0.8-0.5,1.8-0.7,2.9-0.7c0.2,0,0.3,0,0.5,0s0.5,0,0.8,0.1L5.7-3.3z"/>
</symbol>
<symbol  id="c" viewBox="-8.4 -8 16.8 16">
	<path d="M0-4.5c-1.1,0-1.9,0.4-2.5,1.2C-3-2.6-3.3-1.5-3.3,0S-3,2.6-2.5,3.4C-1.9,4.2-1.1,4.5,0,4.5s1.9-0.4,2.4-1.2
		C3,2.6,3.3,1.5,3.3,0S3-2.6,2.5-3.4C1.9-4.1,1.1-4.5,0-4.5z M0-8c2.6,0,4.7,0.7,6.2,2.1S8.4-2.5,8.4,0S7.7,4.5,6.2,5.9S2.7,8,0,8
		c-2.6,0-4.7-0.7-6.2-2.1S-8.4,2.5-8.4,0s0.7-4.5,2.2-5.9S-2.6-8,0-8z"/>
</symbol>
<symbol  id="d" viewBox="-6.1 -9.8 12.2 19.6">
	<path d="M1.1-9.8v4.3h5V-2h-5v6.5c0,0.7,0.1,1.2,0.4,1.4s0.8,0.4,1.7,0.4h2.5v3.5H1.6c-1.9,0-3.3-0.4-4.1-1.2s-1.2-2.2-1.2-4.1V-2
		h-2.4v-3.5h2.4v-4.3H1.1z"/>
</symbol>
<symbol  id="e" viewBox="-8.4 -10.1 16.8 20.3">
	<path d="M-8.4-10.1h8.7c2.6,0,4.6,0.6,6,1.7c1.4,1.1,2.1,2.8,2.1,4.9S7.7,0.2,6.3,1.3C4.9,2.5,2.9,3,0.3,3h-3.5v7.1h-5.2V-10.1z
		 M-3.1-6.4v5.7h2.9c1,0,1.8-0.2,2.4-0.8C2.7-1.9,3-2.6,3-3.5S2.7-5.1,2.2-5.6C1.6-6.1,0.8-6.4-0.2-6.4H-3.1z"/>
</symbol>
<symbol  id="f" viewBox="-7.7 -7.9 15.4 15.8">
	<path d="M7.7-1.5v9.3H2.8V0.7c0-1.3,0-2.2-0.1-2.7S2.5-2.9,2.4-3.1C2.2-3.5,1.9-3.7,1.6-3.9C1.3-4.1,0.9-4.1,0.5-4.1
		c-1,0-1.8,0.4-2.4,1.2S-2.8-1-2.8,0.4v7.5h-4.9V-7.5h4.9v2.2c0.7-0.9,1.5-1.5,2.3-2c0.8-0.4,1.8-0.6,2.8-0.6c1.8,0,3.1,0.5,4,1.6
		C7.2-5.1,7.7-3.5,7.7-1.5L7.7-1.5z"/>
</symbol>
<symbol  id="g" viewBox="-6.8 -8 13.6 16">
	<path d="M6.8-7.2v4c-0.7-0.5-1.3-0.8-2-1C4.1-4.4,3.4-4.5,2.7-4.5c-1.4,0-2.4,0.4-3.2,1.2S-1.7-1.4-1.7,0s0.4,2.5,1.1,3.3
		c0.8,0.8,1.8,1.2,3.2,1.2c0.8,0,1.5-0.1,2.2-0.3c0.7-0.2,1.3-0.6,1.9-1v4C6,7.5,5.2,7.7,4.4,7.8C3.6,8,2.9,8,2.1,8
		c-2.8,0-4.9-0.7-6.5-2.1S-6.8,2.5-6.8,0S-6-4.5-4.5-5.9C-2.9-7.3-0.7-8,2.1-8c0.8,0,1.5,0,2.3,0.2C5.2-7.7,6-7.5,6.8-7.2L6.8-7.2z"
		/>
</symbol>
<symbol  id="h" viewBox="-12.3 -7.9 24.6 15.8">
	<path d="M1.9-4.8C2.5-5.7,3.2-6.5,4.1-7s1.8-0.7,2.8-0.7c1.8,0,3.1,0.5,4,1.6s1.4,2.7,1.4,4.7v9.3H7.4v-8v-0.4c0-0.1,0-0.3,0-0.6
		c0-1.1-0.2-1.9-0.5-2.3S6.1-4,5.4-4C4.5-4,3.8-3.7,3.2-2.9C2.7-2.1,2.5-1,2.5,0.4v7.5h-4.9v-8c0-1.7-0.1-2.8-0.4-3.3
		s-0.8-0.7-1.6-0.7c-0.9,0-1.7,0.4-2.2,1.2S-7.4-1-7.4,0.4v7.5h-4.9V-7.4h4.9v2.2c0.6-0.9,1.3-1.5,2.1-2c0.8-0.4,1.6-0.7,2.6-0.7
		c1.1,0,2,0.3,2.8,0.8C0.9-6.5,1.5-5.7,1.9-4.8L1.9-4.8z"/>
</symbol>
<symbol  id="i" viewBox="-8.7 -10.6 17.4 21.3">
	<path d="M-8.7-10.6h4.9L0.3-0.3l3.5-10.4h4.9L2.3,6.1C1.6,7.8,0.9,9,0,9.6c-0.9,0.7-2,1-3.4,1h-2.8V7.5h1.5c0.8,0,1.4-0.1,1.8-0.4
		C-2.5,6.8-2.2,6.3-2,5.6l0.1-0.4L-8.7-10.6z"/>
</symbol>
<symbol  id="j" viewBox="-8.2 -10.9 16.4 21.7">
	<path d="M-0.1,7.3c1.1,0,1.9-0.4,2.4-1.1C2.9,5.4,3.1,4.3,3.1,3c0-1.5-0.3-2.6-0.8-3.3C1.8-1.3,1-1.7-0.1-1.7S-2-1.3-2.5-0.5
		C-3,0.2-3.3,1.4-3.3,2.8S-3,5.4-2.5,6.1C-1.9,6.9-1.1,7.3-0.1,7.3L-0.1,7.3z M-3.3-2.6c0.7-0.9,1.4-1.5,2.2-2
		C-0.3-5,0.7-5.2,1.7-5.2c1.9,0,3.4,0.8,4.7,2.2c1.2,1.5,1.8,3.4,1.8,5.8S7.6,7.2,6.4,8.6s-2.8,2.2-4.7,2.2c-1.1,0-2-0.2-2.8-0.6
		s-1.6-1.1-2.2-2v2.2h-4.9v-21.3h4.9C-3.3-10.9-3.3-2.6-3.3-2.6z"/>
</symbol>
<symbol  id="k" viewBox="-8.1 -10.8 16.3 21.6">
	<path d="M3.3-2.6v-8.2h4.9v21.3H3.3V8.2c-0.7,0.9-1.4,1.6-2.2,2s-1.8,0.6-2.8,0.6c-1.9,0-3.4-0.8-4.6-2.2c-1.2-1.5-1.8-3.4-1.8-5.8
		S-7.6-1.5-6.3-3s2.8-2.2,4.6-2.2c1.1,0,2,0.2,2.8,0.6S2.6-3.5,3.3-2.6L3.3-2.6z M0.1,7.3c1,0,1.8-0.4,2.4-1.1
		C3,5.4,3.3,4.3,3.3,2.8S3,0.2,2.5-0.5C1.9-1.3,1.1-1.7,0.1-1.7s-1.8,0.4-2.4,1.2s-0.8,1.9-0.8,3.3c0,1.5,0.3,2.6,0.8,3.3
		C-1.8,6.9-1,7.3,0.1,7.3z"/>
</symbol>
<symbol  id="l" viewBox="-7.8 -8 15.5 16">
	<path d="M0.4,0.8c-1,0-1.8,0.2-2.3,0.5s-0.8,0.9-0.8,1.5s0.2,1.1,0.6,1.5c0.4,0.3,1,0.5,1.7,0.5c0.9,0,1.7-0.3,2.3-1s1-1.5,1-2.5
		V0.8H0.4z M7.8-1.1v8.7H2.9V5.4C2.3,6.3,1.5,7,0.7,7.4S-1.1,8-2.3,8c-1.6,0-2.9-0.4-3.9-1.3s-1.5-2.1-1.5-3.6
		c0-1.8,0.6-3.1,1.8-3.9s3.2-1.3,5.8-1.3h2.9v-0.4c0-0.8-0.3-1.3-0.9-1.7C1.4-4.6,0.4-4.8-0.9-4.8c-1.1,0-2,0.1-2.9,0.3
		C-4.8-4.3-5.6-4-6.3-3.6v-3.7c1-0.2,2.1-0.4,3.1-0.6C-2.1-8-1-8,0-8c2.8,0,4.8,0.5,6,1.6S7.8-3.5,7.8-1.1L7.8-1.1z"/>
</symbol>
<symbol  id="m" viewBox="-4.1 -13.6 8.2 27.3">
	<path d="M-0.8-7.7h4.9v15c0,2.1-0.5,3.6-1.5,4.7s-2.4,1.6-4.3,1.6h-2.4v-3.2h0.9c0.9,0,1.6-0.2,1.9-0.6C-1,9.4-0.8,8.6-0.8,7.3
		V-7.7z M-0.8-13.6h4.9v4h-4.9L-0.8-13.6z"/>
</symbol>
<symbol  id="n" viewBox="-7.7 -7.8 15.4 15.7">
	<path d="M-7.7,1.6v-9.3h4.9v1.5c0,0.8,0,1.9,0,3.1c0,1.3,0,2.1,0,2.5c0,1.2,0,2.1,0.1,2.7c0.1,0.5,0.2,0.9,0.3,1.2
		c0.2,0.3,0.5,0.6,0.8,0.8c0.3,0.2,0.7,0.2,1.1,0.2c1,0,1.8-0.4,2.4-1.2s0.9-1.9,0.9-3.3v-7.6h4.9V7.6H2.8V5.2
		c-0.7,0.9-1.5,1.6-2.3,2s-1.7,0.6-2.7,0.6c-1.8,0-3.1-0.5-4-1.6C-7.2,5.2-7.7,3.7-7.7,1.6L-7.7,1.6z"/>
</symbol>
<symbol  id="o" viewBox="-9.1 -10.2 18.3 20.4">
	<path d="M-9.1-10.2h5.9l7.4,14v-14h5v20.4H3.3l-7.4-14v14h-5V-10.2z"/>
</symbol>
<symbol  id="p" viewBox="-7.7 -10.6 15.4 21.3">
	<path d="M7.7,1.2v9.3H2.8V3.4c0-1.3,0-2.3-0.1-2.8s-0.2-0.8-0.3-1C2.2-0.8,1.9-1,1.6-1.2S0.9-1.4,0.5-1.4c-1,0-1.8,0.4-2.4,1.2
		s-0.9,1.9-0.9,3.3v7.5h-4.9v-21.3h4.9v8.2c0.7-0.9,1.5-1.5,2.3-2c0.9-0.4,1.8-0.6,2.8-0.6c1.8,0,3.1,0.5,4,1.6
		C7.2-2.4,7.7-0.9,7.7,1.2L7.7,1.2z"/>
</symbol>
<symbol  id="q" viewBox="-5.9 -10.7 11.8 21.4">
	<path d="M5.9-10.6v3.2H3.2C2.6-7.4,2.1-7.3,1.8-7C1.5-6.8,1.4-6.4,1.4-5.7v1.1h4.2v3.5H1.4v11.8h-4.9V-1.2h-2.4v-3.5h2.4v-1.1
		c0-1.7,0.5-2.9,1.4-3.7c0.9-0.8,2.4-1.2,4.3-1.2L5.9-10.6z"/>
</symbol>
<symbol  id="r" viewBox="-6.9 -8 13.9 16">
	<path d="M6-7.2v3.7c-1-0.4-2.1-0.8-3-1C2-4.7,1.1-4.8,0.2-4.8s-1.6,0.1-2.1,0.3c-0.4,0.2-0.7,0.6-0.7,1.1c0,0.4,0.2,0.7,0.5,0.9
		s1,0.4,1.8,0.5l0.9,0.1C3.2-1.5,4.9-1,5.7-0.3c0.9,0.7,1.3,1.9,1.3,3.4c0,1.6-0.6,2.9-1.8,3.7S2.2,8-0.1,8c-1,0-2.1-0.1-3.2-0.2
		c-1.1-0.2-2.2-0.4-3.3-0.7V3.4c1,0.5,2,0.8,3,1.1c1,0.2,2.1,0.3,3.1,0.3s1.7-0.1,2.2-0.4c0.4-0.3,0.7-0.7,0.7-1.2
		c0-0.4-0.2-0.8-0.5-1s-1-0.4-2-0.5L-1,1.6c-2.2-0.3-3.7-0.8-4.6-1.5s-1.3-1.9-1.3-3.4c0-1.6,0.6-2.8,1.7-3.6C-4.1-7.6-2.4-8-0.1-8
		c0.9,0,1.9,0,2.9,0.2C3.8-7.7,4.8-7.5,6-7.2L6-7.2z"/>
</symbol>
<symbol  id="s" viewBox="-2.6 -10.2 5.2 20.4">
	<path d="M-2.6-10.2h5.2v20.4h-5.2V-10.2z"/>
</symbol>
<symbol  id="t" viewBox="-2.5 -10.6 4.9 21.2">
	<path d="M-2.5-4.7h4.9v15.3h-4.9V-4.7z M-2.5-10.6h4.9v4h-4.9V-10.6z"/>
</symbol>
<symbol  id="u" viewBox="-8.7 -10.6 17.4 21.1">
	<path d="M8.7,9.1c-1,0.5-2,0.9-3,1.1c-1,0.3-2.1,0.4-3.3,0.4c-3.4,0-6.1-0.9-8.1-2.8s-3-4.5-3-7.7c0-3.3,1-5.8,3-7.7
		s4.7-2.9,8.1-2.9c1.1,0,2.2,0.1,3.3,0.4c1.1,0.2,2.1,0.6,3,1.1v4.2c-1-0.7-2-1.2-2.9-1.5s-1.9-0.5-3-0.5c-1.9,0-3.4,0.6-4.4,1.8
		c-1.1,1.2-1.6,2.9-1.6,5s0.5,3.8,1.6,5s2.5,1.8,4.4,1.8c1.1,0,2.1-0.1,3-0.5c0.9-0.3,1.9-0.8,2.9-1.4V9.1z"/>
</symbol>
<g>
	<path class="st0" d="M66,116.6V46c0-13.5,11-24.5,24.5-24.5h17.1c2.7,0,4.9-2.2,4.9-4.9s-2.2-4.9-4.9-4.9H90.5
		c-18.9,0-34.3,15.4-34.3,34.3v70.6c0,16.9-5,33.2-14.3,47.3l-14.3,21.4c-1.1,1.7-1.1,3.9,0.1,5.5L41,210.1
		c9.9,14.4,15.3,31.2,15.3,48.7v71.4c0,18.9,15.4,34.3,34.3,34.3h17.2c2.7,0,4.9-2.2,4.9-4.9c0-2.7-2.2-4.9-4.9-4.9H90.5
		c-13.5,0-24.5-11-24.5-24.5v-71.4c0-19.5-5.9-38.3-17-54.2L37.6,188l12.5-18.7C60.5,153.7,66,135.5,66,116.6L66,116.6z"/>
	<path class="st0" d="M363.6,185.4L349.3,164c-9.4-14.1-14.4-30.4-14.4-47.3V46.1c0-18.9-15.4-34.3-34.3-34.3h-17.1
		c-2.7,0-4.9,2.2-4.9,4.9s2.2,4.9,4.9,4.9h17.1c13.5,0,24.5,11,24.5,24.5v70.6c0,18.8,5.5,37.1,16,52.8l12.5,18.7l-11.4,16.5
		c-11.1,16-17,34.8-17,54.2v71.4c0,13.5-11,24.5-24.5,24.5h-17.1c-2.7,0-4.9,2.2-4.9,4.9c0,2.7,2.2,4.9,4.9,4.9h17.1
		c18.9,0,34.3-15.4,34.3-34.3v-71.4c0-17.5,5.2-34.3,15.3-48.7l13.3-19.2C364.7,189.3,364.7,187.1,363.6,185.4L363.6,185.4z"/>
	<g>
		<defs>
			<rect id="SVGID_1_" x="0.6" y="428.4" width="12.2" height="14.8"/>
		</defs>
		<clipPath id="SVGID_2_">
			<use xlink:href="#SVGID_1_"  style="overflow:visible;"/>
		</clipPath>
		<g style="clip-path:url(#SVGID_2_);">
			
				<use xlink:href="#u"  width="17.4" height="21.1" x="-8.7" y="-10.6" transform="matrix(0.7 0 0 0.7 6.6513 435.8157)" style="overflow:visible;"/>
		</g>
	</g>
	<g>
		<defs>
			<rect id="SVGID_3_" x="15.6" y="432" width="8" height="11"/>
		</defs>
		<clipPath id="SVGID_4_">
			<use xlink:href="#SVGID_3_"  style="overflow:visible;"/>
		</clipPath>
		<g style="clip-path:url(#SVGID_4_);">
			
				<use xlink:href="#b"  width="11.4" height="15.8" x="-5.7" y="-7.9" transform="matrix(0.7 0 0 0.7 19.6144 437.4267)" style="overflow:visible;"/>
		</g>
	</g>
	<g>
		<defs>
			<rect id="SVGID_5_" x="24.5" y="432" width="11.5" height="11.3"/>
		</defs>
		<clipPath id="SVGID_6_">
			<use xlink:href="#SVGID_5_"  style="overflow:visible;"/>
		</clipPath>
		<g transform="matrix(1 0 0 1 0 -3.051758e-05)" style="clip-path:url(#SVGID_6_);">
			
				<use xlink:href="#a"  width="16.4" height="16" x="-8.2" y="-8" transform="matrix(0.7 0 0 0.7 30.2434 437.5635)" style="overflow:visible;"/>
		</g>
	</g>
	<g>
		<defs>
			<rect id="SVGID_7_" x="37.8" y="432" width="10.9" height="11.3"/>
		</defs>
		<clipPath id="SVGID_8_">
			<use xlink:href="#SVGID_7_"  style="overflow:visible;"/>
		</clipPath>
		<g transform="matrix(1 0 0 1 0 3.051758e-05)" style="clip-path:url(#SVGID_8_);">
			
				<use xlink:href="#l"  width="15.5" height="16" x="-7.8" y="-8" transform="matrix(0.7 0 0 0.7 43.1664 437.5634)" style="overflow:visible;"/>
		</g>
	</g>
	<g>
		<defs>
			<rect id="SVGID_9_" x="50.4" y="429.2" width="8.7" height="13.8"/>
		</defs>
		<clipPath id="SVGID_10_">
			<use xlink:href="#SVGID_9_"  style="overflow:visible;"/>
		</clipPath>
		<g style="clip-path:url(#SVGID_10_);">
			
				<use xlink:href="#d"  width="12.2" height="19.6" x="-6.1" y="-9.8" transform="matrix(0.7 0 0 0.7 54.7596 436.0378)" style="overflow:visible;"/>
		</g>
	</g>
	<g>
		<g>
			<defs>
				<rect id="SVGID_11_" x="59.5" y="442.9" width="490" height="490"/>
			</defs>
			<clipPath id="SVGID_12_">
				<use xlink:href="#SVGID_11_"  style="overflow:visible;"/>
			</clipPath>
			<g class="st1">
				<g>
					<defs>
						<rect id="SVGID_13_" x="60.4" y="432" width="11.5" height="11.3"/>
					</defs>
					<clipPath id="SVGID_14_">
						<use xlink:href="#SVGID_13_"  style="overflow:visible;"/>
					</clipPath>
					<g transform="matrix(1 0 0 1 0 -3.051758e-05)" style="clip-path:url(#SVGID_14_);">
						
							<use xlink:href="#a"  width="16.4" height="16" x="-8.2" y="-8" transform="matrix(0.7 0 0 0.7 66.1321 437.5635)" style="overflow:visible;"/>
					</g>
				</g>
			</g>
		</g>
	</g>
	<g>
		<defs>
			<rect id="SVGID_15_" x="73.7" y="428" width="11.5" height="15.2"/>
		</defs>
		<clipPath id="SVGID_16_">
			<use xlink:href="#SVGID_15_"  style="overflow:visible;"/>
		</clipPath>
		<g style="clip-path:url(#SVGID_16_);">
			
				<use xlink:href="#k"  width="16.3" height="21.6" x="-8.1" y="-10.8" transform="matrix(0.7 0 0 0.7 79.4972 435.6057)" style="overflow:visible;"/>
		</g>
	</g>
	<g>
		<defs>
			<rect id="SVGID_17_" x="95.3" y="428" width="11.5" height="15.2"/>
		</defs>
		<clipPath id="SVGID_18_">
			<use xlink:href="#SVGID_17_"  style="overflow:visible;"/>
		</clipPath>
		<g transform="matrix(1 0 0 1 0 3.051758e-05)" style="clip-path:url(#SVGID_18_);">
			
				<use xlink:href="#j"  width="16.4" height="21.7" x="-8.2" y="-10.9" transform="matrix(0.7 0 0 0.7 101.0827 435.5707)" style="overflow:visible;"/>
		</g>
	</g>
	<g>
		<defs>
			<rect id="SVGID_19_" x="108" y="432.2" width="12.2" height="15"/>
		</defs>
		<clipPath id="SVGID_20_">
			<use xlink:href="#SVGID_19_"  style="overflow:visible;"/>
		</clipPath>
		<g transform="matrix(1 0 0 1 -7.629395e-06 0)" style="clip-path:url(#SVGID_20_);">
			
				<use xlink:href="#i"  width="17.4" height="21.3" x="-8.7" y="-10.6" transform="matrix(0.7 0 0 0.7 114.0463 439.6399)" style="overflow:visible;"/>
		</g>
	</g>
	<g>
		<defs>
			<rect id="SVGID_21_" x="129.1" y="428.6" width="11.8" height="14.3"/>
		</defs>
		<clipPath id="SVGID_22_">
			<use xlink:href="#SVGID_21_"  style="overflow:visible;"/>
		</clipPath>
		<g transform="matrix(1 0 0 1 0 3.051758e-05)" style="clip-path:url(#SVGID_22_);">
			
				<use xlink:href="#e"  width="16.8" height="20.3" x="-8.4" y="-10.1" transform="matrix(0.7 0 0 0.7 134.9971 435.7404)" style="overflow:visible;"/>
		</g>
	</g>
	<g>
		<g>
			<defs>
				<rect id="SVGID_23_" x="141.7" y="442.9" width="490" height="490"/>
			</defs>
			<clipPath id="SVGID_24_">
				<use xlink:href="#SVGID_23_"  style="overflow:visible;"/>
			</clipPath>
			<g class="st2">
				<g>
					<defs>
						<rect id="SVGID_25_" x="143.3" y="432" width="8" height="11"/>
					</defs>
					<clipPath id="SVGID_26_">
						<use xlink:href="#SVGID_25_"  style="overflow:visible;"/>
					</clipPath>
					<g style="clip-path:url(#SVGID_26_);">
						
							<use xlink:href="#b"  width="11.4" height="15.8" x="-5.7" y="-7.9" transform="matrix(0.7 0 0 0.7 147.3097 437.4267)" style="overflow:visible;"/>
					</g>
				</g>
			</g>
		</g>
	</g>
	<g>
		<defs>
			<rect id="SVGID_27_" x="153" y="428" width="3.4" height="14.9"/>
		</defs>
		<clipPath id="SVGID_28_">
			<use xlink:href="#SVGID_27_"  style="overflow:visible;"/>
		</clipPath>
		<g style="clip-path:url(#SVGID_28_);">
			
				<use xlink:href="#t"  width="4.9" height="21.2" x="-2.5" y="-10.6" transform="matrix(0.7 0 0 0.7 154.7415 435.4691)" style="overflow:visible;"/>
		</g>
	</g>
	<g>
		<defs>
			<rect id="SVGID_29_" x="159.7" y="432" width="17.2" height="11"/>
		</defs>
		<clipPath id="SVGID_30_">
			<use xlink:href="#SVGID_29_"  style="overflow:visible;"/>
		</clipPath>
		<g style="clip-path:url(#SVGID_30_);">
			
				<use xlink:href="#h"  width="24.6" height="15.8" x="-12.3" y="-7.9" transform="matrix(0.7 0 0 0.7 168.3155 437.3565)" style="overflow:visible;"/>
		</g>
	</g>
	<g>
		<g>
			<defs>
				<rect id="SVGID_31_" x="178.5" y="442.9" width="490" height="490"/>
			</defs>
			<clipPath id="SVGID_32_">
				<use xlink:href="#SVGID_31_"  style="overflow:visible;"/>
			</clipPath>
			<g class="st3">
				<g>
					<defs>
						<rect id="SVGID_33_" x="179.3" y="432" width="11.5" height="11.3"/>
					</defs>
					<clipPath id="SVGID_34_">
						<use xlink:href="#SVGID_33_"  style="overflow:visible;"/>
					</clipPath>
					<g transform="matrix(1 0 0 1 0 -3.051758e-05)" style="clip-path:url(#SVGID_34_);">
						
							<use xlink:href="#a"  width="16.4" height="16" x="-8.2" y="-8" transform="matrix(0.7 0 0 0.7 185.0801 437.5635)" style="overflow:visible;"/>
					</g>
				</g>
			</g>
		</g>
	</g>
	<g>
		<defs>
			<rect id="SVGID_35_" x="200.4" y="428.6" width="3.6" height="14.3"/>
		</defs>
		<clipPath id="SVGID_36_">
			<use xlink:href="#SVGID_35_"  style="overflow:visible;"/>
		</clipPath>
		<g transform="matrix(1 0 0 1 -1.525879e-05 0)" style="clip-path:url(#SVGID_36_);">
			
				<use xlink:href="#s"  width="5.2" height="20.4" x="-2.6" y="-10.2" transform="matrix(0.7 0 0 0.7 202.2436 435.7753)" style="overflow:visible;"/>
		</g>
	</g>
	<g>
		<defs>
			<rect id="SVGID_37_" x="206.7" y="432" width="9.4" height="11.3"/>
		</defs>
		<clipPath id="SVGID_38_">
			<use xlink:href="#SVGID_37_"  style="overflow:visible;"/>
		</clipPath>
		<g transform="matrix(1 0 0 1 0 -3.051758e-05)" style="clip-path:url(#SVGID_38_);">
			
				<use xlink:href="#g"  width="13.6" height="16" x="-6.8" y="-8" transform="matrix(0.7 0 0 0.7 211.4668 437.5637)" style="overflow:visible;"/>
		</g>
	</g>
	<g>
		<defs>
			<rect id="SVGID_39_" x="218.4" y="432" width="11.8" height="11.3"/>
		</defs>
		<clipPath id="SVGID_40_">
			<use xlink:href="#SVGID_39_"  style="overflow:visible;"/>
		</clipPath>
		<g transform="matrix(1 0 0 1 1.525879e-05 -3.051758e-05)" style="clip-path:url(#SVGID_40_);">
			
				<use xlink:href="#c"  width="16.8" height="16" x="-8.4" y="-8" transform="matrix(0.7 0 0 0.7 224.2444 437.5631)" style="overflow:visible;"/>
		</g>
	</g>
	<g>
		<defs>
			<rect id="SVGID_41_" x="232.6" y="432" width="10.8" height="11"/>
		</defs>
		<clipPath id="SVGID_42_">
			<use xlink:href="#SVGID_41_"  style="overflow:visible;"/>
		</clipPath>
		<g style="clip-path:url(#SVGID_42_);">
			
				<use xlink:href="#f"  width="15.4" height="15.8" x="-7.7" y="-7.9" transform="matrix(0.7 0 0 0.7 238.0174 437.4269)" style="overflow:visible;"/>
		</g>
	</g>
	<g>
		<defs>
			<rect id="SVGID_43_" x="246" y="432" width="9.7" height="11.3"/>
		</defs>
		<clipPath id="SVGID_44_">
			<use xlink:href="#SVGID_43_"  style="overflow:visible;"/>
		</clipPath>
		<g style="clip-path:url(#SVGID_44_);">
			
				<use xlink:href="#r"  width="13.9" height="16" x="-6.9" y="-8" transform="matrix(0.7 0 0 0.7 250.7736 437.5636)" style="overflow:visible;"/>
		</g>
	</g>
	<g>
		<defs>
			<rect id="SVGID_45_" y="447.6" width="8.3" height="14.9"/>
		</defs>
		<clipPath id="SVGID_46_">
			<use xlink:href="#SVGID_45_"  style="overflow:visible;"/>
		</clipPath>
		<g transform="matrix(1 0 0 1 0 3.051758e-05)" style="clip-path:url(#SVGID_46_);">
			
				<use xlink:href="#q"  width="11.8" height="21.4" x="-5.9" y="-10.7" transform="matrix(0.7 0 0 0.7 4.13 455.069)" style="overflow:visible;"/>
		</g>
	</g>
	<g>
		<g>
			<defs>
				<rect id="SVGID_47_" x="8.1" y="462.5" width="490" height="490"/>
			</defs>
			<clipPath id="SVGID_48_">
				<use xlink:href="#SVGID_47_"  style="overflow:visible;"/>
			</clipPath>
			<g class="st4">
				<g>
					<defs>
						<rect id="SVGID_49_" x="9.8" y="451.6" width="8" height="11"/>
					</defs>
					<clipPath id="SVGID_50_">
						<use xlink:href="#SVGID_49_"  style="overflow:visible;"/>
					</clipPath>
					<g style="clip-path:url(#SVGID_50_);">
						
							<use xlink:href="#b"  width="11.4" height="15.8" x="-5.7" y="-7.9" transform="matrix(0.7 0 0 0.7 13.7574 457.0267)" style="overflow:visible;"/>
					</g>
				</g>
			</g>
		</g>
	</g>
	<g>
		<g>
			<defs>
				<rect id="SVGID_51_" x="17.8" y="462.5" width="490" height="490"/>
			</defs>
			<clipPath id="SVGID_52_">
				<use xlink:href="#SVGID_51_"  style="overflow:visible;"/>
			</clipPath>
			<g class="st5">
				<g>
					<defs>
						<rect id="SVGID_53_" x="18.6" y="451.6" width="11.8" height="11.3"/>
					</defs>
					<clipPath id="SVGID_54_">
						<use xlink:href="#SVGID_53_"  style="overflow:visible;"/>
					</clipPath>
					<g style="clip-path:url(#SVGID_54_);">
						
							<use xlink:href="#c"  width="16.8" height="16" x="-8.4" y="-8" transform="matrix(0.7 0 0 0.7 24.5229 457.1631)" style="overflow:visible;"/>
					</g>
				</g>
			</g>
		</g>
	</g>
	<g>
		<g>
			<defs>
				<rect id="SVGID_55_" x="31.2" y="462.5" width="490" height="490"/>
			</defs>
			<clipPath id="SVGID_56_">
				<use xlink:href="#SVGID_55_"  style="overflow:visible;"/>
			</clipPath>
			<g class="st6">
				<g>
					<defs>
						<rect id="SVGID_57_" x="32.9" y="451.6" width="17.2" height="11"/>
					</defs>
					<clipPath id="SVGID_58_">
						<use xlink:href="#SVGID_57_"  style="overflow:visible;"/>
					</clipPath>
					<g style="clip-path:url(#SVGID_58_);">
						
							<use xlink:href="#h"  width="24.6" height="15.8" x="-12.3" y="-7.9" transform="matrix(0.7 0 0 0.7 41.5089 456.9565)" style="overflow:visible;"/>
					</g>
				</g>
			</g>
		</g>
	</g>
	<g>
		<g>
			<defs>
				<rect id="SVGID_59_" x="58.5" y="462.5" width="490" height="490"/>
			</defs>
			<clipPath id="SVGID_60_">
				<use xlink:href="#SVGID_59_"  style="overflow:visible;"/>
			</clipPath>
			<g class="st7">
				<g>
					<defs>
						<rect id="SVGID_61_" x="58.8" y="448.8" width="8.7" height="13.8"/>
					</defs>
					<clipPath id="SVGID_62_">
						<use xlink:href="#SVGID_61_"  style="overflow:visible;"/>
					</clipPath>
					<g transform="matrix(1 0 0 1 -3.814697e-06 3.051758e-05)" style="clip-path:url(#SVGID_62_);">
						
							<use xlink:href="#d"  width="12.2" height="19.6" x="-6.1" y="-9.8" transform="matrix(0.7 0 0 0.7 63.0967 455.6378)" style="overflow:visible;"/>
					</g>
				</g>
			</g>
		</g>
	</g>
	<g>
		<defs>
			<rect id="SVGID_63_" x="69.5" y="447.6" width="10.8" height="14.9"/>
		</defs>
		<clipPath id="SVGID_64_">
			<use xlink:href="#SVGID_63_"  style="overflow:visible;"/>
		</clipPath>
		<g style="clip-path:url(#SVGID_64_);">
			
				<use xlink:href="#p"  width="15.4" height="21.3" x="-7.7" y="-10.6" transform="matrix(0.7 0 0 0.7 74.9092 455.1041)" style="overflow:visible;"/>
		</g>
	</g>
	<g>
		<g>
			<defs>
				<rect id="SVGID_65_" x="81.8" y="462.5" width="490" height="490"/>
			</defs>
			<clipPath id="SVGID_66_">
				<use xlink:href="#SVGID_65_"  style="overflow:visible;"/>
			</clipPath>
			<g class="st8">
				<g>
					<defs>
						<rect id="SVGID_67_" x="82.7" y="451.6" width="11.5" height="11.3"/>
					</defs>
					<clipPath id="SVGID_68_">
						<use xlink:href="#SVGID_67_"  style="overflow:visible;"/>
					</clipPath>
					<g style="clip-path:url(#SVGID_68_);">
						
							<use xlink:href="#a"  width="16.4" height="16" x="-8.2" y="-8" transform="matrix(0.7 0 0 0.7 88.42 457.1635)" style="overflow:visible;"/>
					</g>
				</g>
			</g>
		</g>
	</g>
	<g>
		<defs>
			<rect id="SVGID_69_" x="103.8" y="448.2" width="12.8" height="14.3"/>
		</defs>
		<clipPath id="SVGID_70_">
			<use xlink:href="#SVGID_69_"  style="overflow:visible;"/>
		</clipPath>
		<g transform="matrix(1 0 0 1 0 3.051758e-05)" style="clip-path:url(#SVGID_70_);">
			
				<use xlink:href="#o"  width="18.3" height="20.4" x="-9.1" y="-10.2" transform="matrix(0.7 0 0 0.7 110.1794 455.3753)" style="overflow:visible;"/>
		</g>
	</g>
	<g>
		<g>
			<defs>
				<rect id="SVGID_71_" x="118.3" y="462.5" width="490" height="490"/>
			</defs>
			<clipPath id="SVGID_72_">
				<use xlink:href="#SVGID_71_"  style="overflow:visible;"/>
			</clipPath>
			<g class="st9">
				<g>
					<defs>
						<rect id="SVGID_73_" x="119.2" y="451.6" width="11.8" height="11.3"/>
					</defs>
					<clipPath id="SVGID_74_">
						<use xlink:href="#SVGID_73_"  style="overflow:visible;"/>
					</clipPath>
					<g transform="matrix(1 0 0 1 7.629395e-06 0)" style="clip-path:url(#SVGID_74_);">
						
							<use xlink:href="#c"  width="16.8" height="16" x="-8.4" y="-8" transform="matrix(0.7 0 0 0.7 125.0768 457.1631)" style="overflow:visible;"/>
					</g>
				</g>
			</g>
		</g>
	</g>
	<g>
		<defs>
			<rect id="SVGID_75_" x="133.3" y="451.8" width="10.8" height="11"/>
		</defs>
		<clipPath id="SVGID_76_">
			<use xlink:href="#SVGID_75_"  style="overflow:visible;"/>
		</clipPath>
		<g style="clip-path:url(#SVGID_76_);">
			
				<use xlink:href="#n"  width="15.4" height="15.7" x="-7.7" y="-7.8" transform="matrix(0.7 0 0 0.7 138.7295 457.2595)" style="overflow:visible;"/>
		</g>
	</g>
	<g>
		<g>
			<defs>
				<rect id="SVGID_77_" x="145.8" y="462.5" width="490" height="490"/>
			</defs>
			<clipPath id="SVGID_78_">
				<use xlink:href="#SVGID_77_"  style="overflow:visible;"/>
			</clipPath>
			<g class="st10">
				<g>
					<defs>
						<rect id="SVGID_79_" x="147.4" y="451.6" width="10.8" height="11"/>
					</defs>
					<clipPath id="SVGID_80_">
						<use xlink:href="#SVGID_79_"  style="overflow:visible;"/>
					</clipPath>
					<g style="clip-path:url(#SVGID_80_);">
						
							<use xlink:href="#f"  width="15.4" height="15.8" x="-7.7" y="-7.9" transform="matrix(0.7 0 0 0.7 152.8033 457.0269)" style="overflow:visible;"/>
					</g>
				</g>
			</g>
		</g>
	</g>
	<g>
		<g>
			<defs>
				<rect id="SVGID_81_" x="166.5" y="462.5" width="490" height="490"/>
			</defs>
			<clipPath id="SVGID_82_">
				<use xlink:href="#SVGID_81_"  style="overflow:visible;"/>
			</clipPath>
			<g class="st11">
				<g>
					<defs>
						<rect id="SVGID_83_" x="168.3" y="448.2" width="11.8" height="14.3"/>
					</defs>
					<clipPath id="SVGID_84_">
						<use xlink:href="#SVGID_83_"  style="overflow:visible;"/>
					</clipPath>
					<g style="clip-path:url(#SVGID_84_);">
						
							<use xlink:href="#e"  width="16.8" height="20.3" x="-8.4" y="-10.1" transform="matrix(0.7 0 0 0.7 174.2245 455.3403)" style="overflow:visible;"/>
					</g>
				</g>
			</g>
		</g>
	</g>
	<g>
		<g>
			<defs>
				<rect id="SVGID_85_" x="180.9" y="462.5" width="490" height="490"/>
			</defs>
			<clipPath id="SVGID_86_">
				<use xlink:href="#SVGID_85_"  style="overflow:visible;"/>
			</clipPath>
			<g class="st12">
				<g>
					<defs>
						<rect id="SVGID_87_" x="182.5" y="451.6" width="8" height="11"/>
					</defs>
					<clipPath id="SVGID_88_">
						<use xlink:href="#SVGID_87_"  style="overflow:visible;"/>
					</clipPath>
					<g style="clip-path:url(#SVGID_88_);">
						
							<use xlink:href="#b"  width="11.4" height="15.8" x="-5.7" y="-7.9" transform="matrix(0.7 0 0 0.7 186.5399 457.0267)" style="overflow:visible;"/>
					</g>
				</g>
			</g>
		</g>
	</g>
	<g>
		<g>
			<defs>
				<rect id="SVGID_89_" x="190.6" y="462.5" width="490" height="490"/>
			</defs>
			<clipPath id="SVGID_90_">
				<use xlink:href="#SVGID_89_"  style="overflow:visible;"/>
			</clipPath>
			<g class="st13">
				<g>
					<defs>
						<rect id="SVGID_91_" x="191.4" y="451.6" width="11.8" height="11.3"/>
					</defs>
					<clipPath id="SVGID_92_">
						<use xlink:href="#SVGID_91_"  style="overflow:visible;"/>
					</clipPath>
					<g style="clip-path:url(#SVGID_92_);">
						
							<use xlink:href="#c"  width="16.8" height="16" x="-8.4" y="-8" transform="matrix(0.7 0 0 0.7 197.3026 457.1631)" style="overflow:visible;"/>
					</g>
				</g>
			</g>
		</g>
	</g>
	<g>
		<defs>
			<rect id="SVGID_93_" x="203.4" y="447.6" width="5.7" height="19.1"/>
		</defs>
		<clipPath id="SVGID_94_">
			<use xlink:href="#SVGID_93_"  style="overflow:visible;"/>
		</clipPath>
		<g transform="matrix(1 0 0 1 1.525879e-05 0)" style="clip-path:url(#SVGID_94_);">
			
				<use xlink:href="#m"  width="8.2" height="27.3" x="-4.1" y="-13.6" transform="matrix(0.7 0 0 0.7 206.2467 457.1506)" style="overflow:visible;"/>
		</g>
	</g>
	<g>
		<g>
			<defs>
				<rect id="SVGID_95_" x="210.8" y="462.5" width="490" height="490"/>
			</defs>
			<clipPath id="SVGID_96_">
				<use xlink:href="#SVGID_95_"  style="overflow:visible;"/>
			</clipPath>
			<g class="st14">
				<g>
					<defs>
						<rect id="SVGID_97_" x="211.6" y="451.6" width="11.5" height="11.3"/>
					</defs>
					<clipPath id="SVGID_98_">
						<use xlink:href="#SVGID_97_"  style="overflow:visible;"/>
					</clipPath>
					<g style="clip-path:url(#SVGID_98_);">
						
							<use xlink:href="#a"  width="16.4" height="16" x="-8.2" y="-8" transform="matrix(0.7 0 0 0.7 217.3513 457.1635)" style="overflow:visible;"/>
					</g>
				</g>
			</g>
		</g>
	</g>
	<g>
		<g>
			<defs>
				<rect id="SVGID_99_" x="224.1" y="462.5" width="490" height="490"/>
			</defs>
			<clipPath id="SVGID_100_">
				<use xlink:href="#SVGID_99_"  style="overflow:visible;"/>
			</clipPath>
			<g class="st15">
				<g>
					<defs>
						<rect id="SVGID_101_" x="224.9" y="451.6" width="9.4" height="11.3"/>
					</defs>
					<clipPath id="SVGID_102_">
						<use xlink:href="#SVGID_101_"  style="overflow:visible;"/>
					</clipPath>
					<g style="clip-path:url(#SVGID_102_);">
						
							<use xlink:href="#g"  width="13.6" height="16" x="-6.8" y="-8" transform="matrix(0.7 0 0 0.7 229.6231 457.1637)" style="overflow:visible;"/>
					</g>
				</g>
			</g>
		</g>
	</g>
	<g>
		<g>
			<defs>
				<rect id="SVGID_103_" x="235.6" y="462.5" width="490" height="490"/>
			</defs>
			<clipPath id="SVGID_104_">
				<use xlink:href="#SVGID_103_"  style="overflow:visible;"/>
			</clipPath>
			<g class="st16">
				<g>
					<defs>
						<rect id="SVGID_105_" x="235.9" y="448.8" width="8.7" height="13.8"/>
					</defs>
					<clipPath id="SVGID_106_">
						<use xlink:href="#SVGID_105_"  style="overflow:visible;"/>
					</clipPath>
					<g transform="matrix(1 0 0 1 0 3.051758e-05)" style="clip-path:url(#SVGID_106_);">
						
							<use xlink:href="#d"  width="12.2" height="19.6" x="-6.1" y="-9.8" transform="matrix(0.7 0 0 0.7 240.2596 455.6378)" style="overflow:visible;"/>
					</g>
				</g>
			</g>
		</g>
	</g>
</g>
</svg>
