<?xml version="1.0" standalone="no"?>
<!DOCTYPE svg PUBLIC "-//W3C//DTD SVG 1.1//EN" "http://www.w3.org/Graphics/SVG/1.1/DTD/svg11.dtd">
<svg xmlns="http://www.w3.org/2000/svg">
<defs >
<font id="Lemonada" horiz-adv-x="680" ><font-face
    font-family="Lemonada"
    units-per-em="1000"
    panose-1="0 0 0 0 0 0 0 0 0 0"
    ascent="1345"
    descent="-653"
    alphabetic="0" />
<glyph unicode=" " horiz-adv-x="300" />
<glyph unicode="!" horiz-adv-x="420" d="M189 279Q148 279 134 303T119 364Q119 378 122 403T131 459T141 522T149 583T153 631Q153 650 148 672T128 708Q161 742 206 758T302 775Q361 775 385 746T410 672Q410 641 402 603T379 523T349 443T317 371T291 317Q269
298 240 289T189 279ZM147 -25Q101 -25 71 5T40 80Q40 114 57 142T102 189T166 207Q212 207 242 177T273 102Q273 69 256 40T211 -7T147 -25Z" />
<glyph unicode="&quot;" horiz-adv-x="473" d="M364 446Q330 446 318 460T305 496Q305 528 318 564T344 638T357 716Q357 739 350 759Q373 770 397 775T442 780Q476 780 488 766T501 730Q501 697 488 661T462 587T449 510Q449 487 456 467Q434 457 409 452T364
446ZM134 446Q100 446 88 460T75 496Q75 528 88 564T114 638T127 716Q127 739 120 759Q143 770 167 775T212 780Q246 780 258 766T271 730Q271 697 258 661T232 587T219 510Q219 487 226 467Q204 457 179 452T134 446Z" />
<glyph unicode="#" horiz-adv-x="869" d="M178 158Q153 158 125 166T82 185Q129 316 183 516T296 980Q317 1074 384 1074Q410 1074 438 1066T480 1047Q433 916 379 716T266 252Q245 158 178 158ZM492 -98Q467 -98 439 -90T396 -71Q443 60 497 260T610 724Q631
818 698 818Q724 818 752 810T794 791Q747 660 693 460T580 -4Q559 -98 492 -98ZM163 149Q81 149 51 164T21 220Q21 262 40 293Q61 289 94 286T166 280T243 278Q315 278 388 285T535 298T686 305Q769 305 798 290T828 234Q828 192 809 161Q777 168 720 172T607
176Q536 176 463 170T314 156T163 149ZM211 449Q129 449 99 464T69 520Q69 562 88 593Q109 589 142 586T214 580T291 578Q363 578 436 585T583 598T734 605Q817 605 846 590T876 534Q876 492 857 461Q825 468 768 472T655 476Q584 476 511 470T362 456T211 449Z"
/>
<glyph unicode="$" horiz-adv-x="697" d="M317 -24Q219 -24 160 -7T74 40T47 108Q47 134 59 163T94 212Q130 160 180 126T307 91Q354 91 389 108T425 162Q425 187 401 203T338 232T256 262T174 304T111 367T86 464Q86 526 114 571T192 645T306 688T440 702Q516
702 570 686T654 641T684 574Q684 522 649 494T566 466Q521 466 483 492T421 571Q373 566 338 545T302 490Q302 464 326 448T389 418T471 390T553 352T616 293T641 199Q641 141 611 99T532 29T427 -11T317 -24ZM278 -193Q253 -193 225 -188T181 -172Q195 -129 207
-80T233 26L380 33Q374 2 369 -30T358 -96Q341 -193 278 -193ZM335 588Q347 637 359 688T382 793Q403 886 468 886Q494 886 522 878T563 859Q544 804 523 737T479 588H335Z" />
<glyph unicode="%" horiz-adv-x="1158" d="M262 272Q169 272 114 325T59 469Q59 540 92 593T185 677T324 707Q336 707 351 705T377 698Q380 695 382 688T385 669Q442 658 471 617T501 509Q501 442 470 389T384 304T262 272ZM266 394Q286 394 301 408T325 447T334
504Q334 561 284 561Q278 561 272 560T258 556Q245 546 236 516T226 460Q226 429 236 412T266 394ZM413 -40Q388 -40 362 -32T322 -13Q367 66 421 172T535 411T661 702Q699 796 766 796Q792 796 818 788T858 769Q790 651 703 472T518 54Q480 -40 413 -40ZM847 -23Q754
-23 699 30T644 174Q644 245 677 298T770 382T909 412Q921 412 936 410T962 403Q965 400 967 393T970 374Q1027 363 1056 322T1086 214Q1086 147 1055 94T969 9T847 -23ZM851 99Q871 99 886 113T910 152T919 209Q919 266 869 266Q863 266 857 265T843 261Q830 251
821 221T811 165Q811 134 821 117T851 99Z" />
<glyph unicode="&amp;" horiz-adv-x="757" d="M362 297Q277 297 215 323T118 398T83 512Q83 568 109 615T182 699T291 755T425 775Q519 775 575 743T631 658Q631 615 603 588T518 560Q483 560 451 582T402 642Q344 629 313 595T281 516Q281 488 296 466T337 432T398
419Q469 419 524 433T622 461T704 475Q776 475 776 421Q776 397 768 368T747 319Q725 322 708 323T674 325Q638 325 586 318T475 304T362 297ZM245 -92Q178 -92 128 -69T51 -3T23 97Q23 148 44 195T103 283T193 352L326 356Q277 322 249 277T221 173Q221 115 248
88T321 61Q364 61 402 82T469 140T516 226T536 333L630 339Q633 244 607 165T529 29T405 -60T245 -92Z" />
<glyph unicode="&apos;" horiz-adv-x="243" d="M134 446Q100 446 88 460T75 496Q75 528 88 564T114 638T127 716Q127 739 120 759Q143 770 167 775T212 780Q246 780 258 766T271 730Q271 697 258 661T232 587T219 510Q219 487 226 467Q204 457 179 452T134 446Z" />
<glyph unicode="(" horiz-adv-x="415" d="M225 -156Q151 -156 111 -66T70 191Q70 279 85 367T127 533T189 671T263 766T341 801Q369 801 389 791T425 758Q386 723 352 665T293 536T253 386T239 231Q239 116 267 35T357 -108Q323 -132 290 -144T225 -156Z" />
<glyph unicode=")" horiz-adv-x="415" d="M190 801Q264 801 304 711T345 454Q345 366 330 278T288 112T226 -26T152 -121T74 -156Q46 -156 26 -146T-10 -113Q29 -78 63 -20T122 109T162 259T176 414Q176 530 148 611T58 753Q93 777 126 789T190 801Z" />
<glyph unicode="*" horiz-adv-x="592" d="M394 300Q368 300 351 328T324 397T309 479L242 350Q214 353 184 363T133 390T112 427Q112 452 135 475T191 518T257 552L114 576Q111 589 110 603T108 631Q108 667 119 696T160 726Q186 726 212 711T264 672T311 625L289
768Q313 782 341 791T392 800Q424 800 437 787T450 741Q450 724 444 703T427 655T396 595L526 661Q542 647 557 627T583 584T594 544Q594 516 564 504T499 492Q486 492 470 493T436 498T395 506L497 402Q488 381 471 357T434 317T394 300Z" />
<glyph unicode="+" horiz-adv-x="730" d="M310 106Q279 106 270 125T269 197L335 611Q403 639 447 639Q479 639 487 620T488 547L422 134Q388 120 360 113T310 106ZM203 291Q151 291 132 303T112 346Q112 367 119 394T140 454H553Q606 454 625 443T645 399Q645
355 617 291H203Z" />
<glyph unicode="," horiz-adv-x="332" d="M27 -196L12 -152Q45 -136 68 -110T105 -55T118 -2L48 88Q50 120 67 147T114 191T177 208Q228 208 256 173T284 93Q284 25 253 -35T164 -137T27 -196Z" />
<glyph unicode="-" horiz-adv-x="527" d="M120 183Q92 183 75 198T57 256Q57 309 85 370Q99 366 111 365T137 363Q174 363 208 372T276 395T343 417T412 427Q440 427 457 412T475 354Q475 329 468 299T447 240Q434 245 422 246T395 247Q358 247 324 238T256 215T189
193T120 183Z" />
<glyph unicode="." horiz-adv-x="293" d="M137 -25Q91 -25 61 5T30 80Q30 114 47 142T92 189T156 207Q202 207 232 177T263 102Q263 69 246 40T201 -7T137 -25Z" />
<glyph unicode="/" horiz-adv-x="398" d="M96 -80Q71 -80 43 -72T0 -53Q47 78 101 278T214 742Q235 836 302 836Q328 836 356 828T398 809Q351 678 297 478T184 14Q163 -80 96 -80Z" />
<glyph unicode="0" horiz-adv-x="728" d="M346 -25Q257 -25 192 14T91 125T55 295Q55 416 105 507T244 649T452 700Q471 700 494 696T533 685Q538 680 541 668T545 637Q622 618 662 553T703 380Q703 294 676 221T601 92T487 6T346 -25ZM353 117Q396 117 428 149T480
239T499 370Q499 449 471 487T384 526Q371 526 357 523T328 514Q307 486 292 447T268 364T259 280Q259 205 284 161T353 117Z" />
<glyph unicode="1" horiz-adv-x="554" d="M327 -25Q263 -25 233 9T203 115Q203 138 204 161T210 215T223 295T245 417Q180 417 139 455T90 563Q159 578 208 601T296 647T366 685T433 700Q504 700 504 620Q504 593 496 550T477 454T454 344T434 233T426 133Q426
98 433 67T455 12Q388 -25 327 -25Z" />
<glyph unicode="2" horiz-adv-x="711" d="M297 97L95 141Q216 204 285 261T383 366T412 449Q412 488 391 511T327 535Q298 535 272 521T227 479T199 407Q152 412 125 440T98 513Q98 569 132 611T228 676T371 700Q443 700 497 674T582 602T613 500Q613 438 582
378T481 250T297 97ZM489 -30Q446 -30 407 -22T330 -1T251 28Q218 1 190 -10T128 -22Q85 -22 58 6T31 78Q31 136 74 173T187 212Q214 212 253 202T335 177T419 152T489 141L636 204Q649 173 654 149T660 100Q660 64 638 35T576 -12T489 -30Z" />
<glyph unicode="3" horiz-adv-x="664" d="M211 -156Q112 -156 58 -127T4 -42Q4 1 37 28T119 56Q157 56 193 33T252 -29Q292 -29 323 -13T374 31T393 93Q393 116 386 136T367 171T337 195Q311 180 283 172T227 164Q183 164 158 185T132 244Q132 285 172 309T282
333Q379 333 449 305T558 226T597 103Q597 48 568 1T487 -82T365 -136T211 -156ZM413 233L196 270Q267 288 313 313T382 372T405 450Q405 490 381 512T315 535Q281 535 253 520T204 476T174 407Q127 412 100 440T73 513Q73 569 109 611T209 676T359 700Q435 700
491 676T578 608T609 503Q609 430 560 363T413 233Z" />
<glyph unicode="4" horiz-adv-x="714" d="M210 0Q119 0 72 29T24 115Q24 144 38 181T73 263T120 354T166 449T202 543T216 630Q216 644 215 655T208 677Q232 687 263 693T315 700Q450 700 450 566Q450 475 386 367T191 130H415L386 19Q363 14 333 10T270 3T210
0ZM503 -170Q439 -170 404 -134T369 -32Q369 -3 378 41T402 135T436 235T475 324Q490 338 516 350T572 369T627 377Q659 377 670 370T682 341Q682 322 672 283T648 191T624 79T613 -41Q613 -86 637 -134Q600 -153 570 -161T503 -170Z" />
<glyph unicode="5" horiz-adv-x="625" d="M209 -156Q114 -156 62 -127T10 -45Q10 -1 43 27T127 56Q164 56 199 33T255 -29Q293 -29 324 -13T373 32T392 97Q392 124 378 152T328 199T227 218Q198 218 171 213T132 208Q119 208 112 213T106 231L157 543L320 478L296
333Q389 333 456 306T559 229T595 110Q595 53 566 5T485 -80T362 -136T209 -156ZM347 468Q240 468 180 504T120 603Q120 650 147 676T224 703Q257 703 289 683T339 622Q369 624 416 636T514 668T607 708Q613 686 616 664T620 622Q620 567 594 533T507 484T347 468Z"
/>
<glyph unicode="6" horiz-adv-x="727" d="M319 -25Q246 -25 190 5T101 97T68 250Q68 342 94 427T166 585T270 712T393 797T520 827Q585 827 616 803T669 727Q609 711 556 686T456 625T373 544T306 438H317Q358 485 402 502T489 519Q554 519 598 491T664 415T687
306Q687 235 658 175T577 70T459 0T319 -25ZM358 108Q378 108 399 118T440 150T471 205T483 283Q483 311 475 337T445 381T385 398Q362 398 336 380T291 324T272 230Q272 200 280 172T307 126T358 108Z" />
<glyph unicode="7" horiz-adv-x="604" d="M265 -121Q204 -121 167 -93T129 0Q129 61 156 142T233 314T348 498L547 527Q514 474 482 403T422 253T379 95T363 -51Q363 -65 364 -76T372 -98Q343 -111 317 -116T265 -121ZM353 469Q244 469 177 483T80 531T50 617Q50
637 54 660T67 709Q105 693 150 678T242 651T330 632T400 623Q422 664 457 684T530 704Q577 704 603 682T629 618Q629 548 556 509T353 469Z" />
<glyph unicode="8" horiz-adv-x="678" d="M312 -26Q190 -26 120 24T50 164Q50 194 58 224T93 286T170 351T308 418Q371 443 405 472T454 531T468 590Q468 628 448 650T392 672Q356 672 331 653T305 593Q305 562 330 534T394 478T476 422T559 360T623 288T648 199Q648
133 605 83T486 3T312 -26ZM329 80Q360 80 386 91T427 123T443 176Q443 203 419 230T355 286T272 346T189 413T126 489T101 574Q101 635 137 680T240 751T396 777Q510 777 576 727T642 591Q642 523 583 461T406 352Q353 331 312 302T247 238T224 166Q224 126 254
103T329 80Z" />
<glyph unicode="9" horiz-adv-x="709" d="M217 -152Q153 -152 121 -128T68 -52Q128 -35 181 -10T281 50T364 131T431 237H420Q380 191 335 174T248 156Q184 156 140 184T73 260T50 369Q50 440 79 500T160 605T278 675T418 700Q491 700 547 670T636 578T669 425Q669
333 643 248T571 90T467 -37T344 -122T217 -152ZM352 277Q375 277 401 295T446 351T465 445Q465 475 457 503T430 549T379 567Q360 567 338 557T297 525T266 470T254 392Q254 364 262 338T292 294T352 277Z" />
<glyph unicode=":" horiz-adv-x="333" d="M137 -25Q91 -25 61 5T30 80Q30 114 47 142T92 189T156 207Q202 207 232 177T263 102Q263 69 246 40T201 -7T137 -25ZM184 328Q138 328 108 358T77 433Q77 467 94 495T139 542T203 560Q249 560 279 530T310 455Q310 422
293 393T248 346T184 328Z" />
<glyph unicode=";" horiz-adv-x="333" d="M27 -196L12 -152Q45 -136 68 -110T105 -55T118 -2L48 88Q50 120 67 147T114 191T177 208Q228 208 256 173T284 93Q284 25 253 -35T164 -137T27 -196ZM184 328Q138 328 108 358T77 433Q77 467 94 495T139 542T203 560Q249
560 279 530T310 455Q310 422 293 393T248 346T184 328Z" />
<glyph unicode="&lt;" horiz-adv-x="763" d="M187 446L580 274Q615 259 630 245T646 213Q646 196 634 175T603 135T568 100L176 271Q141 286 125 301T109 333Q109 349 121 369T151 410T187 446ZM634 637Q658 637 671 615T689 560T695 496L314 325Q292 315 277
310T249 305Q223 305 208 336Q199 356 194 384T187 446L569 617Q591 627 607 632T634 637Z" />
<glyph unicode="=" horiz-adv-x="731" d="M181 151Q129 151 110 163T90 206Q90 227 97 254T118 314H531Q584 314 603 303T623 259Q623 215 595 151H181ZM226 431Q174 431 155 443T135 486Q135 507 142 534T163 594H576Q629 594 648 583T668 539Q668 495 640 431H226Z" />
<glyph unicode="&gt;" horiz-adv-x="763" d="M602 291L209 463Q174 478 159 492T143 524Q143 542 155 562T186 602T221 637L613 466Q648 451 664 436T680 404Q680 388 668 368T638 327T602 291ZM155 100Q131 100 118 122T100 177T94 241L475 412Q497 422 512 427T540
432Q566 432 581 401Q590 382 595 354T602 291L220 120Q198 110 182 105T155 100Z" />
<glyph unicode="?" horiz-adv-x="589" d="M286 263Q226 263 199 295T171 376Q214 380 246 392T299 423T332 466T343 520Q343 551 325 575T265 600Q243 600 218 590T173 553T142 482Q100 482 76 497T41 535T30 584Q30 619 46 652T95 714T178 758T295 775Q392 775
449 741T533 654T559 542Q559 481 538 430T480 341T393 284T286 263ZM191 -25Q145 -25 115 5T84 80Q84 114 101 142T146 189T210 207Q256 207 286 177T317 102Q317 69 300 40T255 -7T191 -25Z" />
<glyph unicode="@" horiz-adv-x="1077" d="M509 -235Q369 -235 267 -182T109 -32T54 197Q54 324 99 433T225 625T414 754T650 800Q757 800 833 774T958 703T1030 601T1053 482Q1053 412 1028 343T954 216T840 125T691 90L781 196Q817 208 848 236T904 302T942
385T956 474Q956 521 940 564T887 641T791 695T645 715Q546 715 460 679T309 577T208 427T171 243Q171 80 266 -7T543 -94Q654 -94 750 -54T923 65Q931 48 935 30T939 -6Q939 -63 900 -106T798 -177T659 -220T509 -235ZM450 90Q388 90 350 135T312 255Q312 339
352 400T459 494T605 527Q636 527 657 521Q661 511 663 491T665 446Q608 446 569 426T509 374T488 305Q488 275 500 259T535 243Q579 243 602 291T634 446Q685 510 758 510Q787 510 803 492T820 438Q820 423 814 395T801 334T787 270T781 217Q781 189 789 167T810
134Q783 113 753 102T691 90Q646 90 622 114T597 183Q597 187 597 190T598 196L590 199Q573 148 536 119T450 90Z" />
<glyph unicode="A" horiz-adv-x="767" d="M113 -29Q20 -29 20 69Q20 100 30 140T63 239T126 379T224 577L191 662Q247 697 293 711T393 725Q450 725 475 700Q522 725 559 725Q614 725 639 690T664 578Q664 517 664 459T663 348T666 246T675 156T694 79T727 16Q669
-29 602 -29Q562 -29 534 -11T487 46T461 146T453 292Q453 379 454 457T459 593H447Q381 487 333 394T258 227T232 110Q232 55 253 16Q225 -4 187 -16T113 -29ZM178 161L200 280H546L526 161H178Z" />
<glyph unicode="B" horiz-adv-x="762" d="M368 -24Q205 -24 133 14T60 140Q60 161 62 190T71 265T89 379T118 546L65 653Q121 689 173 707T271 726Q333 726 345 666Q448 725 547 725Q627 725 673 685T719 574Q719 504 677 452T552 368Q632 353 677 306T722 188Q722
124 679 76T556 2T368 -24ZM378 89Q435 89 469 119T504 201Q504 249 473 275T382 302Q357 302 330 297T276 282L289 378Q354 381 401 399T475 447T501 518Q501 593 416 593Q394 593 375 590T335 579Q325 527 315 467T296 343T280 220T268 111Q291 101 320 95T378
89Z" />
<glyph unicode="C" horiz-adv-x="716" d="M355 -25Q202 -25 116 55T30 278Q30 376 64 457T160 599T306 693T489 726Q584 726 640 692T696 599Q696 552 663 522T579 491Q531 491 490 517T425 594Q375 575 335 527T271 414T248 274Q248 183 279 132T367 81Q412 81
448 105T506 172T531 265Q595 265 629 242T664 171Q664 116 623 72T511 2T355 -25Z" />
<glyph unicode="D" horiz-adv-x="856" d="M323 -25Q199 -25 130 19T60 143Q60 164 63 193T73 268T92 381T123 546L70 653Q126 689 178 707T276 726Q353 726 353 632Q353 616 349 583T338 506T323 412T307 313T291 221T280 147T276 103Q290 96 307 93T343 89Q412
89 465 126T548 231T578 384Q578 484 532 540T403 596Q383 596 361 590T316 571T265 538L235 620Q283 661 322 684T402 716T494 726Q585 726 652 688T758 580T796 419Q796 321 762 240T664 99T514 8T323 -25Z" />
<glyph unicode="E" horiz-adv-x="629" d="M182 -26Q118 -26 89 6T60 109Q60 131 63 162T73 243T92 365T123 546L70 653Q126 689 178 707T276 726Q353 726 353 632Q353 617 349 588T338 519T323 436T307 347T291 262T280 192T276 144Q276 98 283 70T306 19Q255
-26 182 -26ZM447 -25Q390 -25 340 -13T229 29V136H438Q475 141 512 151T586 175Q592 161 594 146T597 111Q597 46 558 11T447 -25ZM357 249Q340 249 321 252T272 262L292 376Q312 371 331 369T371 366L461 389Q463 380 464 368T466 341Q466 298 437 274T357 249ZM448
493Q423 493 389 499T324 514T272 533L284 668Q350 668 405 675T514 694T631 721Q635 704 637 688T639 656Q639 606 616 569T551 513T448 493Z" />
<glyph unicode="F" horiz-adv-x="599" d="M182 -26Q118 -26 89 6T60 109Q60 131 63 162T73 243T92 365T123 546L70 653Q126 689 178 707T276 726Q353 726 353 632Q353 617 349 588T338 519T323 436T307 347T291 262T280 192T276 144Q276 98 283 70T306 19Q255
-26 182 -26ZM357 249Q340 249 321 252T272 262L292 376Q312 371 331 369T371 366L461 389Q463 380 464 368T466 341Q466 298 437 274T357 249ZM438 493Q413 493 379 499T314 514T262 533L274 668Q340 668 395 675T504 694T621 721Q625 704 627 688T629 656Q629
606 606 569T541 513T438 493Z" />
<glyph unicode="G" horiz-adv-x="756" d="M362 -30Q206 -30 118 51T30 278Q30 376 65 457T164 599T314 693T503 726Q599 726 656 692T713 599Q713 552 680 522T594 491Q545 491 503 517T435 594Q382 575 340 527T273 414T248 274Q248 183 281 132T373 81Q414 81
446 101T498 156T520 234Q544 234 557 219T570 171Q570 115 542 70T467 -3T362 -30ZM550 -185Q486 -185 459 -157T431 -74Q431 -59 434 -35T444 19L559 189L520 234L442 309Q487 338 539 357T640 377Q683 377 699 361T716 310Q716 297 708 266T689 194T666 108T646
19T638 -60Q638 -87 645 -108T669 -141Q641 -163 611 -174T550 -185Z" />
<glyph unicode="H" horiz-adv-x="824" d="M623 -26Q559 -26 530 6T501 109Q501 131 503 161T513 239T532 361T564 546L511 653Q567 689 619 707T717 726Q794 726 794 632Q794 617 790 588T779 519T764 436T748 347T732 262T721 192T717 144Q717 98 724 70T747
19Q690 -26 623 -26ZM182 -26Q118 -26 89 6T60 109Q60 131 62 161T72 239T91 361T123 546L70 653Q126 689 178 707T276 726Q353 726 353 632Q353 617 349 588T338 519T323 436T307 347T291 262T280 192T276 144Q276 98 283 70T306 19Q249 -26 182 -26ZM233 267L255
386H601L581 267H233Z" />
<glyph unicode="I" horiz-adv-x="383" d="M182 -25Q118 -25 89 7T60 110Q60 132 62 162T72 240T91 362T123 546L70 653Q126 689 178 707T276 726Q353 726 353 632Q353 617 349 588T338 520T323 436T307 348T291 263T280 193T276 145Q276 99 283 71T306 20Q249
-25 182 -25Z" />
<glyph unicode="J" horiz-adv-x="610" d="M203 -25Q144 -25 98 -7T26 43T0 115Q0 165 34 193T111 222Q145 222 177 203T233 144T265 37L230 88Q246 97 257 106T278 132T296 184T312 278L349 545L582 632L533 278Q520 183 488 123T410 31T311 -13T203 -25ZM356
480Q208 480 146 515T84 635Q84 656 88 681T99 732Q140 710 191 690T291 657T369 641Q392 684 424 705T496 726Q550 726 577 700T605 626Q605 557 539 519T356 480Z" />
<glyph unicode="K" horiz-adv-x="736" d="M182 210V296L358 425Q393 451 420 477T466 530T494 583T504 633Q504 646 502 657T496 680Q570 725 636 725Q685 725 709 703T734 635Q734 592 702 546T603 451T432 345L182 210ZM182 -26Q118 -26 89 6T60 109Q60 132
63 163T73 244T92 366T123 546L70 653Q126 689 178 707T276 726Q353 726 353 632Q353 617 349 588T338 519T323 436T307 347T291 262T280 192T276 144Q276 98 283 70T306 19Q252 -26 182 -26ZM593 -25Q547 -25 514 -10T457 42T410 139L347 317L530 446Q552 367
577 299T629 177T683 86T736 30Q722 15 697 3T644 -17T593 -25Z" />
<glyph unicode="L" horiz-adv-x="553" d="M182 -26Q118 -26 89 6T60 109Q60 132 63 163T73 244T92 366T123 546L70 653Q126 689 178 707T276 726Q353 726 353 632Q353 617 349 588T338 519T323 436T307 347T291 262T280 192T276 144Q276 98 283 70T306 19Q252
-26 182 -26ZM393 -25Q353 -25 311 -18T211 14L260 136H384Q421 141 458 151T532 175Q537 162 540 147T543 111Q543 46 504 11T393 -25Z" />
<glyph unicode="M" horiz-adv-x="1033" d="M182 -26Q115 -26 88 12T60 129Q60 154 64 191T76 280T96 397T123 546L70 653Q117 683 170 704T276 726Q315 726 346 717T403 681T447 607T480 482T504 293H516Q531 342 554 399T610 513T685 617T779 692T893 720Q938
720 961 705T994 666T1003 612Q1003 599 999 572T988 509T973 432T957 351T941 273T930 208T926 164Q926 113 933 78T956 19Q896 -26 832 -26Q765 -26 738 12T710 129Q710 154 714 189T725 271T744 377T769 510H759Q730 473 706 430T662 342T628 251T604 164T591
87Q566 64 537 53T478 41Q456 41 438 53T406 95T380 178T360 313T345 510H335Q326 470 317 428T301 346T288 270T279 207T276 164Q276 113 283 78T306 19Q275 -4 245 -15T182 -26Z" />
<glyph unicode="N" horiz-adv-x="864" d="M663 -25Q619 -25 584 -16T521 18T471 84T429 189T391 340T353 546H289L276 726Q324 726 359 715T420 674T466 590T505 451T544 243H654L663 -25ZM182 -26Q118 -26 89 6T60 109Q60 131 62 161T72 239T91 361T123 546L70
653Q126 689 178 707T276 726Q353 726 353 632Q353 617 349 588T338 519T323 436T307 347T291 262T280 192T276 144Q276 98 283 70T306 19Q249 -26 182 -26ZM663 -25Q599 -25 570 7T541 110Q541 132 543 162T553 240T572 362T604 547L561 654Q614 690 664 708T757
727Q834 727 834 633Q834 618 830 589T819 520T804 437T788 348T772 263T761 193T757 145Q757 99 764 71T787 20Q758 -3 728 -14T663 -25Z" />
<glyph unicode="O" horiz-adv-x="773" d="M346 -25Q250 -25 179 14T69 122T30 283Q30 383 61 464T147 604T270 693T416 725Q484 725 512 702T541 629Q541 611 538 598T527 567Q517 570 500 572T469 575Q402 575 352 535T275 429T248 283Q248 183 288 132T394 81Q431
81 466 96T532 141T583 209T612 296Q539 330 511 380T482 487Q482 525 499 555T545 604T611 622Q679 622 716 569T753 424Q753 328 723 246T637 103T508 9T346 -25Z" />
<glyph unicode="P" horiz-adv-x="717" d="M383 205Q340 205 309 212T243 238V357Q261 343 284 337T330 330Q377 330 414 350T472 406T494 486Q494 515 483 540T450 580T393 596Q362 596 331 581T265 538V640Q296 664 327 683T398 713T494 724Q566 724 616 693T691
610T717 500Q717 448 697 396T636 300T532 231T383 205ZM182 -26Q118 -26 89 6T60 109Q60 131 62 161T72 239T91 361T123 546L70 653Q126 689 178 707T276 726Q353 726 353 632Q353 617 349 588T338 519T323 436T307 347T291 262T280 192T276 144Q276 98 283 70T306
19Q249 -26 182 -26Z" />
<glyph unicode="Q" horiz-adv-x="773" d="M555 -223Q504 -223 449 -203T345 -156T260 -107Q232 -144 200 -155T148 -166Q111 -166 92 -142T73 -90Q73 -58 99 -29T183 0Q235 0 289 -11T398 -34T510 -46Q554 -46 598 -40T689 -16Q695 -32 697 -48T700 -82Q700 -119
685 -151T637 -203T555 -223ZM346 -25Q250 -25 179 14T69 122T30 283Q30 383 61 464T147 604T270 693T416 725Q484 725 512 702T541 629Q541 611 538 598T527 567Q517 570 500 572T469 575Q402 575 352 535T275 429T248 283Q248 183 288 132T394 81Q431 81 466
96T532 141T583 209T612 296Q539 330 511 380T482 487Q482 525 499 555T545 604T611 622Q679 622 716 569T753 424Q753 328 723 246T637 103T508 9T346 -25Z" />
<glyph unicode="R" horiz-adv-x="747" d="M383 235Q340 235 309 242T243 268V387Q261 373 284 367T330 360Q377 360 414 377T472 426T494 501Q494 524 483 545T450 581T393 596Q362 596 331 581T265 538V640Q296 664 327 683T398 713T494 724Q566 724 616 694T691
616T717 515Q717 463 697 414T636 324T532 259T383 235ZM182 -26Q118 -26 89 6T60 109Q60 131 62 161T72 239T91 361T123 546L70 653Q126 689 178 707T276 726Q353 726 353 632Q353 615 348 580T333 499T315 403T296 303T282 213T276 144Q276 98 283 70T306 19Q249
-26 182 -26ZM604 -25Q558 -25 525 -10T468 42T421 139L375 269L571 349Q598 269 627 205T687 96T747 30Q733 15 708 3T655 -17T604 -25Z" />
<glyph unicode="S" horiz-adv-x="729" d="M321 -25Q220 -25 157 -8T64 41T35 112Q35 138 48 167T84 216Q122 162 176 127T310 91Q366 91 406 109T446 167Q446 189 426 205T373 233T301 259T221 289T148 332T95 394T75 482Q75 545 105 591T187 667T307 711T452
726Q532 726 589 710T678 664T709 595Q709 543 673 515T586 486Q538 486 498 512T434 594Q375 588 334 565T293 507Q293 484 313 468T366 440T439 416T518 387T591 347T644 288T664 203Q664 144 634 101T553 30T442 -11T321 -25Z" />
<glyph unicode="T" horiz-adv-x="644" d="M297 -26Q230 -26 203 12T175 129Q175 167 183 230T209 386T249 606L460 564Q452 521 443 473T424 378T408 288T396 214T391 164Q391 113 398 78T421 19Q361 -26 297 -26ZM515 485Q464 485 414 494T314 514T210 526L58
487Q50 507 45 530T40 582Q40 644 80 679T189 715Q240 715 290 706T390 686T494 674L646 713Q654 694 659 670T664 618Q664 557 624 521T515 485Z" />
<glyph unicode="U" horiz-adv-x="822" d="M616 -26Q579 -26 553 -12T514 29T500 95Q500 117 502 136T510 171L500 170Q469 109 425 66T329 -1T221 -25Q181 -25 151 -14T101 20T70 76T60 155Q60 174 62 197T70 261T88 369T119 546L66 653Q135 693 181 709T272 725Q349
725 349 632Q349 619 344 588T331 513T313 424T296 334T282 257T277 209Q277 169 291 150T336 130Q368 130 400 153T460 220T510 321Q499 350 494 383T488 451Q488 499 498 541T528 616T575 674T636 712T709 725Q735 725 759 720T802 706Q787 649 771 575T741 423T719
278T710 164Q710 62 740 19Q712 -4 682 -15T616 -26Z" />
<glyph unicode="V" horiz-adv-x="727" d="M284 -30Q213 -30 169 -5T105 77T85 226Q85 300 86 368T83 495T65 601T20 681Q79 726 145 726Q193 726 226 697T277 598T294 405Q294 354 294 310T292 228T290 159T288 104H300Q374 222 421 316T492 480T515 587Q515 613
510 636T493 681Q522 702 561 714T634 726Q680 726 703 701T727 628Q727 598 718 558T685 461T623 320T523 120L538 64Q507 37 464 16T374 -18T284 -30Z" />
<glyph unicode="W" horiz-adv-x="1061" d="M240 -30Q158 -30 124 22T90 197Q90 276 91 348T88 482T68 595T20 681Q79 726 147 726Q198 726 231 697T282 598T299 405Q299 354 299 310T298 228T298 159T297 104H309Q370 171 409 239T472 367T504 472T514 535Q514
555 507 575T490 614T471 650Q492 669 516 679T564 690Q611 690 636 664T661 584Q661 545 650 499T620 401T576 299T522 199Q488 144 457 101T394 29T324 -15T240 -30ZM666 -30Q605 -30 571 -5T521 71T498 202L461 650Q490 673 517 681T564 690L606 619L632 104H644Q714
222 759 316T826 480T848 587Q848 613 842 636T824 681Q854 702 892 714T966 726Q1013 726 1037 701T1061 628Q1061 598 1051 558T1018 461T955 320T857 120L882 64Q857 37 821 16T744 -18T666 -30Z" />
<glyph unicode="X" horiz-adv-x="800" d="M586 -30Q551 -30 524 -18T473 25T420 108L232 460Q213 497 190 528T137 584T65 624Q98 674 141 699T238 725Q273 725 299 713T351 670T404 586L591 235Q611 198 633 167T686 111T758 70Q726 21 683 -4T586 -30ZM115 -30Q70
-30 43 -1T16 75Q16 112 38 149T106 228T228 318L352 399L419 281Q331 223 288 169T244 68Q244 52 247 39T254 15Q219 -7 184 -18T115 -30ZM460 296L392 415Q481 474 524 528T567 628Q567 659 558 681Q593 703 628 714T697 726Q741 726 768 697T795 620Q795 584
774 547T706 469T584 378L460 296Z" />
<glyph unicode="Y" horiz-adv-x="841" d="M121 -242Q26 -242 -22 -208T-70 -113Q-70 -82 -55 -54T-21 -12Q-9 -30 10 -47T59 -74T130 -85Q172 -85 222 -66T325 -9T425 85T512 216T572 383T595 587Q595 613 590 636T573 681Q602 702 641 714T714 726Q760 726 783
702T806 630Q806 567 791 489T745 328T671 163T570 8T443 -121T293 -210T121 -242ZM356 -30Q288 -30 246 -6T180 59T147 154T136 268T134 388T129 505T111 606T65 681Q122 726 190 726Q247 726 278 698T324 621T341 513T344 390T344 266T356 158T393 82T468 53L356
-30Z" />
<glyph unicode="Z" horiz-adv-x="716" d="M294 104L96 143L405 534L651 564L294 104ZM497 -30Q450 -30 408 -22T326 0T242 30Q208 2 179 -10T115 -22Q71 -22 43 7T15 81Q15 141 60 179T176 219Q205 219 246 208T333 183T423 157T497 146L648 211Q661 180 667 155T673
104Q673 67 650 37T587 -12T497 -30ZM411 480Q296 480 226 495T125 545T93 635Q93 656 97 681T111 732Q151 716 199 700T296 672T388 651T461 641Q491 684 525 705T597 726Q646 726 673 700T701 626Q701 557 625 519T411 480Z" />
<glyph unicode="[" horiz-adv-x="455" d="M229 -157Q178 -157 142 -141T88 -86T69 15Q69 101 77 188T103 372T147 584Q167 671 197 718T272 782T381 800Q429 800 453 788T486 754T495 701Q495 694 495 678T490 649Q480 654 456 658T405 665T360 668Q336 606 317
523T284 346T263 157T255 -25Q273 -25 298 -22T347 -15T381 -6Q385 -19 387 -34T389 -58Q389 -104 354 -130T229 -157Z" />
<glyph unicode="\" horiz-adv-x="672" d="M439 -80Q372 -80 351 14Q293 277 239 477T137 809Q151 820 179 828T233 836Q300 836 321 742Q380 479 434 279T535 -53Q520 -64 492 -72T439 -80Z" />
<glyph unicode="]" horiz-adv-x="455" d="M237 801Q289 801 324 785T378 731T397 629Q397 543 389 456T363 272T319 60Q300 -27 270 -73T194 -138T85 -156Q38 -156 13 -144T-20 -110T-29 -57Q-29 -49 -29 -34T-24 -5Q-14 -9 10 -13T62 -21T106 -24Q130 38 149
121T182 298T203 487T211 669Q194 669 168 666T119 659T85 650Q81 663 79 679T77 702Q77 749 112 775T237 801Z" />
<glyph unicode="^" horiz-adv-x="681" d="M192 451Q175 451 158 463T125 494T98 529L331 871Q355 906 373 922T409 938H478Q495 938 508 922T535 871L659 529Q643 513 622 495T579 464T540 451Q523 451 510 466T484 517L386 783L446 775L269 517Q245 482 227 467T192
451Z" />
<glyph unicode="_" horiz-adv-x="679" d="M76 -217Q12 -217 -11 -201T-35 -142Q-35 -115 -28 -83T-7 -14Q27 -25 62 -31T132 -37Q179 -37 223 -32T309 -19T394 -7T477 -1Q542 -1 565 -16T589 -76Q589 -102 582 -134T561 -204Q527 -193 491 -187T422 -181Q376 -181
332 -186T244 -199T160 -211T76 -217Z" />
<glyph unicode="`" horiz-adv-x="600" d="M300 653Q274 653 248 663T190 685T120 708T30 718Q26 736 23 755T20 791Q20 876 86 876Q118 876 149 858T213 813T281 764T356 729Q354 693 339 673T300 653Z" />
<glyph unicode="a" horiz-adv-x="746" d="M227 -25Q171 -25 129 4T63 86T40 210Q40 297 69 368T151 492T277 572T439 600Q481 600 518 592Q524 579 527 557T530 509Q470 509 417 489T324 432T261 349T238 249Q238 200 258 174T316 147Q390 147 434 235T497 509Q524
543 556 559T628 575Q663 575 682 555T701 496Q701 470 692 426T670 328T648 219T638 115Q638 50 669 24Q639 0 607 -12T540 -25Q489 -25 462 4T434 87Q434 95 435 104T437 123L427 128Q399 56 346 16T227 -25Z" />
<glyph unicode="b" horiz-adv-x="742" d="M263 -25Q190 -25 148 -4T88 59T70 160Q70 180 73 210T84 292T105 423T139 621L83 701Q125 732 174 753T270 774Q317 774 336 758T355 703Q355 665 339 599T305 452L315 447Q344 519 397 559T515 600Q572 600 614 571T679
489T702 365Q702 278 671 207T581 83T442 3T263 -25ZM245 78Q299 83 346 104T428 159T484 235T504 326Q504 375 484 401T426 428Q389 428 357 404T299 333T260 223T245 78Z" />
<glyph unicode="c" horiz-adv-x="638" d="M323 -25Q193 -25 119 44T45 235Q45 315 73 381T153 497T275 573T429 600Q515 600 566 568T617 483Q617 440 588 413T513 385Q470 385 435 409T379 477Q341 463 310 427T261 340T243 233Q243 160 268 119T338 78Q373 78
402 98T449 152T469 227Q529 227 560 205T592 141Q592 95 556 57T459 -3T323 -25Z" />
<glyph unicode="d" horiz-adv-x="751" d="M226 -25Q170 -25 128 4T62 86T39 210Q39 291 68 358T150 473T276 548T438 575Q480 575 517 567Q523 551 526 529T529 484Q469 484 416 466T323 416T260 341T237 249Q237 200 257 174T315 147Q341 147 366 161T414 201T453
262L446 119L425 128Q397 56 344 16T226 -25ZM549 -25Q488 -25 462 10T436 119Q436 138 440 172T450 250T465 343T483 442T500 538T515 622L459 702Q501 733 550 754T646 775Q693 775 712 759T731 704Q731 674 722 628T700 525T674 402T651 269T642 132Q642 82
651 62T673 24Q645 -1 612 -13T549 -25Z" />
<glyph unicode="e" horiz-adv-x="661" d="M308 -25Q184 -25 114 41T43 225Q43 306 72 374T155 493T280 572T437 600Q529 600 579 562T630 455Q630 384 581 333T440 256T222 232L235 306Q342 312 399 345T457 434Q457 456 442 469T403 483Q371 483 342 462T290
404T254 321T241 223Q241 155 264 117T330 78Q381 78 414 115T449 214Q509 214 540 192T572 128Q572 85 537 51T442 -4T308 -25Z" />
<glyph unicode="f" horiz-adv-x="439" d="M182 -200Q129 -200 100 -169T70 -82Q70 -32 92 97T160 446Q156 472 154 496T151 544Q151 619 174 673T243 757T353 787Q407 787 443 757T479 680Q479 634 448 606T367 577Q345 577 325 583T288 600L274 590L349 379Q334
315 322 250T301 124T286 17T281 -60Q281 -125 312 -151Q239 -200 182 -200ZM67 317Q60 340 60 362Q60 394 73 415T111 448T172 460Q216 460 259 464T343 477T415 498Q422 475 422 453Q422 422 409 400T371 367T310 355Q267 355 223 351T139 338T67 317Z" />
<glyph unicode="g" horiz-adv-x="702" d="M168 -238Q73 -238 22 -209T-29 -124Q-29 -91 -11 -61T33 -15Q57 -53 96 -71T180 -89Q222 -89 265 -73T346 -17T413 91T458 262T471 509Q499 544 531 560T604 576Q675 576 675 505Q675 400 658 294T605 93T509 -77T366
-195T168 -238ZM200 10Q142 10 99 38T32 116T8 235Q8 316 37 383T120 498T248 573T412 600Q454 600 491 592Q497 576 500 554T503 509Q442 509 388 489T293 434T229 353T206 254Q206 201 228 172T289 142Q309 142 333 152T381 187T426 253T458 358T471 509V153H409Q379
86 324 48T200 10Z" />
<glyph unicode="h" horiz-adv-x="763" d="M177 -25Q114 -25 87 7T60 99Q60 123 66 168T83 272T105 393T128 515T149 622L93 702Q135 733 184 754T280 775Q327 775 346 759T365 704Q365 675 355 629T331 524T303 401L313 396Q354 466 400 511T496 578T597 600Q658
600 688 571T718 479Q718 439 709 395T689 303T668 209T659 115Q659 85 664 62T680 24Q627 -25 570 -25Q507 -25 480 7T453 99Q453 141 462 183T483 264T504 339T513 401Q513 421 506 432T479 443Q452 443 416 419T346 352T289 248T266 115Q266 85 271 62T287 24Q234
-25 177 -25Z" />
<glyph unicode="i" horiz-adv-x="388" d="M183 -25Q119 -25 92 7T65 99Q65 121 71 160T87 248T108 347T129 441L73 525Q118 557 170 578T270 600Q312 600 328 582T345 526Q345 514 340 488T326 426T308 350T291 267T277 186T271 115Q271 85 278 62T302 24Q246
-25 183 -25ZM243 655Q197 655 167 677T137 738Q137 775 159 799T212 835T272 847Q318 847 348 825T378 764Q378 732 359 707T310 669T243 655Z" />
<glyph unicode="j" horiz-adv-x="397" d="M46 -210Q-16 -210 -44 -181T-73 -113Q-73 -67 -43 -41T38 -15Q67 -15 87 -26T124 -48L134 -34Q106 -8 92 13T72 56T67 105Q67 116 72 151T85 237T103 340T121 441L65 525Q110 557 162 578T262 600Q304 600 320 582T337
526Q337 511 334 481T324 411T309 324T292 227T274 129T255 37Q243 -25 217 -81T148 -174T46 -210ZM235 665Q189 665 159 685T129 739Q129 772 151 793T204 826T264 837Q310 837 340 818T370 763Q370 734 351 712T302 677T235 665Z" />
<glyph unicode="k" horiz-adv-x="729" d="M228 144L234 241L315 307Q366 348 405 382T466 450T488 519Q488 530 486 542T478 567Q512 584 543 592T603 600Q649 600 677 574T705 504Q705 445 653 392T484 277L228 144ZM183 -25Q122 -25 96 10T70 119Q70 138 74
172T84 250T99 343T117 442T134 538T149 622L93 702Q135 733 184 754T280 775Q327 775 346 759T365 704Q365 674 356 628T334 525T308 402T285 269T276 132Q276 82 285 62T307 24Q279 -1 246 -13T183 -25ZM575 -25Q521 -25 485 9T407 118L332 257L505 361L587 210Q607
168 639 130T728 69Q699 22 661 -1T575 -25Z" />
<glyph unicode="l" horiz-adv-x="385" d="M183 -25Q122 -25 96 10T70 119Q70 138 74 172T84 250T99 343T117 442T134 538T149 622L93 702Q135 733 184 754T280 775Q327 775 346 759T365 704Q365 679 359 643T342 562T321 466T299 359T283 246T276 132Q276 82 285
62T307 24Q279 -1 246 -13T183 -25Z" />
<glyph unicode="m" horiz-adv-x="1131" d="M172 -25Q109 -25 82 7T55 99Q55 116 59 147T69 219T84 303T101 388T118 464L66 544Q107 567 154 583T251 600Q293 600 313 580T333 524Q333 498 326 470T310 422L320 417Q379 518 444 559T582 600Q635 600 669 574T703
488Q703 474 701 458T693 422L703 417Q762 518 827 559T965 600Q1026 600 1056 571T1086 479Q1086 439 1077 395T1057 303T1036 209T1027 115Q1027 85 1032 62T1048 24Q995 -25 938 -25Q875 -25 848 4T821 89Q821 135 830 178T851 262T872 336T881 398Q881 419
874 431T847 443Q820 443 786 419T719 352T665 248T644 115Q644 85 649 62T665 24Q612 -25 555 -25Q492 -25 465 4T438 89Q438 135 447 178T468 262T489 336T498 398Q498 419 491 431T464 443Q437 443 403 419T336 352T282 248T261 115Q261 85 266 62T282 24Q229
-25 172 -25Z" />
<glyph unicode="n" horiz-adv-x="758" d="M172 -25Q109 -25 82 7T55 99Q55 120 61 163T76 260T97 368T118 464L66 544Q107 567 154 583T251 600Q293 600 313 580T333 524Q333 498 326 470T310 422L320 417Q379 518 449 559T592 600Q653 600 683 571T713 479Q713
439 704 395T684 303T663 209T654 115Q654 53 675 24Q622 -25 565 -25Q502 -25 475 7T448 99Q448 141 457 183T478 264T499 339T508 401Q508 421 501 432T474 443Q452 443 425 428T368 384T315 315T276 224T261 115Q261 53 282 24Q229 -25 172 -25Z" />
<glyph unicode="o" horiz-adv-x="719" d="M319 -25Q235 -25 174 7T79 99T45 238Q45 318 73 384T152 498T272 573T425 600Q442 600 458 599T496 592Q501 576 503 554T505 509Q425 509 366 472T275 373T243 236Q243 151 272 115T351 78Q390 78 420 98T470 158T496
251Q458 272 439 304T420 379Q420 420 437 453T483 505T548 524Q607 524 643 478T679 357Q679 277 652 208T575 86T460 5T319 -25Z" />
<glyph unicode="p" horiz-adv-x="763" d="M325 0Q283 0 246 8Q240 23 237 44T234 91Q318 91 384 122T488 206T526 326Q526 375 506 401T448 428Q411 428 374 388T306 276T258 114L256 478L338 447Q367 519 419 559T537 600Q594 600 636 571T701 489T724 365Q724
284 695 217T613 102T487 27T325 0ZM153 -200Q94 -200 67 -170T40 -76Q40 -58 46 -8T63 113T88 271T119 447L63 527Q110 562 159 581T250 600Q296 600 315 584T335 529Q335 499 326 453T304 350T278 227T255 94T246 -43Q246 -83 252 -106T277 -151Q252 -173 219
-186T153 -200Z" />
<glyph unicode="q" horiz-adv-x="737" d="M472 -199Q425 -199 406 -182T387 -128Q387 -90 403 -24T437 123L427 128Q399 56 346 16T227 -25Q171 -25 129 4T63 86T40 210Q40 297 69 368T151 492T277 572T439 600Q481 600 518 592Q524 579 527 557T530 509Q470 509
417 489T324 432T261 349T238 249Q238 200 258 174T316 147Q353 147 385 172T443 245T482 359T497 509Q524 543 556 559T628 575Q663 575 682 555T701 496Q701 465 692 414T668 293T636 138T603 -46L659 -126Q617 -157 568 -178T472 -199Z" />
<glyph unicode="r" horiz-adv-x="544" d="M173 -25Q110 -25 83 7T56 99Q56 117 61 156T75 247T95 355T119 464L66 544Q100 567 136 583T211 600Q253 600 273 580T293 524Q293 490 284 458T261 391L271 386Q294 450 318 498T376 572T459 599Q506 599 532 573T559
501Q559 450 527 415T431 380Q395 380 364 360T311 304T275 220T262 115Q262 53 283 24Q230 -25 173 -25Z" />
<glyph unicode="s" horiz-adv-x="645" d="M281 -25Q189 -25 134 -9T56 36T32 99Q32 124 46 152T89 201Q115 154 159 126T270 97Q287 97 311 103T354 122T373 157Q373 175 351 186T293 208T219 231T144 264T87 315T64 393Q64 449 90 488T161 552T263 588T384 600Q491
600 551 567T611 482Q611 436 578 411T502 385Q462 385 426 410T367 487Q328 483 297 465T265 417Q265 396 287 383T345 360T419 337T494 304T551 252T574 170Q574 116 546 79T472 19T376 -14T281 -25Z" />
<glyph unicode="t" horiz-adv-x="464" d="M216 -25Q185 -25 159 -16T117 21T101 102Q101 140 108 186T127 280T150 372T169 452T177 508Q177 531 172 561T153 625Q188 656 234 677T332 698Q374 698 391 680T408 621Q408 601 399 566T375 484T346 381T321 262T308
132L364 38Q330 7 291 -9T216 -25ZM138 424Q98 424 84 435T69 477Q69 492 73 509T85 545Q105 539 129 536T179 532Q242 532 301 542T420 553Q461 553 475 542T489 499Q489 485 485 468T473 431Q453 438 429 441T379 445Q316 445 257 435T138 424Z" />
<glyph unicode="u" horiz-adv-x="764" d="M218 -25Q138 -25 99 15T60 137Q60 176 66 219T82 306T97 388T104 460Q104 489 99 513T83 551Q124 573 168 586T240 600Q281 600 299 584T318 529Q318 508 312 472T297 392T279 306T263 227T257 172Q257 133 273 115T324
97Q366 97 408 128T475 210L490 51L435 78Q409 47 376 24T303 -12T218 -25ZM562 -25Q501 -25 473 5T444 99Q444 121 451 167T473 282T508 441L452 525Q498 553 533 569T596 592T649 600Q690 600 707 583T724 526Q724 514 719 488T705 426T687 350T670 267T656 186T650
115Q650 50 681 24Q624 -25 562 -25Z" />
<glyph unicode="v" horiz-adv-x="703" d="M282 -25Q216 -25 175 -3T114 66T95 190Q95 252 95 307T93 409T78 493T40 557Q95 600 159 600Q201 600 231 579T278 504T294 354Q294 323 294 288T293 219T291 153T289 97H299Q359 187 398 263T456 395T475 482Q475 520
456 557Q481 576 518 588T590 600Q634 600 656 579T678 516Q678 493 671 465T645 395T593 287T507 122L530 69Q500 42 458 21T370 -13T282 -25Z" />
<glyph unicode="w" horiz-adv-x="956" d="M242 -25Q163 -25 129 25T95 190Q95 252 95 307T93 409T78 493T40 557Q95 600 159 600Q201 600 231 579T278 504T294 354Q294 323 294 288T293 219T293 153T292 97H302Q345 140 374 189T420 285T444 370T452 429Q452 447
451 463T446 495T436 527Q448 546 466 558T500 570Q544 570 566 547T588 476Q588 430 572 370T529 250T474 143Q452 109 429 79T379 25T319 -11T242 -25ZM595 -25Q540 -25 508 -3T461 66T438 190L407 535Q437 557 462 563T500 570L538 512L562 97H572Q625 187 659
263T711 395T728 482Q728 520 709 557Q734 576 771 588T843 600Q887 600 909 579T931 516Q931 493 925 465T902 395T857 287T780 122L803 69Q778 42 743 21T669 -13T595 -25Z" />
<glyph unicode="x" horiz-adv-x="709" d="M489 -25Q459 -25 436 -15T392 20T347 89L198 364Q185 392 167 418T122 467T57 505Q89 553 129 576T220 600Q251 600 273 590T317 555T362 485L511 210Q524 182 542 156T588 107T652 69Q621 22 581 -1T489 -25ZM107 -25Q66
-25 41 1T15 71Q15 106 35 140T98 209T204 283L297 338L363 224Q300 184 267 143T233 64Q233 50 235 39T241 18Q205 -4 172 -14T107 -25ZM402 237L336 351Q399 392 432 433T466 511Q466 525 464 536T458 557Q494 580 527 590T592 601Q633 601 658 575T684 504Q684
470 664 436T602 366T495 292L402 237Z" />
<glyph unicode="y" horiz-adv-x="714" d="M110 -200Q25 -200 -19 -170T-64 -83Q-64 -53 -49 -27T-15 13Q-5 -4 11 -18T53 -42T112 -51Q148 -51 189 -35T272 14T352 93T421 202T468 337T486 499Q486 513 485 528T481 557Q501 576 532 588T592 600Q640 600 664 578T689
512Q689 458 672 385T620 232T535 75T421 -64T278 -163T110 -200ZM284 -25Q218 -25 181 0T125 68T103 164T98 275T96 386T83 485T42 557Q95 600 161 600Q210 600 238 577T279 515T295 428T297 327T295 227T303 139T331 77T390 54L284 -25Z" />
<glyph unicode="z" horiz-adv-x="614" d="M263 90L73 128L329 428L562 453L263 90ZM422 -25Q365 -25 317 -10T215 25Q185 2 159 -8T104 -18Q58 -18 34 11T10 78Q10 108 25 136T72 184T151 203Q175 203 210 194T284 173T359 152T422 143L558 196Q567 173 573 149T579
97Q579 61 558 34T501 -9T422 -25ZM322 375Q224 376 171 391T96 438T75 514Q75 533 78 553T86 605Q119 591 159 578T241 555T318 538T379 530Q395 560 426 580T494 600Q547 600 573 574T599 506Q599 464 576 438T513 399T424 380T322 375Z" />
<glyph unicode="{" horiz-adv-x="442" d="M221 -157Q139 -157 98 -121T57 -5Q57 31 67 81T99 188T154 301Q139 295 122 295Q94 295 73 313T52 357Q52 383 73 401T122 420Q152 420 173 401Q166 428 162 464T155 534T152 591Q152 657 171 698T222 761T293 792T373
800Q441 800 468 774T495 701Q495 694 493 677T488 649Q478 654 452 658T398 665T352 668Q336 588 321 535T288 447T251 391T206 351Q238 316 255 266T272 163Q272 159 272 153T269 129T260 75T243 -25Q261 -25 286 -22T335 -15T369 -6Q373 -19 374 -34T376 -58Q376
-104 337 -130T221 -157Z" />
<glyph unicode="|" horiz-adv-x="486" d="M131 -180Q85 -180 67 -163T48 -106L239 722L216 835Q252 855 294 867T375 880Q421 880 439 863T458 806L267 -22L290 -135Q254 -154 212 -167T131 -180Z" />
<glyph unicode="}" horiz-adv-x="442" d="M232 801Q315 801 355 765T396 649Q396 614 386 564T354 456T299 343Q314 349 331 349Q360 349 380 331T401 287Q401 261 381 243T331 224Q301 224 280 243Q287 217 291 181T298 110T301 53Q301 -13 282 -54T231 -117T160
-148T80 -156Q13 -156 -14 -130T-42 -57Q-42 -49 -40 -32T-35 -5Q-24 -9 1 -13T55 -21T101 -24Q117 56 132 109T165 197T202 253T247 293Q216 328 199 378T181 481Q181 485 181 491T184 515T193 569T210 669Q193 669 167 666T118 659T84 650Q80 663 79 679T77 702Q77
749 116 775T232 801Z" />
<glyph unicode="~" horiz-adv-x="724" d="M180 261Q138 261 124 278T109 326Q109 345 116 370T137 424Q203 424 262 433T376 454T479 475T571 484Q613 484 627 467T642 419Q642 400 635 375T614 321Q548 321 489 312T375 291T272 270T180 261Z" />
<glyph unicode="&#xa0;" horiz-adv-x="300" />
<glyph unicode="&#xa1;" horiz-adv-x="420" d="M224 296Q265 296 279 273T294 211Q294 197 291 172T282 116T272 53T264 -8T260 -56Q260 -75 265 -97T285 -133Q252 -167 207 -183T111 -200Q52 -200 28 -171T3 -97Q3 -66 11 -28T34 52T64 132T96 204T122 258Q144
277 173 286T224 296ZM266 600Q312 600 342 570T373 495Q373 462 356 433T311 386T247 368Q201 368 171 398T140 473Q140 507 157 535T202 582T266 600Z" />
<glyph unicode="&#xa2;" horiz-adv-x="571" d="M292 74Q176 74 111 133T45 299Q45 367 69 423T137 519T243 582T377 605Q455 605 502 576T550 496Q550 456 524 431T456 406Q417 406 386 429T337 489Q308 479 284 450T245 381T231 298Q231 237 251 204T308 170Q336
170 360 186T399 231T415 294Q472 294 501 274T530 215Q530 175 498 143T413 93T292 74ZM249 -70Q224 -71 196 -65T152 -48Q164 -10 175 33T199 125H348Q344 102 340 78T332 28Q316 -67 249 -70ZM289 540Q298 577 307 615T324 692Q345 786 412 786Q438 786 466
778T508 759Q492 713 475 659T438 540H289Z" />
<glyph unicode="&#xa3;" horiz-adv-x="659" d="M442 -30Q404 -30 370 -22T303 -1T234 28Q201 1 173 -10T111 -22Q68 -22 41 6T14 78Q14 137 58 174T170 212Q206 212 242 202T315 177T383 152T442 141L589 204Q602 173 607 149T613 100Q613 64 591 35T529 -12T442
-30ZM128 78L166 472Q178 593 249 649T427 705Q541 705 600 672T659 574Q659 544 649 513T622 462Q585 485 524 497T394 509L316 74L128 78ZM127 283Q84 283 69 293T54 334Q54 348 58 364T71 398Q93 392 118 389T170 385Q237 385 300 395T426 405Q468 405 483 395T499
355Q499 341 495 325T482 291Q460 297 434 300T383 303Q338 303 295 298T211 288T127 283Z" />
<glyph unicode="&#xa4;" horiz-adv-x="695" d="M328 132Q225 132 169 182T112 312Q112 380 149 431T254 510T408 539Q497 539 545 489T594 359Q594 308 575 267T520 195T436 148T328 132ZM138 20Q122 20 99 30T57 55T28 84Q59 122 94 167T168 266L308 215Q287
184 266 151T224 84Q203 52 182 36T138 20ZM478 20Q433 20 402 84Q386 118 371 151T339 215L487 266Q518 212 545 167T598 84Q587 70 565 55T519 30T478 20ZM335 252Q364 252 383 268T413 310T424 364Q424 379 419 391T399 411T356 419Q348 419 339 418T318 412Q299
390 291 365T282 317Q282 289 295 271T335 252ZM226 406Q205 442 186 474T149 534T114 588Q125 601 146 615T191 640T234 651Q280 651 310 588Q321 566 331 544T353 500T374 457L226 406ZM541 406L401 457Q422 489 443 521T486 588Q527 651 572 651Q592 651 614
641T655 616T682 588Q651 551 616 505T541 406Z" />
<glyph unicode="&#xa5;" horiz-adv-x="674" d="M322 209Q240 209 201 250T159 382Q156 449 152 501T135 593T89 657Q148 700 218 700Q266 700 294 674T335 602T353 494T357 362H367Q390 392 410 426T445 493T468 554T477 601Q477 628 458 657Q481 675 520 687T592
700Q638 700 660 682T682 625Q682 575 659 519T597 407T511 308T414 236T322 209ZM113 163Q70 163 55 174T40 214Q40 228 44 244T57 278Q79 272 105 269T156 265Q185 265 213 267T270 273L255 175Q219 171 184 167T113 163ZM310 -25Q251 -25 224 0T197 80Q197 107
202 141T221 223T254 336H465Q440 266 424 208T408 96Q408 73 413 56T431 18Q403 -4 374 -14T310 -25ZM137 323Q94 323 79 334T64 374Q64 388 68 404T81 438Q103 432 129 429T180 425Q209 425 237 427T293 433L279 335Q243 331 208 327T137 323ZM617 171Q596 177
570 180T518 183Q489 183 461 181T405 175L420 273Q456 278 491 281T562 285Q604 285 619 275T635 235Q635 221 630 205T617 171ZM641 331Q620 337 594 340T542 343Q513 343 485 341T429 335L443 433Q479 438 514 441T586 445Q628 445 643 435T659 395Q659 381
654 365T641 331Z" />
<glyph unicode="&#xa6;" horiz-adv-x="486" d="M180 465L239 722L216 835Q252 855 294 867T375 880Q421 880 439 863T458 806L379 465H180ZM131 -180Q85 -180 67 -163T48 -106L127 236H327L267 -22L290 -135Q254 -154 212 -167T131 -180Z" />
<glyph unicode="&#xa7;" horiz-adv-x="723" d="M438 82L357 205Q395 214 421 233T447 281Q447 307 423 323T360 353T278 381T196 419T133 479T108 572Q108 631 138 673T217 742T323 782T432 795Q530 795 589 778T675 732T702 663Q702 637 690 608T655 559Q619
611 569 645T442 680Q395 680 360 664T324 609Q324 584 348 568T411 539T493 509T575 467T638 404T663 307Q663 244 634 199T554 125T438 82ZM296 -187Q198 -187 139 -170T53 -123T26 -55Q26 -29 38 0T73 49Q109 -3 159 -37T286 -72Q333 -72 368 -55T404 -1Q404
24 380 40T317 69T235 99T153 141T90 204T65 301Q65 362 92 406T167 479T275 523L367 402Q330 393 306 374T281 327Q281 301 305 285T368 255T450 227T532 189T595 130T620 36Q620 -22 590 -64T511 -134T406 -174T296 -187Z" />
<glyph unicode="&#xa8;" horiz-adv-x="600" d="M484 655Q442 655 415 677T387 738Q387 775 407 799T455 835T510 847Q548 847 573 825T598 764Q598 715 564 685T484 655ZM182 655Q144 655 119 677T94 738Q94 775 112 799T157 835T208 847Q250 847 277 825T305
764Q305 732 288 707T243 669T182 655Z" />
<glyph unicode="&#xa9;" horiz-adv-x="896" d="M424 150Q359 150 299 171T190 235T113 342T85 493Q85 614 141 704T299 845T537 896Q584 896 607 888T639 862T650 818Q733 773 772 700T811 546Q811 448 778 374T688 250T564 175T424 150ZM423 213Q501 213 562
241T667 316T733 423T756 543Q756 590 739 638T688 726T602 790T480 815Q389 815 315 779T198 672T154 494Q154 398 191 336T290 243T423 213ZM447 321Q366 321 321 363T275 481Q275 533 293 576T344 652T421 701T518 719Q568 719 598 701T628 651Q628 626 611
610T566 594Q540 594 519 608T484 649Q457 638 436 613T403 553T390 479Q390 431 407 404T454 377Q477 377 496 390T527 425T540 474Q574 474 592 462T611 425Q611 396 589 373T530 335T447 321Z" />
<glyph unicode="&#xaa;" horiz-adv-x="598" d="M204 333Q144 333 108 378T71 497Q71 581 110 642T214 737T357 770Q387 770 406 764Q410 754 412 734T414 689Q360 689 323 669T266 617T246 547Q246 518 258 502T290 486Q331 486 353 534T383 689Q434 753 507 753Q568
753 568 681Q568 666 563 638T549 576T536 512T530 459Q530 431 538 410T559 377Q531 356 501 345T439 333Q395 333 371 357T347 426Q347 430 347 433T347 439L340 442Q324 391 288 362T204 333Z" />
<glyph unicode="&#xab;" horiz-adv-x="682" d="M495 25Q469 57 441 95T387 170T347 238T331 288Q331 312 350 341T401 404T476 474T566 549Q600 549 620 538T650 509T660 472Q660 445 644 424T600 383T542 344T480 300Q518 261 545 230T587 170T602 111Q602 92
590 72T553 39T495 25ZM195 25Q169 57 141 95T87 170T47 238T31 288Q31 312 50 341T101 404T176 474T266 549Q300 549 320 538T350 509T360 472Q360 445 344 424T300 383T242 344T180 300Q218 261 245 230T287 170T302 111Q302 92 290 72T253 39T195 25Z" />
<glyph unicode="&#xac;" horiz-adv-x="728" d="M488 86Q457 86 448 105T447 177L492 453L645 399L600 114Q566 100 538 93T488 86ZM203 291Q151 291 132 303T112 346Q112 367 119 394T140 454H553Q606 454 625 443T645 399L617 291H203Z" />
<glyph unicode="&#xad;" horiz-adv-x="527" d="M120 183Q92 183 75 198T57 256Q57 309 85 370Q99 366 111 365T137 363Q174 363 208 372T276 395T343 417T412 427Q440 427 457 412T475 354Q475 329 468 299T447 240Q434 245 422 246T395 247Q358 247 324 238T256
215T189 193T120 183Z" />
<glyph unicode="&#xae;" horiz-adv-x="896" d="M424 150Q359 150 299 171T190 235T113 342T85 493Q85 614 141 704T299 845T537 896Q584 896 607 888T639 862T650 818Q733 773 772 700T811 546Q811 448 778 374T688 250T564 175T424 150ZM423 213Q501 213 562
241T667 316T733 423T756 543Q756 590 739 638T688 726T602 790T480 815Q389 815 315 779T198 672T154 494Q154 398 191 336T290 243T423 213ZM448 459Q425 459 409 463T374 476V539Q383 532 395 529T420 525Q445 525 464 534T495 560T507 600Q507 611 501 623T483
642T453 650Q437 650 421 642T385 619V673Q402 686 418 696T456 712T507 718Q545 718 571 702T611 661T625 607Q625 580 615 554T582 506T527 472T448 459ZM341 320Q307 320 292 337T277 392Q277 403 278 419T283 460T293 525T310 623L282 680Q312 699 339 709T391
719Q432 719 432 669Q432 660 429 642T422 599T412 548T402 495T394 446T391 410Q391 386 394 371T407 344Q377 320 341 320ZM565 321Q540 321 523 329T493 356T468 408L444 477L548 519Q562 476 577 442T609 385T641 350Q633 342 620 336T592 325T565 321Z" />
<glyph unicode="&#xaf;" horiz-adv-x="600" d="M145 685Q90 685 90 738Q90 763 96 786T119 844Q130 840 152 836T193 832Q239 832 286 836T384 840Q465 840 465 767Q465 747 461 730T447 697Q438 700 417 702T375 705Q320 705 259 695T145 685Z" />
<glyph unicode="&#xb0;" horiz-adv-x="482" d="M262 258Q169 258 114 308T59 446Q59 513 92 564T185 643T324 672Q336 672 351 670T377 663Q380 660 382 653T385 636Q442 625 471 586T501 484Q501 420 470 369T384 288T262 258ZM266 374Q286 374 301 387T325 424T334
479Q334 533 284 533Q278 533 272 532T258 528Q245 518 236 490T226 437Q226 408 236 391T266 374Z" />
<glyph unicode="&#xb1;" horiz-adv-x="731" d="M311 106Q280 106 271 125T270 197L336 611Q404 639 448 639Q480 639 488 620T489 547L423 134Q389 120 361 113T311 106ZM204 291Q152 291 133 303T113 346Q113 367 120 394T141 454H554Q607 454 626 443T646 399Q646
355 618 291H204ZM131 -163Q79 -163 60 -151T40 -108Q40 -87 47 -60T68 0H481Q534 0 553 -11T573 -55Q573 -99 545 -163H131Z" />
<glyph unicode="&#xb2;" horiz-adv-x="495" d="M241 373L88 390Q170 424 211 450T267 500T282 544Q282 559 271 575T236 591Q216 591 196 579T165 524Q130 528 110 546T89 592Q89 645 141 677T277 710Q327 710 364 693T423 646T445 583Q445 539 425 504T360 437T241
373ZM133 272Q99 272 78 294T57 350Q57 388 85 413T160 438Q177 438 202 431T254 415T308 398T353 390L462 449Q470 425 473 406T477 368Q477 328 442 300T353 272Q308 272 274 282T220 303Q178 272 133 272Z" />
<glyph unicode="&#xb3;" horiz-adv-x="410" d="M176 272Q112 272 74 292T36 345Q36 371 53 387T97 404Q123 404 146 387T186 340Q217 340 237 356T257 395Q257 422 234 437T170 452L171 505Q213 505 237 520T261 562Q261 582 248 592T210 603Q181 603 161 583T134
527Q102 531 84 549T65 597Q65 647 113 678T237 710Q315 710 358 681T402 600Q402 563 380 534T316 487Q357 476 379 452T401 395Q401 358 374 330T296 287T176 272Z" />
<glyph unicode="&#xb4;" horiz-adv-x="600" d="M126 653Q102 653 87 673T70 729Q109 740 144 763T212 813T276 857T340 876Q406 876 406 791Q406 774 404 755T396 718Q345 718 306 708T236 686T179 663T126 653Z" />
<glyph unicode="&#xb5;" horiz-adv-x="764" d="M143 -200Q84 -200 57 -170T30 -76Q30 -58 36 -8T53 113T78 271T109 447L53 527Q100 562 149 581T240 600Q286 600 305 584T325 529Q325 508 318 470T302 385T282 294T265 213T258 161Q258 97 324 97Q366 97 408
128T475 210L490 51L435 78Q425 58 406 40T361 11T303 0T238 16Q231 -41 240 -87T267 -151Q242 -173 209 -186T143 -200ZM562 -25Q501 -25 473 5T444 99Q444 121 451 167T473 282T508 441L452 525Q498 553 533 569T596 592T649 600Q690 600 707 583T724 526Q724
514 719 488T705 426T687 350T670 267T656 186T650 115Q650 50 681 24Q624 -25 562 -25Z" />
<glyph unicode="&#xb6;" horiz-adv-x="674" d="M420 -93Q353 -93 325 -51T296 55Q296 105 310 159T346 262T389 348T422 404H402Q368 343 322 313T224 283Q170 283 134 307T79 372T60 460Q60 508 79 556T137 644T233 709T367 734Q405 734 448 725T529 690T591
621T615 506Q615 467 603 414T573 299T544 171T531 40Q531 12 538 -10T561 -46Q526 -69 489 -81T420 -93Z" />
<glyph unicode="&#xb7;" horiz-adv-x="333" d="M137 180Q91 180 61 210T30 285Q30 319 47 347T92 394T156 412Q202 412 232 382T263 307Q263 274 246 245T201 198T137 180Z" />
<glyph unicode="&#xb8;" horiz-adv-x="600" d="M169 -287Q105 -287 66 -264T27 -203Q27 -178 45 -158T93 -125T160 -112Q141 -121 131 -137T120 -177Q120 -196 132 -208T165 -220Q197 -220 216 -203T235 -155Q235 -79 159 -39Q245 -39 297 -70T349 -154Q349 -191
325 -221T261 -269T169 -287Z" />
<glyph unicode="&#xb9;" horiz-adv-x="402" d="M253 272Q199 272 174 296T149 376Q149 397 151 419T157 462T164 501T171 533Q153 533 133 547T99 589T85 659Q146 665 185 677T256 700T320 710Q379 710 379 643Q379 625 373 598T359 536T345 465T339 391Q339 364
344 341T359 300Q304 272 253 272Z" />
<glyph unicode="&#xba;" horiz-adv-x="534" d="M277 333Q183 333 128 384T73 521Q73 593 107 649T202 738T338 770Q351 770 367 768T397 761Q402 751 405 736T407 701Q364 696 328 672T269 607T247 514Q247 471 263 447T314 422Q352 422 376 456T400 540Q400 571
389 597T352 649Q367 671 391 683T443 696Q494 696 518 661T543 571Q543 503 511 449T419 364T277 333Z" />
<glyph unicode="&#xbb;" horiz-adv-x="681" d="M188 560Q214 528 242 490T296 415T336 347T352 297Q352 273 333 244T282 181T207 111T117 36Q83 36 63 47T33 76T23 113Q23 140 39 161T83 202T141 241T203 285Q166 325 139 356T96 415T81 474Q81 493 93 513T130
546T188 560ZM488 560Q514 528 542 490T596 415T636 347T652 297Q652 273 633 244T582 181T507 111T417 36Q383 36 363 47T333 76T323 113Q323 140 339 161T383 202T441 241T503 285Q466 325 439 356T396 415T381 474Q381 493 393 513T430 546T488 560Z" />
<glyph unicode="&#xbc;" horiz-adv-x="1137" d="M253 272Q199 272 174 296T149 376Q149 397 151 419T157 462T164 501T171 533Q153 533 133 547T99 589T85 659Q146 665 185 677T256 700T320 710Q379 710 379 643Q379 625 373 598T359 536T345 465T339 391Q339
364 344 341T359 300Q304 272 253 272ZM393 -40Q368 -40 342 -32T302 -13Q347 66 401 172T515 411T641 702Q679 796 746 796Q772 796 798 788T838 769Q770 651 683 472T498 54Q460 -40 393 -40ZM795 35Q731 35 695 57T658 117Q658 136 669 160T696 211T729 266T756
321T767 373Q767 390 762 398Q779 404 805 409T847 415Q939 415 939 325Q939 285 906 234T804 133H943V56Q914 48 872 42T795 35ZM985 -23Q943 -23 920 4T897 80Q897 108 908 143T935 212T966 270Q982 284 1015 294T1077 305Q1104 305 1113 300T1123 277Q1123 263
1112 229T1089 152T1078 64Q1078 44 1081 31T1089 4Q1062 -10 1038 -16T985 -23Z" />
<glyph unicode="&#xbd;" horiz-adv-x="1203" d="M253 272Q199 272 174 296T149 376Q149 397 151 419T157 462T164 501T171 533Q153 533 133 547T99 589T85 659Q146 665 185 677T256 700T320 710Q379 710 379 643Q379 625 373 598T359 536T345 465T339 391Q339
364 344 341T359 300Q304 272 253 272ZM393 -40Q368 -40 342 -32T302 -13Q347 66 401 172T515 411T641 702Q679 796 746 796Q772 796 798 788T838 769Q770 651 683 472T498 54Q460 -40 393 -40ZM872 78L719 95Q801 129 842 155T898 205T913 249Q913 264 902 280T867
296Q847 296 827 284T796 229Q761 233 741 251T720 297Q720 350 772 382T908 415Q958 415 995 398T1054 351T1076 288Q1076 244 1056 209T991 142T872 78ZM764 -23Q730 -23 709 -1T688 55Q688 93 716 118T791 143Q808 143 833 136T885 120T939 103T984 95L1093
154Q1101 130 1104 111T1108 73Q1108 33 1073 5T984 -23Q939 -23 905 -13T851 8Q809 -23 764 -23Z" />
<glyph unicode="&#xbe;" horiz-adv-x="1145" d="M176 272Q112 272 74 292T36 345Q36 371 53 387T97 404Q123 404 146 387T186 340Q217 340 237 356T257 395Q257 422 234 437T170 452L171 505Q213 505 237 520T261 562Q261 582 248 592T210 603Q181 603 161 583T134
527Q102 531 84 549T65 597Q65 647 113 678T237 710Q315 710 358 681T402 600Q402 563 380 534T316 487Q357 476 379 452T401 395Q401 358 374 330T296 287T176 272ZM401 -40Q376 -40 350 -32T310 -13Q355 66 409 172T523 411T649 702Q687 796 754 796Q780 796
806 788T846 769Q778 651 691 472T506 54Q468 -40 401 -40ZM803 35Q739 35 703 57T666 117Q666 136 677 160T704 211T737 266T764 321T775 373Q775 390 770 398Q787 404 813 409T855 415Q947 415 947 325Q947 285 914 234T812 133H951V56Q922 48 880 42T803 35ZM993
-23Q951 -23 928 4T905 80Q905 108 916 143T943 212T974 270Q990 284 1023 294T1085 305Q1112 305 1121 300T1131 277Q1131 263 1120 229T1097 152T1086 64Q1086 44 1089 31T1097 4Q1070 -10 1046 -16T993 -23Z" />
<glyph unicode="&#xbf;" horiz-adv-x="589" d="M218 312Q278 312 305 281T333 199Q290 195 258 183T205 152T172 109T161 55Q161 24 179 0T239 -25Q262 -25 286 -14T332 22T362 93Q405 93 429 78T463 40T474 -9Q474 -43 458 -77T409 -139T327 -183T209 -200Q113
-200 55 -166T-29 -79T-55 33Q-55 95 -34 146T24 234T111 291T218 312ZM313 600Q359 600 389 570T420 495Q420 462 403 433T358 386T294 368Q248 368 218 398T187 473Q187 507 204 535T249 582T313 600Z" />
<glyph unicode="&#xc0;" horiz-adv-x="767" d="M113 -29Q20 -29 20 69Q20 100 30 140T63 239T126 379T224 577L191 662Q247 697 293 711T393 725Q450 725 475 700Q522 725 559 725Q614 725 639 690T664 578Q664 517 664 459T663 348T666 246T675 156T694 79T727
16Q669 -29 602 -29Q562 -29 534 -11T487 46T461 146T453 292Q453 379 454 457T459 593H447Q381 487 333 394T258 227T232 110Q232 55 253 16Q225 -4 187 -16T113 -29ZM178 161L200 280H546L526 161H178ZM590 788Q564 788 538 798T480 820T410 843T320 853Q316
871 313 890T310 926Q310 1011 376 1011Q408 1011 439 993T503 948T571 899T646 864Q644 828 629 808T590 788Z" />
<glyph unicode="&#xc1;" horiz-adv-x="767" d="M113 -29Q20 -29 20 69Q20 100 30 140T63 239T126 379T224 577L191 662Q247 697 293 711T393 725Q450 725 475 700Q522 725 559 725Q614 725 639 690T664 578Q664 517 664 459T663 348T666 246T675 156T694 79T727
16Q669 -29 602 -29Q562 -29 534 -11T487 46T461 146T453 292Q453 379 454 457T459 593H447Q381 487 333 394T258 227T232 110Q232 55 253 16Q225 -4 187 -16T113 -29ZM178 161L200 280H546L526 161H178ZM400 788Q376 788 361 808T344 864Q383 875 418 898T486
948T550 992T614 1011Q680 1011 680 926Q680 909 678 890T670 853Q619 853 580 843T510 821T453 798T400 788Z" />
<glyph unicode="&#xc2;" horiz-adv-x="767" d="M113 -29Q20 -29 20 69Q20 100 30 140T63 239T126 379T224 577L191 662Q247 697 293 711T393 725Q450 725 475 700Q522 725 559 725Q614 725 639 690T664 578Q664 517 664 459T663 348T666 246T675 156T694 79T727
16Q669 -29 602 -29Q562 -29 534 -11T487 46T461 146T453 292Q453 379 454 457T459 593H447Q381 487 333 394T258 227T232 110Q232 55 253 16Q225 -4 187 -16T113 -29ZM178 161L200 280H546L526 161H178ZM362 799Q325 799 310 810T295 838Q295 860 311 887T350
941T393 986Q418 1003 458 1013T540 1023Q590 1023 625 1005T660 946V883Q660 858 669 843T691 818Q672 811 647 805T597 799Q561 799 539 815T516 874Q516 891 519 914T527 961H507Q489 942 479 919T463 871T458 817Q439 810 415 805T362 799Z" />
<glyph unicode="&#xc3;" horiz-adv-x="767" d="M113 -29Q20 -29 20 69Q20 100 30 140T63 239T126 379T224 577L191 662Q247 697 293 711T393 725Q450 725 475 700Q522 725 559 725Q614 725 639 690T664 578Q664 517 664 459T663 348T666 246T675 156T694 79T727
16Q669 -29 602 -29Q562 -29 534 -11T487 46T461 146T453 292Q453 379 454 457T459 593H447Q381 487 333 394T258 227T232 110Q232 55 253 16Q225 -4 187 -16T113 -29ZM178 161L200 280H546L526 161H178ZM352 801Q324 801 306 814T288 864Q288 886 295 913T315
969Q336 959 357 954T398 949Q441 949 479 964T555 993T632 1008Q660 1008 678 995T696 945Q696 923 689 896T669 840Q648 851 627 855T586 860Q544 860 505 846T429 816T352 801Z" />
<glyph unicode="&#xc4;" horiz-adv-x="767" d="M113 -29Q20 -29 20 69Q20 100 30 140T63 239T126 379T224 577L191 662Q247 697 293 711T393 725Q450 725 475 700Q522 725 559 725Q614 725 639 690T664 578Q664 517 664 459T663 348T666 246T675 156T694 79T727
16Q669 -29 602 -29Q562 -29 534 -11T487 46T461 146T453 292Q453 379 454 457T459 593H447Q381 487 333 394T258 227T232 110Q232 55 253 16Q225 -4 187 -16T113 -29ZM178 161L200 280H546L526 161H178ZM627 790Q585 790 558 812T530 873Q530 910 550 934T598
970T653 982Q691 982 716 960T741 899Q741 850 707 820T627 790ZM325 790Q287 790 262 812T237 873Q237 910 255 934T300 970T351 982Q393 982 420 960T448 899Q448 867 431 842T386 804T325 790Z" />
<glyph unicode="&#xc5;" horiz-adv-x="767" d="M113 -29Q20 -29 20 69Q20 100 30 140T63 239T126 379T224 577L191 662Q247 697 293 711T393 725Q450 725 475 700Q522 725 559 725Q614 725 639 690T664 578Q664 517 664 459T663 348T666 246T675 156T694 79T727
16Q669 -29 602 -29Q562 -29 534 -11T487 46T461 146T453 292Q453 379 454 457T459 593H447Q381 487 333 394T258 227T232 110Q232 55 253 16Q225 -4 187 -16T113 -29ZM178 161L200 280H546L526 161H178ZM485 770Q412 770 370 806T328 903Q328 954 351 993T417
1053T514 1075Q587 1075 629 1040T671 942Q671 891 648 852T583 792T485 770ZM492 844Q520 845 537 872T554 943Q554 1003 508 1002Q498 1002 492 1001T476 998Q463 981 455 957T447 907Q447 879 459 862T492 844Z" />
<glyph unicode="&#xc6;" horiz-adv-x="967" d="M113 -29Q67 -29 44 -4T20 69Q20 100 30 140T65 239T131 379T234 577L201 662Q257 697 303 711T403 726Q439 726 466 714T509 680L469 593H457Q388 487 338 394T260 227T232 110Q232 81 237 59T253 16Q225 -4 187
-16T113 -29ZM160 161L182 280H508L488 161H160ZM785 -25Q728 -25 678 -13T567 29V136H776Q813 141 850 151T924 175Q930 161 932 146T935 111Q935 46 896 11T785 -25ZM520 -26Q456 -26 427 6T398 109Q398 133 401 168T412 257T434 393T469 593L408 653Q464 689
516 707T614 726Q691 726 691 632Q691 617 687 588T676 519T661 436T645 347T629 262T618 192T614 144Q614 98 621 70T644 19Q593 -26 520 -26ZM695 249Q678 249 659 252T610 262L630 376Q650 371 669 369T709 366L799 389Q801 380 802 368T804 341Q804 298 775
274T695 249ZM786 493Q761 493 727 499T662 514T610 533L622 668Q688 668 743 675T852 694T969 721Q973 704 975 688T977 656Q977 606 954 569T889 513T786 493Z" />
<glyph unicode="&#xc7;" horiz-adv-x="716" d="M355 -25Q202 -25 116 55T30 278Q30 376 64 457T160 599T306 693T489 726Q584 726 640 692T696 599Q696 552 663 522T579 491Q531 491 490 517T425 594Q375 575 335 527T271 414T248 274Q248 183 279 132T367 81Q412
81 448 105T506 172T531 265Q595 265 629 242T664 171Q664 116 623 72T511 2T355 -25ZM269 -45Q205 -45 166 -22T127 39Q127 64 145 84T193 117T260 130Q241 121 231 105T220 65Q220 46 232 34T265 22Q297 22 316 39T335 87Q335 163 259 203Q345 203 397 172T449
88Q449 51 425 21T361 -27T269 -45Z" />
<glyph unicode="&#xc8;" horiz-adv-x="629" d="M182 -26Q118 -26 89 6T60 109Q60 131 63 162T73 243T92 365T123 546L70 653Q126 689 178 707T276 726Q353 726 353 632Q353 617 349 588T338 519T323 436T307 347T291 262T280 192T276 144Q276 98 283 70T306 19Q255
-26 182 -26ZM447 -25Q390 -25 340 -13T229 29V136H438Q475 141 512 151T586 175Q592 161 594 146T597 111Q597 46 558 11T447 -25ZM357 249Q340 249 321 252T272 262L292 376Q312 371 331 369T371 366L461 389Q463 380 464 368T466 341Q466 298 437 274T357 249ZM448
493Q423 493 389 499T324 514T272 533L284 668Q350 668 405 675T514 694T631 721Q635 704 637 688T639 656Q639 606 616 569T551 513T448 493ZM510 788Q484 788 458 798T400 820T330 843T240 853Q236 871 233 890T230 926Q230 1011 296 1011Q328 1011 359 993T423
948T491 899T566 864Q564 828 549 808T510 788Z" />
<glyph unicode="&#xc9;" horiz-adv-x="629" d="M182 -26Q118 -26 89 6T60 109Q60 131 63 162T73 243T92 365T123 546L70 653Q126 689 178 707T276 726Q353 726 353 632Q353 617 349 588T338 519T323 436T307 347T291 262T280 192T276 144Q276 98 283 70T306 19Q255
-26 182 -26ZM447 -25Q390 -25 340 -13T229 29V136H438Q475 141 512 151T586 175Q592 161 594 146T597 111Q597 46 558 11T447 -25ZM357 249Q340 249 321 252T272 262L292 376Q312 371 331 369T371 366L461 389Q463 380 464 368T466 341Q466 298 437 274T357 249ZM448
493Q423 493 389 499T324 514T272 533L284 668Q350 668 405 675T514 694T631 721Q635 704 637 688T639 656Q639 606 616 569T551 513T448 493ZM320 788Q296 788 281 808T264 864Q303 875 338 898T406 948T470 992T534 1011Q600 1011 600 926Q600 909 598 890T590
853Q539 853 500 843T430 821T373 798T320 788Z" />
<glyph unicode="&#xca;" horiz-adv-x="629" d="M182 -26Q118 -26 89 6T60 109Q60 131 63 162T73 243T92 365T123 546L70 653Q126 689 178 707T276 726Q353 726 353 632Q353 617 349 588T338 519T323 436T307 347T291 262T280 192T276 144Q276 98 283 70T306 19Q255
-26 182 -26ZM447 -25Q390 -25 340 -13T229 29V136H438Q475 141 512 151T586 175Q592 161 594 146T597 111Q597 46 558 11T447 -25ZM357 249Q340 249 321 252T272 262L292 376Q312 371 331 369T371 366L461 389Q463 380 464 368T466 341Q466 298 437 274T357 249ZM448
493Q423 493 389 499T324 514T272 533L284 668Q350 668 405 675T514 694T631 721Q635 704 637 688T639 656Q639 606 616 569T551 513T448 493ZM282 799Q245 799 230 810T215 838Q215 860 231 887T270 941T313 986Q338 1003 378 1013T460 1023Q510 1023 545 1005T580
946V883Q580 858 589 843T611 818Q592 811 567 805T517 799Q481 799 459 815T436 874Q436 891 439 914T447 961H427Q409 942 399 919T383 871T378 817Q359 810 335 805T282 799Z" />
<glyph unicode="&#xcb;" horiz-adv-x="629" d="M182 -26Q118 -26 89 6T60 109Q60 131 63 162T73 243T92 365T123 546L70 653Q126 689 178 707T276 726Q353 726 353 632Q353 617 349 588T338 519T323 436T307 347T291 262T280 192T276 144Q276 98 283 70T306 19Q255
-26 182 -26ZM447 -25Q390 -25 340 -13T229 29V136H438Q475 141 512 151T586 175Q592 161 594 146T597 111Q597 46 558 11T447 -25ZM357 249Q340 249 321 252T272 262L292 376Q312 371 331 369T371 366L461 389Q463 380 464 368T466 341Q466 298 437 274T357 249ZM448
493Q423 493 389 499T324 514T272 533L284 668Q350 668 405 675T514 694T631 721Q635 704 637 688T639 656Q639 606 616 569T551 513T448 493ZM547 790Q505 790 478 812T450 873Q450 910 470 934T518 970T573 982Q611 982 636 960T661 899Q661 850 627 820T547
790ZM245 790Q207 790 182 812T157 873Q157 910 175 934T220 970T271 982Q313 982 340 960T368 899Q368 867 351 842T306 804T245 790Z" />
<glyph unicode="&#xcc;" horiz-adv-x="383" d="M182 -25Q118 -25 89 7T60 110Q60 132 62 162T72 240T91 362T123 546L70 653Q126 689 178 707T276 726Q353 726 353 632Q353 617 349 588T338 520T323 436T307 348T291 263T280 193T276 145Q276 99 283 71T306 20Q249
-25 182 -25ZM367 788Q341 788 315 798T257 820T187 843T97 853Q93 871 90 890T87 926Q87 1011 153 1011Q185 1011 216 993T280 948T348 899T423 864Q421 828 406 808T367 788Z" />
<glyph unicode="&#xcd;" horiz-adv-x="383" d="M182 -25Q118 -25 89 7T60 110Q60 132 62 162T72 240T91 362T123 546L70 653Q126 689 178 707T276 726Q353 726 353 632Q353 617 349 588T338 520T323 436T307 348T291 263T280 193T276 145Q276 99 283 71T306 20Q249
-25 182 -25ZM177 788Q153 788 138 808T121 864Q160 875 195 898T263 948T327 992T391 1011Q457 1011 457 926Q457 909 455 890T447 853Q396 853 357 843T287 821T230 798T177 788Z" />
<glyph unicode="&#xce;" horiz-adv-x="383" d="M182 -25Q118 -25 89 7T60 110Q60 132 62 162T72 240T91 362T123 546L70 653Q126 689 178 707T276 726Q353 726 353 632Q353 617 349 588T338 520T323 436T307 348T291 263T280 193T276 145Q276 99 283 71T306 20Q249
-25 182 -25ZM139 799Q102 799 87 810T72 838Q72 860 88 887T127 941T170 986Q195 1003 235 1013T317 1023Q367 1023 402 1005T437 946V883Q437 858 446 843T468 818Q449 811 424 805T374 799Q338 799 316 815T293 874Q293 891 296 914T304 961H284Q266 942 256
919T240 871T235 817Q216 810 192 805T139 799Z" />
<glyph unicode="&#xcf;" horiz-adv-x="383" d="M182 -25Q118 -25 89 7T60 110Q60 132 62 162T72 240T91 362T123 546L70 653Q126 689 178 707T276 726Q353 726 353 632Q353 617 349 588T338 520T323 436T307 348T291 263T280 193T276 145Q276 99 283 71T306 20Q249
-25 182 -25ZM404 790Q362 790 335 812T307 873Q307 910 327 934T375 970T430 982Q468 982 493 960T518 899Q518 850 484 820T404 790ZM102 790Q64 790 39 812T14 873Q14 910 32 934T77 970T128 982Q170 982 197 960T225 899Q225 867 208 842T163 804T102 790Z"
/>
<glyph unicode="&#xd0;" horiz-adv-x="856" d="M323 -25Q199 -25 130 19T60 143Q60 164 63 193T73 268T92 381T123 546L70 653Q126 689 178 707T276 726Q353 726 353 632Q353 616 349 583T338 506T323 412T307 313T291 221T280 147T276 103Q290 96 307 93T343
89Q412 89 465 126T548 231T578 384Q578 484 532 540T403 596Q383 596 361 590T316 571T265 538L235 620Q283 661 322 684T402 716T494 726Q585 726 652 688T758 580T796 419Q796 321 762 240T664 99T514 8T323 -25ZM60 279Q13 279 -4 292T-21 342Q-21 359 -16
379T-2 422Q22 415 51 411T108 406Q182 406 252 418T392 431Q439 431 456 418T473 368Q473 351 468 331T454 288Q430 296 402 300T344 304Q295 304 247 298T153 286T60 279Z" />
<glyph unicode="&#xd1;" horiz-adv-x="864" d="M663 -25Q619 -25 584 -16T521 18T471 84T429 189T391 340T353 546H289L276 726Q324 726 359 715T420 674T466 590T505 451T544 243H654L663 -25ZM182 -26Q118 -26 89 6T60 109Q60 131 62 161T72 239T91 361T123
546L70 653Q126 689 178 707T276 726Q353 726 353 632Q353 617 349 588T338 519T323 436T307 347T291 262T280 192T276 144Q276 98 283 70T306 19Q249 -26 182 -26ZM663 -25Q599 -25 570 7T541 110Q541 132 543 162T553 240T572 362T604 547L561 654Q614 690 664
708T757 727Q834 727 834 633Q834 618 830 589T819 520T804 437T788 348T772 263T761 193T757 145Q757 99 764 71T787 20Q758 -3 728 -14T663 -25ZM369 801Q341 801 323 814T305 864Q305 886 312 913T332 969Q353 959 374 954T415 949Q458 949 496 964T572 993T649
1008Q677 1008 695 995T713 945Q713 923 706 896T686 840Q665 851 644 855T603 860Q561 860 522 846T446 816T369 801Z" />
<glyph unicode="&#xd2;" horiz-adv-x="773" d="M346 -25Q250 -25 179 14T69 122T30 283Q30 383 61 464T147 604T270 693T416 725Q484 725 512 702T541 629Q541 611 538 598T527 567Q517 570 500 572T469 575Q402 575 352 535T275 429T248 283Q248 183 288 132T394
81Q431 81 466 96T532 141T583 209T612 296Q539 330 511 380T482 487Q482 525 499 555T545 604T611 622Q679 622 716 569T753 424Q753 328 723 246T637 103T508 9T346 -25ZM573 788Q547 788 521 798T463 820T393 843T303 853Q299 871 296 890T293 926Q293 1011
359 1011Q391 1011 422 993T486 948T554 899T629 864Q627 828 612 808T573 788Z" />
<glyph unicode="&#xd3;" horiz-adv-x="773" d="M346 -25Q250 -25 179 14T69 122T30 283Q30 383 61 464T147 604T270 693T416 725Q484 725 512 702T541 629Q541 611 538 598T527 567Q517 570 500 572T469 575Q402 575 352 535T275 429T248 283Q248 183 288 132T394
81Q431 81 466 96T532 141T583 209T612 296Q539 330 511 380T482 487Q482 525 499 555T545 604T611 622Q679 622 716 569T753 424Q753 328 723 246T637 103T508 9T346 -25ZM383 788Q359 788 344 808T327 864Q366 875 401 898T469 948T533 992T597 1011Q663 1011
663 926Q663 909 661 890T653 853Q602 853 563 843T493 821T436 798T383 788Z" />
<glyph unicode="&#xd4;" horiz-adv-x="773" d="M346 -25Q250 -25 179 14T69 122T30 283Q30 383 61 464T147 604T270 693T416 725Q484 725 512 702T541 629Q541 611 538 598T527 567Q517 570 500 572T469 575Q402 575 352 535T275 429T248 283Q248 183 288 132T394
81Q431 81 466 96T532 141T583 209T612 296Q539 330 511 380T482 487Q482 525 499 555T545 604T611 622Q679 622 716 569T753 424Q753 328 723 246T637 103T508 9T346 -25ZM345 799Q308 799 293 810T278 838Q278 860 294 887T333 941T376 986Q401 1003 441 1013T523
1023Q573 1023 608 1005T643 946V883Q643 858 652 843T674 818Q655 811 630 805T580 799Q544 799 522 815T499 874Q499 891 502 914T510 961H490Q472 942 462 919T446 871T441 817Q422 810 398 805T345 799Z" />
<glyph unicode="&#xd5;" horiz-adv-x="773" d="M346 -25Q250 -25 179 14T69 122T30 283Q30 383 61 464T147 604T270 693T416 725Q484 725 512 702T541 629Q541 611 538 598T527 567Q517 570 500 572T469 575Q402 575 352 535T275 429T248 283Q248 183 288 132T394
81Q431 81 466 96T532 141T583 209T612 296Q539 330 511 380T482 487Q482 525 499 555T545 604T611 622Q679 622 716 569T753 424Q753 328 723 246T637 103T508 9T346 -25ZM335 801Q307 801 289 814T271 864Q271 886 278 913T298 969Q319 959 340 954T381 949Q424
949 462 964T538 993T615 1008Q643 1008 661 995T679 945Q679 923 672 896T652 840Q631 851 610 855T569 860Q527 860 488 846T412 816T335 801Z" />
<glyph unicode="&#xd6;" horiz-adv-x="773" d="M346 -25Q250 -25 179 14T69 122T30 283Q30 383 61 464T147 604T270 693T416 725Q484 725 512 702T541 629Q541 611 538 598T527 567Q517 570 500 572T469 575Q402 575 352 535T275 429T248 283Q248 183 288 132T394
81Q431 81 466 96T532 141T583 209T612 296Q539 330 511 380T482 487Q482 525 499 555T545 604T611 622Q679 622 716 569T753 424Q753 328 723 246T637 103T508 9T346 -25ZM610 790Q568 790 541 812T513 873Q513 910 533 934T581 970T636 982Q674 982 699 960T724
899Q724 850 690 820T610 790ZM308 790Q270 790 245 812T220 873Q220 910 238 934T283 970T334 982Q376 982 403 960T431 899Q431 867 414 842T369 804T308 790Z" />
<glyph unicode="&#xd7;" horiz-adv-x="690" d="M194 117Q169 127 145 142T105 173T89 204Q89 218 100 235T138 276L522 616Q548 606 572 592T611 561T627 530Q627 517 616 500T578 458L194 117ZM471 117L176 452Q157 474 148 489T138 517Q138 536 155 555T196
590T243 616L538 281Q557 259 567 245T577 216Q577 199 560 181T518 146T471 117Z" />
<glyph unicode="&#xd8;" horiz-adv-x="773" d="M346 -25Q250 -25 179 14T69 122T30 283Q30 383 61 464T147 604T270 693T416 725Q484 725 512 702T541 629Q541 611 538 598T527 567Q517 570 500 572T469 575Q402 575 352 535T275 429T248 283Q248 183 288 132T394
81Q431 81 466 96T532 141T583 209T612 296Q539 330 511 380T482 487Q482 525 499 555T545 604T611 622Q679 622 716 569T753 424Q753 328 723 246T637 103T508 9T346 -25ZM334 -103Q309 -103 281 -95T238 -76Q285 55 339 255T452 719Q473 813 540 813Q566 813
594 805T636 786Q589 655 535 455T422 -9Q401 -103 334 -103Z" />
<glyph unicode="&#xd9;" horiz-adv-x="822" d="M616 -26Q579 -26 553 -12T514 29T500 95Q500 117 502 136T510 171L500 170Q469 109 425 66T329 -1T221 -25Q181 -25 151 -14T101 20T70 76T60 155Q60 174 62 197T70 261T88 369T119 546L66 653Q135 693 181 709T272
725Q349 725 349 632Q349 619 344 588T331 513T313 424T296 334T282 257T277 209Q277 169 291 150T336 130Q368 130 400 153T460 220T510 321Q499 350 494 383T488 451Q488 499 498 541T528 616T575 674T636 712T709 725Q735 725 759 720T802 706Q787 649 771 575T741
423T719 278T710 164Q710 62 740 19Q712 -4 682 -15T616 -26ZM573 788Q547 788 521 798T463 820T393 843T303 853Q299 871 296 890T293 926Q293 1011 359 1011Q391 1011 422 993T486 948T554 899T629 864Q627 828 612 808T573 788Z" />
<glyph unicode="&#xda;" horiz-adv-x="822" d="M616 -26Q579 -26 553 -12T514 29T500 95Q500 117 502 136T510 171L500 170Q469 109 425 66T329 -1T221 -25Q181 -25 151 -14T101 20T70 76T60 155Q60 174 62 197T70 261T88 369T119 546L66 653Q135 693 181 709T272
725Q349 725 349 632Q349 619 344 588T331 513T313 424T296 334T282 257T277 209Q277 169 291 150T336 130Q368 130 400 153T460 220T510 321Q499 350 494 383T488 451Q488 499 498 541T528 616T575 674T636 712T709 725Q735 725 759 720T802 706Q787 649 771 575T741
423T719 278T710 164Q710 62 740 19Q712 -4 682 -15T616 -26ZM383 788Q359 788 344 808T327 864Q366 875 401 898T469 948T533 992T597 1011Q663 1011 663 926Q663 909 661 890T653 853Q602 853 563 843T493 821T436 798T383 788Z" />
<glyph unicode="&#xdb;" horiz-adv-x="822" d="M616 -26Q579 -26 553 -12T514 29T500 95Q500 117 502 136T510 171L500 170Q469 109 425 66T329 -1T221 -25Q181 -25 151 -14T101 20T70 76T60 155Q60 174 62 197T70 261T88 369T119 546L66 653Q135 693 181 709T272
725Q349 725 349 632Q349 619 344 588T331 513T313 424T296 334T282 257T277 209Q277 169 291 150T336 130Q368 130 400 153T460 220T510 321Q499 350 494 383T488 451Q488 499 498 541T528 616T575 674T636 712T709 725Q735 725 759 720T802 706Q787 649 771 575T741
423T719 278T710 164Q710 62 740 19Q712 -4 682 -15T616 -26ZM345 799Q308 799 293 810T278 838Q278 860 294 887T333 941T376 986Q401 1003 441 1013T523 1023Q573 1023 608 1005T643 946V883Q643 858 652 843T674 818Q655 811 630 805T580 799Q544 799 522 815T499
874Q499 891 502 914T510 961H490Q472 942 462 919T446 871T441 817Q422 810 398 805T345 799Z" />
<glyph unicode="&#xdc;" horiz-adv-x="822" d="M616 -26Q579 -26 553 -12T514 29T500 95Q500 117 502 136T510 171L500 170Q469 109 425 66T329 -1T221 -25Q181 -25 151 -14T101 20T70 76T60 155Q60 174 62 197T70 261T88 369T119 546L66 653Q135 693 181 709T272
725Q349 725 349 632Q349 619 344 588T331 513T313 424T296 334T282 257T277 209Q277 169 291 150T336 130Q368 130 400 153T460 220T510 321Q499 350 494 383T488 451Q488 499 498 541T528 616T575 674T636 712T709 725Q735 725 759 720T802 706Q787 649 771 575T741
423T719 278T710 164Q710 62 740 19Q712 -4 682 -15T616 -26ZM610 790Q568 790 541 812T513 873Q513 910 533 934T581 970T636 982Q674 982 699 960T724 899Q724 850 690 820T610 790ZM308 790Q270 790 245 812T220 873Q220 910 238 934T283 970T334 982Q376 982
403 960T431 899Q431 867 414 842T369 804T308 790Z" />
<glyph unicode="&#xdd;" horiz-adv-x="841" d="M121 -242Q26 -242 -22 -208T-70 -113Q-70 -82 -55 -54T-21 -12Q-9 -30 10 -47T59 -74T130 -85Q172 -85 222 -66T325 -9T425 85T512 216T572 383T595 587Q595 613 590 636T573 681Q602 702 641 714T714 726Q760 726
783 702T806 630Q806 567 791 489T745 328T671 163T570 8T443 -121T293 -210T121 -242ZM356 -30Q288 -30 246 -6T180 59T147 154T136 268T134 388T129 505T111 606T65 681Q122 726 190 726Q247 726 278 698T324 621T341 513T344 390T344 266T356 158T393 82T468
53L356 -30ZM406 788Q382 788 367 808T350 864Q389 875 424 898T492 948T556 992T620 1011Q686 1011 686 926Q686 909 684 890T676 853Q625 853 586 843T516 821T459 798T406 788Z" />
<glyph unicode="&#xde;" horiz-adv-x="717" d="M383 111Q340 111 309 118T243 144V263Q261 249 284 243T330 236Q377 236 414 256T472 312T494 392Q494 421 483 446T450 486T393 502Q362 502 331 487T265 444V546Q296 570 327 589T398 619T494 630Q566 630 616
599T691 516T717 406Q717 354 697 302T636 206T532 137T383 111ZM182 -26Q118 -26 89 6T60 109Q60 131 62 161T72 239T91 361T123 546L70 653Q126 689 178 707T276 726Q353 726 353 632Q353 617 349 588T338 519T323 436T307 347T291 262T280 192T276 144Q276 98
283 70T306 19Q249 -26 182 -26Z" />
<glyph unicode="&#xdf;" horiz-adv-x="735" d="M165 -210Q110 -210 80 -182T50 -102Q50 -84 59 -19T86 157T131 423Q159 575 242 650T463 725Q537 725 590 704T672 644T701 550Q701 492 664 441T559 357Q608 347 645 320T703 256T725 176Q725 82 656 29T463 -25Q390
-25 348 -1T305 67Q305 95 319 118T361 156Q373 119 395 99T447 78Q475 78 495 91T527 130T539 188Q539 232 512 274T441 340Q468 356 489 383T522 445T535 512Q535 556 516 582T461 608Q429 608 404 590T363 535T337 442Q313 309 297 221T273 76T261 -14T257 -70Q257
-135 288 -161Q259 -185 228 -197T165 -210ZM125 300Q60 300 37 313T14 363Q14 406 35 443Q58 436 86 432T143 427Q172 427 190 429T232 437L251 315Q233 311 212 308T169 302T125 300Z" />
<glyph unicode="&#xe0;" horiz-adv-x="746" d="M227 -25Q171 -25 129 4T63 86T40 210Q40 297 69 368T151 492T277 572T439 600Q481 600 518 592Q524 579 527 557T530 509Q470 509 417 489T324 432T261 349T238 249Q238 200 258 174T316 147Q390 147 434 235T497
509Q524 543 556 559T628 575Q663 575 682 555T701 496Q701 470 692 426T670 328T648 219T638 115Q638 50 669 24Q639 0 607 -12T540 -25Q489 -25 462 4T434 87Q434 95 435 104T437 123L427 128Q399 56 346 16T227 -25ZM536 653Q510 653 484 663T426 685T356 708T266
718Q262 736 259 755T256 791Q256 876 322 876Q354 876 385 858T449 813T517 764T592 729Q590 693 575 673T536 653Z" />
<glyph unicode="&#xe1;" horiz-adv-x="746" d="M227 -25Q171 -25 129 4T63 86T40 210Q40 297 69 368T151 492T277 572T439 600Q481 600 518 592Q524 579 527 557T530 509Q470 509 417 489T324 432T261 349T238 249Q238 200 258 174T316 147Q390 147 434 235T497
509Q524 543 556 559T628 575Q663 575 682 555T701 496Q701 470 692 426T670 328T648 219T638 115Q638 50 669 24Q639 0 607 -12T540 -25Q489 -25 462 4T434 87Q434 95 435 104T437 123L427 128Q399 56 346 16T227 -25ZM346 653Q322 653 307 673T290 729Q329 740
364 763T432 813T496 857T560 876Q626 876 626 791Q626 774 624 755T616 718Q565 718 526 708T456 686T399 663T346 653Z" />
<glyph unicode="&#xe2;" horiz-adv-x="746" d="M227 -25Q171 -25 129 4T63 86T40 210Q40 297 69 368T151 492T277 572T439 600Q481 600 518 592Q524 579 527 557T530 509Q470 509 417 489T324 432T261 349T238 249Q238 200 258 174T316 147Q390 147 434 235T497
509Q524 543 556 559T628 575Q663 575 682 555T701 496Q701 470 692 426T670 328T648 219T638 115Q638 50 669 24Q639 0 607 -12T540 -25Q489 -25 462 4T434 87Q434 95 435 104T437 123L427 128Q399 56 346 16T227 -25ZM308 664Q271 664 256 675T241 703Q241 725
257 752T296 806T339 851Q364 868 404 878T486 888Q536 888 571 870T606 811V748Q606 723 615 708T637 683Q618 676 593 670T543 664Q507 664 485 680T462 739Q462 756 465 779T473 826H453Q435 807 425 784T409 736T404 682Q385 675 361 670T308 664Z" />
<glyph unicode="&#xe3;" horiz-adv-x="746" d="M227 -25Q171 -25 129 4T63 86T40 210Q40 297 69 368T151 492T277 572T439 600Q481 600 518 592Q524 579 527 557T530 509Q470 509 417 489T324 432T261 349T238 249Q238 200 258 174T316 147Q390 147 434 235T497
509Q524 543 556 559T628 575Q663 575 682 555T701 496Q701 470 692 426T670 328T648 219T638 115Q638 50 669 24Q639 0 607 -12T540 -25Q489 -25 462 4T434 87Q434 95 435 104T437 123L427 128Q399 56 346 16T227 -25ZM298 666Q270 666 252 679T234 729Q234 751
241 778T261 834Q282 824 303 819T344 814Q387 814 425 829T501 858T578 873Q606 873 624 860T642 810Q642 788 635 761T615 705Q594 716 573 720T532 725Q490 725 451 711T375 681T298 666Z" />
<glyph unicode="&#xe4;" horiz-adv-x="746" d="M227 -25Q171 -25 129 4T63 86T40 210Q40 297 69 368T151 492T277 572T439 600Q481 600 518 592Q524 579 527 557T530 509Q470 509 417 489T324 432T261 349T238 249Q238 200 258 174T316 147Q390 147 434 235T497
509Q524 543 556 559T628 575Q663 575 682 555T701 496Q701 470 692 426T670 328T648 219T638 115Q638 50 669 24Q639 0 607 -12T540 -25Q489 -25 462 4T434 87Q434 95 435 104T437 123L427 128Q399 56 346 16T227 -25ZM573 655Q531 655 504 677T476 738Q476 775
496 799T544 835T599 847Q637 847 662 825T687 764Q687 715 653 685T573 655ZM271 655Q233 655 208 677T183 738Q183 775 201 799T246 835T297 847Q339 847 366 825T394 764Q394 732 377 707T332 669T271 655Z" />
<glyph unicode="&#xe5;" horiz-adv-x="746" d="M227 -25Q171 -25 129 4T63 86T40 210Q40 297 69 368T151 492T277 572T439 600Q481 600 518 592Q524 579 527 557T530 509Q470 509 417 489T324 432T261 349T238 249Q238 200 258 174T316 147Q390 147 434 235T497
509Q524 543 556 559T628 575Q663 575 682 555T701 496Q701 470 692 426T670 328T648 219T638 115Q638 50 669 24Q639 0 607 -12T540 -25Q489 -25 462 4T434 87Q434 95 435 104T437 123L427 128Q399 56 346 16T227 -25ZM431 635Q358 635 316 671T274 768Q274 819
297 858T363 918T460 940Q533 940 575 905T617 807Q617 756 594 717T529 657T431 635ZM438 709Q466 710 483 737T500 808Q500 868 454 867Q444 867 438 866T422 863Q409 846 401 822T393 772Q393 744 405 727T438 709Z" />
<glyph unicode="&#xe6;" horiz-adv-x="1049" d="M227 -25Q171 -25 129 4T63 86T40 210Q40 291 69 358T151 473T277 548T439 575Q481 575 518 567Q524 551 527 529T530 484Q470 484 417 466T324 416T261 341T238 249Q238 200 258 174T316 147Q342 147 367 161T415
201T454 262L446 128H436Q406 56 351 16T227 -25ZM696 -25Q572 -25 502 41T431 225Q431 306 460 374T543 493T668 572T825 600Q917 600 967 562T1018 455Q1018 384 969 333T828 256T610 232L623 306Q730 312 787 345T845 434Q845 456 830 469T791 483Q759 483 730
462T678 404T642 321T629 223Q629 155 652 117T718 78Q769 78 802 115T837 214Q897 214 928 192T960 128Q960 85 925 51T830 -4T696 -25Z" />
<glyph unicode="&#xe7;" horiz-adv-x="638" d="M323 -25Q193 -25 119 44T45 235Q45 315 73 381T153 497T275 573T429 600Q515 600 566 568T617 483Q617 440 588 413T513 385Q470 385 435 409T379 477Q341 463 310 427T261 340T243 233Q243 160 268 119T338 78Q373
78 402 98T449 152T469 227Q529 227 560 205T592 141Q592 95 556 57T459 -3T323 -25ZM254 -45Q190 -45 151 -22T112 39Q112 64 130 84T178 117T245 130Q226 121 216 105T205 65Q205 46 217 34T250 22Q282 22 301 39T320 87Q320 163 244 203Q330 203 382 172T434
88Q434 51 410 21T346 -27T254 -45Z" />
<glyph unicode="&#xe8;" horiz-adv-x="661" d="M308 -25Q184 -25 114 41T43 225Q43 306 72 374T155 493T280 572T437 600Q529 600 579 562T630 455Q630 384 581 333T440 256T222 232L235 306Q342 312 399 345T457 434Q457 456 442 469T403 483Q371 483 342 462T290
404T254 321T241 223Q241 155 264 117T330 78Q381 78 414 115T449 214Q509 214 540 192T572 128Q572 85 537 51T442 -4T308 -25ZM532 653Q506 653 480 663T422 685T352 708T262 718Q258 736 255 755T252 791Q252 876 318 876Q350 876 381 858T445 813T513 764T588
729Q586 693 571 673T532 653Z" />
<glyph unicode="&#xe9;" horiz-adv-x="661" d="M308 -25Q184 -25 114 41T43 225Q43 306 72 374T155 493T280 572T437 600Q529 600 579 562T630 455Q630 384 581 333T440 256T222 232L235 306Q342 312 399 345T457 434Q457 456 442 469T403 483Q371 483 342 462T290
404T254 321T241 223Q241 155 264 117T330 78Q381 78 414 115T449 214Q509 214 540 192T572 128Q572 85 537 51T442 -4T308 -25ZM342 653Q318 653 303 673T286 729Q325 740 360 763T428 813T492 857T556 876Q622 876 622 791Q622 774 620 755T612 718Q561 718 522
708T452 686T395 663T342 653Z" />
<glyph unicode="&#xea;" horiz-adv-x="661" d="M308 -25Q184 -25 114 41T43 225Q43 306 72 374T155 493T280 572T437 600Q529 600 579 562T630 455Q630 384 581 333T440 256T222 232L235 306Q342 312 399 345T457 434Q457 456 442 469T403 483Q371 483 342 462T290
404T254 321T241 223Q241 155 264 117T330 78Q381 78 414 115T449 214Q509 214 540 192T572 128Q572 85 537 51T442 -4T308 -25ZM304 664Q267 664 252 675T237 703Q237 725 253 752T292 806T335 851Q360 868 400 878T482 888Q532 888 567 870T602 811V748Q602 723
611 708T633 683Q614 676 589 670T539 664Q503 664 481 680T458 739Q458 756 461 779T469 826H449Q431 807 421 784T405 736T400 682Q381 675 357 670T304 664Z" />
<glyph unicode="&#xeb;" horiz-adv-x="661" d="M308 -25Q184 -25 114 41T43 225Q43 306 72 374T155 493T280 572T437 600Q529 600 579 562T630 455Q630 384 581 333T440 256T222 232L235 306Q342 312 399 345T457 434Q457 456 442 469T403 483Q371 483 342 462T290
404T254 321T241 223Q241 155 264 117T330 78Q381 78 414 115T449 214Q509 214 540 192T572 128Q572 85 537 51T442 -4T308 -25ZM569 655Q527 655 500 677T472 738Q472 775 492 799T540 835T595 847Q633 847 658 825T683 764Q683 715 649 685T569 655ZM267 655Q229
655 204 677T179 738Q179 775 197 799T242 835T293 847Q335 847 362 825T390 764Q390 732 373 707T328 669T267 655Z" />
<glyph unicode="&#xec;" horiz-adv-x="388" d="M183 -25Q119 -25 92 7T65 99Q65 121 71 160T87 248T108 347T129 441L73 525Q118 557 170 578T270 600Q312 600 328 582T345 526Q345 514 340 488T326 426T308 350T291 267T277 186T271 115Q271 85 278 62T302 24Q246
-25 183 -25ZM357 653Q331 653 305 663T247 685T177 708T87 718Q83 736 80 755T77 791Q77 876 143 876Q175 876 206 858T270 813T338 764T413 729Q411 693 396 673T357 653Z" />
<glyph unicode="&#xed;" horiz-adv-x="388" d="M183 -25Q119 -25 92 7T65 99Q65 121 71 160T87 248T108 347T129 441L73 525Q118 557 170 578T270 600Q312 600 328 582T345 526Q345 514 340 488T326 426T308 350T291 267T277 186T271 115Q271 85 278 62T302 24Q246
-25 183 -25ZM167 653Q143 653 128 673T111 729Q150 740 185 763T253 813T317 857T381 876Q447 876 447 791Q447 774 445 755T437 718Q386 718 347 708T277 686T220 663T167 653Z" />
<glyph unicode="&#xee;" horiz-adv-x="388" d="M183 -25Q119 -25 92 7T65 99Q65 121 71 160T87 248T108 347T129 441L73 525Q118 557 170 578T270 600Q312 600 328 582T345 526Q345 514 340 488T326 426T308 350T291 267T277 186T271 115Q271 85 278 62T302 24Q246
-25 183 -25ZM385 664Q348 664 333 675T318 703Q318 725 334 752T373 806T416 851Q441 868 481 878T563 888Q613 888 648 870T683 811V748Q683 723 692 708T714 683Q695 676 670 670T620 664Q584 664 562 680T539 739Q539 756 542 779T550 826H530Q512 807 502
784T486 736T481 682Q462 675 438 670T385 664Z" />
<glyph unicode="&#xef;" horiz-adv-x="388" d="M183 -25Q119 -25 92 7T65 99Q65 121 71 160T87 248T108 347T129 441L73 525Q118 557 170 578T270 600Q312 600 328 582T345 526Q345 514 340 488T326 426T308 350T291 267T277 186T271 115Q271 85 278 62T302 24Q246
-25 183 -25ZM650 655Q608 655 581 677T553 738Q553 775 573 799T621 835T676 847Q714 847 739 825T764 764Q764 715 730 685T650 655ZM348 655Q310 655 285 677T260 738Q260 775 278 799T323 835T374 847Q416 847 443 825T471 764Q471 732 454 707T409 669T348
655Z" />
<glyph unicode="&#xf0;" horiz-adv-x="718" d="M333 -25Q246 -25 182 8T82 102T46 245Q46 323 74 388T153 500T273 574T426 600Q468 600 497 592Q508 563 506 509Q430 509 371 474T278 378T244 236Q244 158 273 118T357 78Q404 78 440 105T496 181T517 291Q517
373 490 447T414 580T301 672T163 706Q163 762 197 794T291 827Q351 827 408 801T514 727T600 618T659 484T680 337Q680 229 636 148T514 21T333 -25ZM613 654Q593 647 572 641T530 631T489 625L466 746Q492 749 509 753T553 767Q579 777 604 790T649 819Q661 808
674 792T696 751Q708 717 691 697T613 654Z" />
<glyph unicode="&#xf1;" horiz-adv-x="758" d="M172 -25Q109 -25 82 7T55 99Q55 120 61 163T76 260T97 368T118 464L66 544Q107 567 154 583T251 600Q293 600 313 580T333 524Q333 498 326 470T310 422L320 417Q379 518 449 559T592 600Q653 600 683 571T713 479Q713
439 704 395T684 303T663 209T654 115Q654 53 675 24Q622 -25 565 -25Q502 -25 475 7T448 99Q448 141 457 183T478 264T499 339T508 401Q508 421 501 432T474 443Q452 443 425 428T368 384T315 315T276 224T261 115Q261 53 282 24Q229 -25 172 -25ZM334 666Q306
666 288 679T270 729Q270 751 277 778T297 834Q318 824 339 819T380 814Q423 814 461 829T537 858T614 873Q642 873 660 860T678 810Q678 788 671 761T651 705Q630 716 609 720T568 725Q526 725 487 711T411 681T334 666Z" />
<glyph unicode="&#xf2;" horiz-adv-x="719" d="M319 -25Q235 -25 174 7T79 99T45 238Q45 318 73 384T152 498T272 573T425 600Q442 600 458 599T496 592Q501 576 503 554T505 509Q425 509 366 472T275 373T243 236Q243 151 272 115T351 78Q390 78 420 98T470 158T496
251Q458 272 439 304T420 379Q420 420 437 453T483 505T548 524Q607 524 643 478T679 357Q679 277 652 208T575 86T460 5T319 -25ZM513 653Q487 653 461 663T403 685T333 708T243 718Q239 736 236 755T233 791Q233 876 299 876Q331 876 362 858T426 813T494 764T569
729Q567 693 552 673T513 653Z" />
<glyph unicode="&#xf3;" horiz-adv-x="719" d="M319 -25Q235 -25 174 7T79 99T45 238Q45 318 73 384T152 498T272 573T425 600Q442 600 458 599T496 592Q501 576 503 554T505 509Q425 509 366 472T275 373T243 236Q243 151 272 115T351 78Q390 78 420 98T470 158T496
251Q458 272 439 304T420 379Q420 420 437 453T483 505T548 524Q607 524 643 478T679 357Q679 277 652 208T575 86T460 5T319 -25ZM323 653Q299 653 284 673T267 729Q306 740 341 763T409 813T473 857T537 876Q603 876 603 791Q603 774 601 755T593 718Q542 718
503 708T433 686T376 663T323 653Z" />
<glyph unicode="&#xf4;" horiz-adv-x="719" d="M319 -25Q235 -25 174 7T79 99T45 238Q45 318 73 384T152 498T272 573T425 600Q442 600 458 599T496 592Q501 576 503 554T505 509Q425 509 366 472T275 373T243 236Q243 151 272 115T351 78Q390 78 420 98T470 158T496
251Q458 272 439 304T420 379Q420 420 437 453T483 505T548 524Q607 524 643 478T679 357Q679 277 652 208T575 86T460 5T319 -25ZM285 664Q248 664 233 675T218 703Q218 725 234 752T273 806T316 851Q341 868 381 878T463 888Q513 888 548 870T583 811V748Q583
723 592 708T614 683Q595 676 570 670T520 664Q484 664 462 680T439 739Q439 756 442 779T450 826H430Q412 807 402 784T386 736T381 682Q362 675 338 670T285 664Z" />
<glyph unicode="&#xf5;" horiz-adv-x="719" d="M319 -25Q235 -25 174 7T79 99T45 238Q45 318 73 384T152 498T272 573T425 600Q442 600 458 599T496 592Q501 576 503 554T505 509Q425 509 366 472T275 373T243 236Q243 151 272 115T351 78Q390 78 420 98T470 158T496
251Q458 272 439 304T420 379Q420 420 437 453T483 505T548 524Q607 524 643 478T679 357Q679 277 652 208T575 86T460 5T319 -25ZM275 666Q247 666 229 679T211 729Q211 751 218 778T238 834Q259 824 280 819T321 814Q364 814 402 829T478 858T555 873Q583 873
601 860T619 810Q619 788 612 761T592 705Q571 716 550 720T509 725Q467 725 428 711T352 681T275 666Z" />
<glyph unicode="&#xf6;" horiz-adv-x="719" d="M319 -25Q235 -25 174 7T79 99T45 238Q45 318 73 384T152 498T272 573T425 600Q442 600 458 599T496 592Q501 576 503 554T505 509Q425 509 366 472T275 373T243 236Q243 151 272 115T351 78Q390 78 420 98T470 158T496
251Q458 272 439 304T420 379Q420 420 437 453T483 505T548 524Q607 524 643 478T679 357Q679 277 652 208T575 86T460 5T319 -25ZM550 655Q508 655 481 677T453 738Q453 775 473 799T521 835T576 847Q614 847 639 825T664 764Q664 715 630 685T550 655ZM248 655Q210
655 185 677T160 738Q160 775 178 799T223 835T274 847Q316 847 343 825T371 764Q371 732 354 707T309 669T248 655Z" />
<glyph unicode="&#xf7;" horiz-adv-x="730" d="M203 291Q151 291 132 303T112 346Q112 367 119 394T140 454H553Q606 454 625 443T645 399Q645 355 617 291H203ZM404 535Q358 535 328 565T297 640Q297 674 314 702T359 749T423 767Q469 767 499 737T530 662Q530
629 513 600T468 553T404 535ZM316 -23Q270 -23 240 7T209 82Q209 116 226 144T271 191T335 209Q381 209 411 179T442 104Q442 71 425 42T380 -5T316 -23Z" />
<glyph unicode="&#xf8;" horiz-adv-x="719" d="M288 -78Q268 -78 246 -72T211 -56Q249 49 292 209T382 580Q399 655 453 655Q473 655 495 649T529 633Q492 528 449 368T358 -3Q342 -78 288 -78ZM319 -25Q235 -25 174 7T79 99T45 238Q45 318 73 384T152 498T272
573T425 600Q442 600 458 599T496 592Q501 576 503 554T505 509Q425 509 366 472T275 373T243 236Q243 151 272 115T351 78Q390 78 420 98T470 158T496 251Q458 272 439 304T420 379Q420 420 437 453T483 505T548 524Q607 524 643 478T679 357Q679 277 652 208T575
86T460 5T319 -25Z" />
<glyph unicode="&#xf9;" horiz-adv-x="764" d="M218 -25Q138 -25 99 15T60 137Q60 176 66 219T82 306T97 388T104 460Q104 489 99 513T83 551Q124 573 168 586T240 600Q281 600 299 584T318 529Q318 508 312 472T297 392T279 306T263 227T257 172Q257 133 273
115T324 97Q366 97 408 128T475 210L490 51L435 78Q409 47 376 24T303 -12T218 -25ZM562 -25Q501 -25 473 5T444 99Q444 121 451 167T473 282T508 441L452 525Q498 553 533 569T596 592T649 600Q690 600 707 583T724 526Q724 514 719 488T705 426T687 350T670 267T656
186T650 115Q650 50 681 24Q624 -25 562 -25ZM545 653Q519 653 493 663T435 685T365 708T275 718Q271 736 268 755T265 791Q265 876 331 876Q363 876 394 858T458 813T526 764T601 729Q599 693 584 673T545 653Z" />
<glyph unicode="&#xfa;" horiz-adv-x="764" d="M218 -25Q138 -25 99 15T60 137Q60 176 66 219T82 306T97 388T104 460Q104 489 99 513T83 551Q124 573 168 586T240 600Q281 600 299 584T318 529Q318 508 312 472T297 392T279 306T263 227T257 172Q257 133 273
115T324 97Q366 97 408 128T475 210L490 51L435 78Q409 47 376 24T303 -12T218 -25ZM562 -25Q501 -25 473 5T444 99Q444 121 451 167T473 282T508 441L452 525Q498 553 533 569T596 592T649 600Q690 600 707 583T724 526Q724 514 719 488T705 426T687 350T670 267T656
186T650 115Q650 50 681 24Q624 -25 562 -25ZM355 653Q331 653 316 673T299 729Q338 740 373 763T441 813T505 857T569 876Q635 876 635 791Q635 774 633 755T625 718Q574 718 535 708T465 686T408 663T355 653Z" />
<glyph unicode="&#xfb;" horiz-adv-x="764" d="M218 -25Q138 -25 99 15T60 137Q60 176 66 219T82 306T97 388T104 460Q104 489 99 513T83 551Q124 573 168 586T240 600Q281 600 299 584T318 529Q318 508 312 472T297 392T279 306T263 227T257 172Q257 133 273
115T324 97Q366 97 408 128T475 210L490 51L435 78Q409 47 376 24T303 -12T218 -25ZM562 -25Q501 -25 473 5T444 99Q444 121 451 167T473 282T508 441L452 525Q498 553 533 569T596 592T649 600Q690 600 707 583T724 526Q724 514 719 488T705 426T687 350T670 267T656
186T650 115Q650 50 681 24Q624 -25 562 -25ZM317 664Q280 664 265 675T250 703Q250 725 266 752T305 806T348 851Q373 868 413 878T495 888Q545 888 580 870T615 811V748Q615 723 624 708T646 683Q627 676 602 670T552 664Q516 664 494 680T471 739Q471 756 474
779T482 826H462Q444 807 434 784T418 736T413 682Q394 675 370 670T317 664Z" />
<glyph unicode="&#xfc;" horiz-adv-x="764" d="M218 -25Q138 -25 99 15T60 137Q60 176 66 219T82 306T97 388T104 460Q104 489 99 513T83 551Q124 573 168 586T240 600Q281 600 299 584T318 529Q318 508 312 472T297 392T279 306T263 227T257 172Q257 133 273
115T324 97Q366 97 408 128T475 210L490 51L435 78Q409 47 376 24T303 -12T218 -25ZM562 -25Q501 -25 473 5T444 99Q444 121 451 167T473 282T508 441L452 525Q498 553 533 569T596 592T649 600Q690 600 707 583T724 526Q724 514 719 488T705 426T687 350T670 267T656
186T650 115Q650 50 681 24Q624 -25 562 -25ZM582 655Q540 655 513 677T485 738Q485 775 505 799T553 835T608 847Q646 847 671 825T696 764Q696 715 662 685T582 655ZM280 655Q242 655 217 677T192 738Q192 775 210 799T255 835T306 847Q348 847 375 825T403 764Q403
732 386 707T341 669T280 655Z" />
<glyph unicode="&#xfd;" horiz-adv-x="714" d="M110 -200Q25 -200 -19 -170T-64 -83Q-64 -53 -49 -27T-15 13Q-5 -4 11 -18T53 -42T112 -51Q148 -51 189 -35T272 14T352 93T421 202T468 337T486 499Q486 513 485 528T481 557Q501 576 532 588T592 600Q640 600
664 578T689 512Q689 458 672 385T620 232T535 75T421 -64T278 -163T110 -200ZM284 -25Q218 -25 181 0T125 68T103 164T98 275T96 386T83 485T42 557Q95 600 161 600Q210 600 238 577T279 515T295 428T297 327T295 227T303 139T331 77T390 54L284 -25ZM325 653Q301
653 286 673T269 729Q308 740 343 763T411 813T475 857T539 876Q605 876 605 791Q605 774 603 755T595 718Q544 718 505 708T435 686T378 663T325 653Z" />
<glyph unicode="&#xfe;" horiz-adv-x="765" d="M327 0Q285 0 248 8Q242 23 239 44T236 91Q320 91 386 122T490 206T528 326Q528 375 508 401T450 428Q413 428 376 388T308 276T260 114L258 478L340 447Q369 519 421 559T539 600Q596 600 638 571T703 489T726 365Q726
284 697 217T615 102T489 27T327 0ZM155 -200Q94 -200 68 -165T42 -56Q42 -37 47 6T62 108T82 236T106 373T129 507T149 622L93 702Q135 733 184 754T280 775Q327 775 346 759T365 704Q365 651 357 596T335 482T307 362T279 235T257 100T248 -43Q248 -93 257 -113T279
-151Q251 -176 218 -188T155 -200Z" />
<glyph unicode="&#xff;" horiz-adv-x="714" d="M110 -200Q25 -200 -19 -170T-64 -83Q-64 -53 -49 -27T-15 13Q-5 -4 11 -18T53 -42T112 -51Q148 -51 189 -35T272 14T352 93T421 202T468 337T486 499Q486 513 485 528T481 557Q501 576 532 588T592 600Q640 600
664 578T689 512Q689 458 672 385T620 232T535 75T421 -64T278 -163T110 -200ZM284 -25Q218 -25 181 0T125 68T103 164T98 275T96 386T83 485T42 557Q95 600 161 600Q210 600 238 577T279 515T295 428T297 327T295 227T303 139T331 77T390 54L284 -25ZM552 655Q510
655 483 677T455 738Q455 775 475 799T523 835T578 847Q616 847 641 825T666 764Q666 715 632 685T552 655ZM250 655Q212 655 187 677T162 738Q162 775 180 799T225 835T276 847Q318 847 345 825T373 764Q373 732 356 707T311 669T250 655Z" />
<glyph unicode="&#x2013;" horiz-adv-x="679" d="M139 183Q75 183 52 199T28 258Q28 285 35 317T56 386Q90 375 125 369T195 363Q242 363 286 368T372 381T457 393T540 399Q605 399 628 384T652 324Q652 298 645 266T624 196Q590 207 554 213T485 219Q439 219
395 214T307 201T223 189T139 183Z" />
<glyph unicode="&#x2014;" horiz-adv-x="891" d="M152 183Q82 183 56 201T30 269Q30 296 36 326T56 386Q93 376 142 370T241 363Q304 363 366 368T491 381T616 393T741 399Q812 399 837 381T862 313Q862 285 856 255T836 196Q802 207 753 213T652 219Q589 219
527 214T402 201T277 189T152 183Z" />
<glyph unicode="&#x2018;" horiz-adv-x="318" d="M313 786L328 742Q295 727 272 701T235 646T222 592L292 502Q291 470 273 443T226 399T163 382Q112 382 84 417T56 497Q56 566 87 625T176 727T313 786Z" />
<glyph unicode="&#x2019;" horiz-adv-x="348" d="M89 382L74 426Q107 442 130 468T167 523T180 576L110 666Q112 698 129 725T176 769T239 786Q290 786 318 751T346 671Q346 603 315 543T226 441T89 382Z" />
<glyph unicode="&#x201a;" horiz-adv-x="332" d="M27 -196L12 -152Q45 -136 68 -110T105 -55T118 -2L48 88Q50 120 67 147T114 191T177 208Q228 208 256 173T284 93Q284 25 253 -35T164 -137T27 -196Z" />
<glyph unicode="&#x201c;" horiz-adv-x="614" d="M313 786L328 742Q295 727 272 701T235 646T222 592L292 502Q291 470 273 443T226 399T163 382Q112 382 84 417T56 497Q56 566 87 625T176 727T313 786ZM609 786L624 742Q591 727 568 701T531 646T518 592L588
502Q587 470 569 443T522 399T459 382Q408 382 380 417T352 497Q352 566 383 625T472 727T609 786Z" />
<glyph unicode="&#x201d;" horiz-adv-x="644" d="M385 382L370 426Q403 442 426 468T463 523T476 576L406 666Q408 698 425 725T472 769T535 786Q586 786 614 751T642 671Q642 603 611 543T522 441T385 382ZM89 382L74 426Q107 442 130 468T167 523T180 576L110
666Q112 698 129 725T176 769T239 786Q290 786 318 751T346 671Q346 603 315 543T226 441T89 382Z" />
<glyph unicode="&#x201e;" horiz-adv-x="628" d="M27 -196L12 -152Q45 -136 68 -110T105 -55T118 -2L48 88Q50 120 67 147T114 191T177 208Q228 208 256 173T284 93Q284 25 253 -35T164 -137T27 -196ZM323 -196L308 -152Q341 -136 364 -110T401 -55T414 -2L344
88Q346 120 363 147T410 191T473 208Q524 208 552 173T580 93Q580 25 549 -35T460 -137T323 -196Z" />
<glyph unicode="&#x2022;" horiz-adv-x="388" d="M158 175Q104 175 67 211T30 301Q30 341 50 376T105 432T181 453Q236 453 273 417T310 327Q310 287 290 253T235 197T158 175Z" />
<glyph unicode="&#x2039;" horiz-adv-x="382" d="M195 25Q169 57 141 95T87 170T47 238T31 288Q31 312 50 341T101 404T176 474T266 549Q300 549 320 538T350 509T360 472Q360 445 344 424T300 383T242 344T180 300Q218 261 245 230T287 170T302 111Q302 92 290
72T253 39T195 25Z" />
<glyph unicode="&#x203a;" horiz-adv-x="382" d="M187 549Q213 517 241 479T295 404T335 336T351 286Q351 262 332 233T281 170T206 100T116 25Q82 25 62 36T32 65T22 102Q22 129 38 150T82 191T140 230T202 274Q165 314 138 345T95 404T80 463Q80 482 92 502T129
535T187 549Z" />
</font>
</defs>
</svg>
